<svg xmlns="http://www.w3.org/2000/svg" viewBox="0 0 1100 1100"><path d="M200,900L900,900L901,900L901,200L900,200L900,199L200,199L200,200Z" fill="currentColor"/><path d="M201,899L201,800L300,800L300,899Z" fill="currentColor"/><path d="M201,799L201,700L300,700L300,799Z" fill="currentColor"/><path d="M201,699L201,600L300,600L300,699Z" fill="currentColor"/><path d="M201,599L201,500L300,500L300,599Z" fill="currentColor"/><path d="M201,499L201,400L300,400L300,499Z" fill="currentColor"/><path d="M201,399L201,300L300,300L300,399Z" fill="currentColor"/><path d="M201,299L201,200L300,200L300,299Z" fill="currentColor"/><path d="M301,899L301,800L400,800L400,899Z" fill="currentColor"/><path d="M301,799L301,700L400,700L400,799Z" fill="currentColor"/><path d="M301,699L301,600L400,600L400,699Z" fill="currentColor"/><path d="M301,599L301,500L400,500L400,599Z" fill="currentColor"/><path d="M301,499L301,400L400,400L400,499Z" fill="currentColor"/><path d="M301,399L301,300L400,300L400,399Z" fill="currentColor"/><path d="M301,299L301,200L400,200L400,299Z" fill="currentColor"/><path d="M401,899L401,800L500,800L500,899Z" fill="currentColor"/><path d="M401,799L401,700L500,700L500,799Z" fill="currentColor"/><path d="M401,699L401,600L500,600L500,699Z" fill="currentColor"/><path d="M401,599L401,500L500,500L500,599Z" fill="currentColor"/><path d="M401,499L401,400L500,400L500,499Z" fill="currentColor"/><path d="M401,399L401,300L500,300L500,399Z" fill="currentColor"/><path d="M401,299L401,200L500,200L500,299Z" fill="currentColor"/><path d="M501,899L501,800L600,800L600,899Z" fill="currentColor"/><path d="M501,799L501,700L600,700L600,799Z" fill="currentColor"/><path d="M501,699L501,600L600,600L600,699Z" fill="currentColor"/><path d="M501,599L501,500L600,500L600,599Z" fill="currentColor"/><path d="M501,499L501,400L600,400L600,499Z" fill="currentColor"/><path d="M501,399L501,300L600,300L600,399Z" fill="currentColor"/><path d="M501,299L501,200L600,200L600,299Z" fill="currentColor"/><path d="M601,899L601,800L700,800L700,899Z" fill="currentColor"/><path d="M601,799L601,700L700,700L700,799Z" fill="currentColor"/><path d="M601,699L601,600L700,600L700,699Z" fill="currentColor"/><path d="M601,599L601,500L700,500L700,599Z" fill="currentColor"/><path d="M601,499L601,400L700,400L700,499Z" fill="currentColor"/><path d="M601,399L601,300L700,300L700,399Z" fill="currentColor"/><path d="M601,299L601,200L700,200L700,299Z" fill="currentColor"/><path d="M701,899L701,800L800,800L800,899Z" fill="currentColor"/><path d="M701,799L701,700L800,700L800,799Z" fill="currentColor"/><path d="M701,699L701,600L800,600L800,699Z" fill="currentColor"/><path d="M701,599L701,500L800,500L800,599Z" fill="currentColor"/><path d="M701,499L701,400L800,400L800,499Z" fill="currentColor"/><path d="M701,399L701,300L800,300L800,399Z" fill="currentColor"/><path d="M701,299L701,200L800,200L800,299Z" fill="currentColor"/><path d="M801,899L801,800L900,800L900,899Z" fill="currentColor"/><path d="M801,799L801,700L900,700L900,799Z" fill="currentColor"/><path d="M801,699L801,600L900,600L900,699Z" fill="currentColor"/><path d="M801,599L801,500L900,500L900,599Z" fill="currentColor"/><path d="M801,499L801,400L900,400L900,499Z" fill="currentColor"/><path d="M801,399L801,300L900,300L900,399Z" fill="currentColor"/><path d="M801,299L801,200L900,200L900,299Z" fill="currentColor"/></svg>