<svg xmlns="http://www.w3.org/2000/svg" viewBox="0 0 1100 1100"><path d="M383,815C426,926,485,925,550,925C615,925,674,926,717,815L762,699L850,639L850,209L646,320L454,320L250,209L250,639L338,699Z" fill="currentColor"/><path d="M464,511C493,511,518,536,518,565C518,595,493,620,464,620C434,620,410,595,410,565C410,536,434,511,464,511Z" fill="currentColor"/><path d="M550,420L671,420L750,377L750,586L680,634L624,779C606,825,616,825,550,825Z" fill="currentColor"/><path d="M636,511C666,511,690,536,690,565C690,595,666,620,636,620C607,620,582,595,582,565C582,536,607,511,636,511Z" fill="currentColor"/></svg>