<svg xmlns="http://www.w3.org/2000/svg" viewBox="0 0 1100 1100"><path d="M200,859L300,900L299,799L751,800L750,910L850,909L850,602C850,553,839,503,820,458L779,367C760,324,725,301,678,301L367,301C320,301,285,324,267,367L229,458C210,503,200,553,200,602Z" fill="currentColor"/><path d="M350,584C387,584,416,613,415,650C415,685,386,715,350,714C315,715,285,685,285,649C286,614,315,585,350,584Z" fill="currentColor"/><path d="M700,584C735,584,766,614,766,650C765,684,736,715,701,714C665,714,635,685,635,649C635,613,664,584,700,584Z" fill="currentColor"/></svg>