<svg xmlns="http://www.w3.org/2000/svg" viewBox="0 0 1100 1100"><path d="M501,750L599,750L599,700C599,667,628,652,656,669L697,694L748,608L704,583C676,567,677,534,705,518L748,493L698,407L655,432C625,449,598,433,599,401L600,350L501,350L501,400C501,432,473,449,445,433L402,408L352,494L397,519C425,534,424,565,395,582L352,607L402,693L445,668C473,652,501,668,501,699Z" fill="currentColor"/><path d="M551,491C584,491,611,518,611,551C611,583,584,611,551,611C518,611,491,583,491,551C491,518,518,491,551,491Z" fill="currentColor"/></svg>