<svg xmlns="http://www.w3.org/2000/svg" viewBox="0 0 1100 1100"><path d="M817,781C871,744,900,690,900,625L900,159L746,300L354,300L200,159L200,625C200,690,229,744,283,781L399,858C474,908,513,910,550,910C587,910,627,908,701,858Z" fill="currentColor"/><path d="M340,549C340,517,367,490,400,490C433,490,460,517,460,549C460,583,433,610,400,610C367,610,340,583,340,549Z" fill="currentColor"/><path d="M640,549C640,517,667,490,700,490C733,490,760,517,760,549C760,583,733,610,700,610C667,610,640,583,640,549Z" fill="currentColor"/></svg>