<svg xmlns="http://www.w3.org/2000/svg" viewBox="0 0 1100 1100"><path d="M950,642C950,589,940,532,900,441L900,240L700,240L800,200L300,200L400,240L200,240L200,441C160,532,150,589,150,642C150,840,335,925,550,925C765,925,950,840,950,642Z" fill="currentColor"/><path d="M365,574C365,543,392,515,425,515C457,515,485,543,485,574C485,607,457,635,425,635C392,635,365,607,365,574Z" fill="currentColor"/><path d="M615,574C615,543,643,515,675,515C708,515,735,543,735,574C735,607,708,635,675,635C643,635,615,607,615,574Z" fill="currentColor"/><path d="M400,240C400,189,353,142,300,142C245,142,200,189,200,240C200,295,245,342,300,342C353,342,400,295,400,240Z" fill="currentColor"/><path d="M900,240C900,189,855,142,800,142C747,142,700,189,700,240C700,295,747,342,800,342C855,342,900,295,900,240Z" fill="currentColor"/></svg>