<svg xmlns="http://www.w3.org/2000/svg" viewBox="0 0 1100 1100"><path d="M200,703L200.01,703C201.08,831.08,271,900,400,900L600,900L600,800L700,800L700,900L800,900L800,646.29C784.1,648.74,767.41,650,750,650C597,650,500,555,500,405C500,404.47,500,403.94,500,403.4C427.77,414.38,355.5,451.14,300,502.28L300,300C300,235,265,200,200,200L100,200L100,300L200,300L200,700Z" fill="currentColor"/><path d="M200,700C200,700.74,200,701.47,200.01,702.2C200,702.47,200,702.73,200,703Z" fill="currentColor"/><path d="M600,400L600,200L751,350L900,200L900,400C900,492,842,550,750,550C658,550,600,492,600,400Z" fill="currentColor"/></svg>