<svg xmlns="http://www.w3.org/2000/svg" viewBox="0 0 1100 1100"><path d="M554.2,888.8L552.8,417L711,417L657.1,604.6L664.1,604.6L716.6,424L766.3,604.6L773.3,604.6L720.1,410L375.7,410L321.8,604.6L328.8,604.6L379.2,425.4L431,604.6L438,604.6L384.1,417L545.8,417L547.2,888.8Z" fill="currentColor"/><path d="M298,631.2C296.6,699.1,329.5,742.5,381.3,742.5C431.7,742.5,463.9,699.1,462.5,631.2Z" fill="currentColor"/><path d="M299.4,900L802,900L802,893L299.4,893Z" fill="currentColor"/><path d="M455.5,638.2C454.1,699.1,426.1,735.5,381.3,735.5C335.1,735.5,306.4,699.1,305,638.2Z" fill="currentColor"/><path d="M633.3,631.2C631.9,699.1,663.4,742.5,713.8,742.5C766.3,742.5,799.2,699.1,797.8,631.2Z" fill="currentColor"/><path d="M790.8,638.2C789.4,699.1,760.7,735.5,713.8,735.5C669,735.5,641,699.1,640.3,638.2Z" fill="currentColor"/></svg>