<svg xmlns="http://www.w3.org/2000/svg" viewBox="0 0 1100 1100"><path d="M325.3,900C325.3,869.2,340.7,859.4,362.4,859.4C384.8,859.4,410.7,874.1,425.4,882.5C443.6,893,459.7,902.1,482.1,902.1C537.4,902.1,538.1,846.1,537.4,809.7C513.6,806.2,489.8,802,470.9,792.2L490.5,748.8C441.5,718.7,423.3,697,422.6,660.6C435.2,664.1,447.8,667.6,460.4,670.4C458.3,663.4,456.9,656.4,456.2,648C445.7,645.2,435.2,642.4,424,638.9C434.5,583.6,489.8,547.2,550,489.1C613.7,550,666.9,585,676.7,638.9C665.5,642.4,655,645.2,644.5,648C643.8,656.4,642.4,663.4,640.3,670.4C652.9,667.6,665.5,664.1,678.1,660.6C676.7,696.3,659.2,718.7,609.5,748.8L629.1,791.5C608.1,802,587.8,806.2,562.6,809.7C563.3,841.2,557.7,902.1,615.8,902.1C643.8,902.1,666.9,887.4,677.4,881.1C694.9,871.3,715.2,859.4,736.2,859.4C757.9,859.4,774.7,869.2,774.7,900L795.7,900C795.7,855.2,764.9,838.4,736.2,838.4C709.6,838.4,685.1,853.1,667.6,862.9C655.7,869.2,638.2,881.1,615.8,881.1C586.4,881.1,583.6,856.6,583.6,827.9C608.8,823,631.9,816,656.4,800.6L636.1,756.5C680.2,727.1,699.1,697.7,699.1,657.1C699.1,582.2,636.1,541.6,568.9,477.9C580.8,468.1,588.5,456.2,588.5,441.5C588.5,419.1,570.3,403,550,403C530.4,403,511.5,419.1,511.5,441.5C511.5,456.2,519.9,468.8,531.1,477.9C467.4,538.8,401.6,582.2,401.6,657.1C401.6,698.4,420.5,727.1,463.9,756.5L443.6,799.9C463.9,815.3,491.2,823,516.4,827.9C515.7,858,510.8,881.1,482.1,881.1C465.3,881.1,453.4,874.8,435.2,864.3C420.5,855.9,390.4,838.4,362.4,838.4C333.7,838.4,304.3,856.6,304.3,900Z" fill="currentColor"/><path d="M529,678.8C519.9,690,509.4,701.9,491.2,726.4L508,739C527.6,713.1,538.8,701.2,549.3,686.5C560.5,701.2,572.4,713.1,591.3,738.3L608.1,725.7C590.6,702.6,579.4,690.7,570.3,678.8L571,678.8C608.1,678.8,645.2,660.6,645.2,627.7C645.2,603.9,625.6,589.9,608.8,589.9C580.8,589.9,563.3,620.7,549.3,646.6C533.9,618.6,521.3,589.9,492.6,589.9C473,589.9,455.5,605.3,455.5,627.7C455.5,660.6,491.9,678.1,529,678.8Z" fill="currentColor"/><path d="M492.6,610.9C508,610.9,515.7,631.2,531.1,657.8L530.4,657.8C499.6,657.8,476.5,646.6,476.5,627.7C476.5,616.5,482.8,610.9,492.6,610.9Z" fill="currentColor"/><path d="M550,424C560.5,424,567.5,430.3,567.5,441.5C567.5,451.3,561.9,458.3,550,466.7C538.8,459,532.5,451.3,532.5,441.5C532.5,430.3,540.2,424,550,424Z" fill="currentColor"/><path d="M566.8,657.8C580.8,634,592.7,610.9,608.8,610.9C617.2,610.9,624.2,615.8,624.2,627.7C624.2,646.6,601.1,657.8,571,657.8Z" fill="currentColor"/></svg>