<svg xmlns="http://www.w3.org/2000/svg" viewBox="0 0 1100 1100"><path d="M608.8,662.7L560.5,662.7L560.5,614.4L539.5,614.4L539.5,683.7L608.8,683.7Z" fill="currentColor"/><path d="M325.3,900C325.3,869.2,340.7,859.4,363.1,859.4C384.8,859.4,407.2,872.7,425.4,882.5C436.6,888.8,454.8,902.1,482.1,902.1C536.7,902.1,538.8,851,538.1,797.1L411.4,797.1L411.4,548.6L690,548.6L690,797.1L561.9,797.1C561.9,850.3,559.1,902.1,617.9,902.1C644.5,902.1,659.9,890.2,677.4,881.1C706.1,866.4,716.6,859.4,734.1,859.4C758.6,859.4,774.7,869.2,774.7,900L795.7,900C795.7,855.2,765.6,838.4,734.1,838.4C711,838.4,694.9,848.2,667.6,862.9C648.7,872,637.5,881.1,617.9,881.1C585.7,881.1,582.9,860.1,582.9,818.1L711,818.1L711,527.6L679.5,527.6L679.5,450.6L658.5,450.6L658.5,471.6L634.7,471.6L634.7,421.9L556.3,318.3L544.4,318.3L464.6,421.9L464.6,471.6L442.2,471.6L442.2,450.6L421.2,450.6L421.2,527.6L390.4,527.6L390.4,818.1L517.1,818.1C516.4,859.4,511.5,881.1,482.1,881.1C461.8,881.1,447.8,870.6,435.2,864.3C417,854.5,390.4,838.4,363.1,838.4C333.7,838.4,304.3,856.6,304.3,900Z" fill="currentColor"/><path d="M442.2,527.6L442.2,492.6L658.5,492.6L658.5,527.6Z" fill="currentColor"/><path d="M550,775.4C606.7,775.4,652.2,729.2,652.2,673.2C652.2,616.5,606.7,570.3,550,570.3C493.3,570.3,447.8,616.5,447.8,673.2C447.8,729.2,493.3,775.4,550,775.4Z" fill="currentColor"/><path d="M550,591.3C596.9,591.3,631.2,626.3,631.2,673.2C631.2,719.4,596.9,754.4,550,754.4C503.1,754.4,468.8,719.4,468.8,673.2C468.8,626.3,503.1,591.3,550,591.3Z" fill="currentColor"/><path d="M485.6,471.6L485.6,435.9L613.7,435.9L613.7,471.6Z" fill="currentColor"/><path d="M496.1,414.9L550,344.9L603.2,414.9Z" fill="currentColor"/></svg>