<svg xmlns="http://www.w3.org/2000/svg" viewBox="0 0 1100 1100"><path d="M397.4,656.4C419.1,663.4,440.1,669,461.8,673.2C459,666.2,456.9,658.5,456.2,650.8C439.4,646.6,421.9,642.4,404.4,636.8Z" fill="currentColor"/><path d="M529,678.8C519.9,690,509.4,701.9,491.2,726.4L508,739C527.6,713.1,538.8,701.2,549.3,686.5C560.5,701.2,572.4,713.1,591.3,738.3L608.1,725.7C590.6,702.6,579.4,690.7,570.3,678.8L571,678.8C608.1,678.8,645.2,660.6,645.2,627.7C645.2,603.9,625.6,589.9,608.8,589.9C580.8,589.9,563.3,620.7,549.3,646.6C533.9,618.6,521.3,589.9,492.6,589.9C473,589.9,455.5,605.3,455.5,627.7C455.5,660.6,491.9,678.1,529,678.8Z" fill="currentColor"/><path d="M492.6,610.9C508,610.9,515.7,631.2,531.1,657.8L530.4,657.8C499.6,657.8,476.5,646.6,476.5,627.7C476.5,616.5,482.8,610.9,492.6,610.9Z" fill="currentColor"/><path d="M566.8,657.8C580.8,634,592.7,610.9,608.8,610.9C617.2,610.9,624.2,615.8,624.2,627.7C624.2,646.6,601.1,657.8,571,657.8Z" fill="currentColor"/><path d="M703.3,656.4L696.3,636.8C678.8,642.4,661.3,646.6,644.5,650.8C643.8,658.5,641.7,666.2,638.9,673.2C660.6,669,681.6,663.4,703.3,656.4Z" fill="currentColor"/></svg>