<svg xmlns="http://www.w3.org/2000/svg" viewBox="0 0 1100 1100"><path d="M407.2,841.2C407.2,818.1,421.9,802,445.7,802C468.8,802,484.2,818.1,484.2,841.2C484.2,864.3,468.8,879,445.7,879C421.9,879,407.2,864.3,407.2,841.2Z" fill="currentColor"/><path d="M556.3,755.8C735.5,755.8,778.9,714.5,776.8,551.4L535.3,551.4L535.3,410C461.1,406.5,335.8,444.3,335.8,581.5C335.8,720.8,382,755.8,556.3,755.8Z" fill="currentColor"/><path d="M356.8,572.4L755.8,572.4C753.7,706.1,717.3,734.8,556.3,734.8C390.4,734.8,356.8,708.9,356.8,581.5Z" fill="currentColor"/><path d="M358.9,551.4C373.6,464.6,452.7,434.5,514.3,431L514.3,551.4Z" fill="currentColor"/><path d="M445.7,900C478.6,900,505.2,874.1,505.2,841.2C505.2,808.3,478.6,781,445.7,781C412.1,781,386.2,808.3,386.2,841.2C386.2,874.1,412.1,900,445.7,900Z" fill="currentColor"/><path d="M673.9,900C706.8,900,732.7,874.1,732.7,841.2C732.7,808.3,706.8,781,673.9,781C640.3,781,614.4,808.3,614.4,841.2C614.4,874.1,640.3,900,673.9,900Z" fill="currentColor"/><path d="M673.9,802C697,802,711.7,818.1,711.7,841.2C711.7,864.3,697,879,673.9,879C650.1,879,635.4,864.3,635.4,841.2C635.4,818.1,650.1,802,673.9,802Z" fill="currentColor"/></svg>