<svg xmlns="http://www.w3.org/2000/svg" viewBox="0 0 1100 1100"><path d="M800,900C865,900,900,865,900,800L900,300C900,235,865,200,800,200L300,200C235,200,200,235,200,300L200,800C200,865,235,900,300,900Z" fill="currentColor"/><path d="M500,650L500,550L550,550C623,550,656,526,656,474C656,425,619,390,550,390C482,390,444,429,444,500L344,500C344,382,433,290,550,290C666,290,756,376,756,474C756,582,663,650,550,650Z" fill="currentColor"/><path d="M490,750C490,714,523,690,550,690C578,690,610,714,610,750C610,787,578,810,550,810C523,810,490,787,490,750Z" fill="currentColor"/></svg>