<svg xmlns="http://www.w3.org/2000/svg" viewBox="0 0 1100 1100"><path d="M400,800L400,300L543,300C640,300,711,368,711,452C711,489,694,518,669,537C705,563,729,602,729,648C729,733,653,800,562,800Z" fill="currentColor"/><path d="M500,700L562,700C608,700,629,681,629,648C629,617,609,600,562,600L500,600Z" fill="currentColor"/><path d="M800,900C865,900,900,865,900,800L900,300C900,235,865,200,800,200L300,200C235,200,200,235,200,300L200,800C200,865,235,900,300,900Z" fill="currentColor"/><path d="M500,500L543,500C592,500,611,485,611,452C611,418,592,400,543,400L500,400Z" fill="currentColor"/></svg>