<svg xmlns="http://www.w3.org/2000/svg" viewBox="0 0 1100 1100"><path d="M285,550C285,407,405,285,551,285C697,285,815,407,815,550C815,693,697,815,551,815C405,815,285,693,285,550Z" fill="currentColor"/><path d="M800,900C865,900,900,865,900,800L900,300C900,235,865,200,800,200L300,200C235,200,200,235,200,300L200,800C200,865,235,900,300,900Z" fill="currentColor"/><path d="M715,550C715,454,648,385,551,385C454,385,385,455,385,550C385,645,454,715,551,715C648,715,715,646,715,550Z" fill="currentColor"/></svg>