<svg xmlns="http://www.w3.org/2000/svg" viewBox="0 0 1100 1100"><path d="M381,730L349,692L425,628L457,666C496,713,526,720,556,720C608,720,631,701,631,668C631,642,608,628,530,595C439,556,369,516,369,430C369,348,441,280,543,280C606,280,670,307,720,370L751,409L674,472L642,434C605,390,577,380,543,380C491,380,469,397,469,430C469,459,498,472,570,503C658,541,731,581,731,668C731,750,657,820,556,820C500,820,438,798,381,730Z" fill="currentColor"/><path d="M800,900C865,900,900,865,900,800L900,300C900,235,865,200,800,200L300,200C235,200,200,235,200,300L200,800C200,865,235,900,300,900Z" fill="currentColor"/></svg>