<svg xmlns="http://www.w3.org/2000/svg" viewBox="0 0 1100 1100"><path d="M400,800L562,800C653,800,729,733,729,648C729,602,705,563,669,537C694,518,711,489,711,452C711,368,640,300,543,300L400,300Z" fill="currentColor"/><path d="M500,700L500,600L562,600C609,600,629,617,629,648C629,681,608,700,562,700Z" fill="currentColor"/><path d="M500,500L500,400L543,400C592,400,611,418,611,452C611,485,592,500,543,500Z" fill="currentColor"/><path d="M300,900C235,900,200,865,200,800L200,300C200,235,235,200,300,200L800,200C865,200,900,235,900,300L900,800C900,865,865,900,800,900Z" fill="currentColor"/><path d="M100,800C100,920,180,1000,300,1000L800,1000C920,1000,1000,920,1000,800L1000,300C1000,180,920,100,800,100L300,100C180,100,100,180,100,300Z" fill="currentColor"/></svg>