<svg xmlns="http://www.w3.org/2000/svg" viewBox="0 0 1100 1100"><path d="M815,550C815,407,697,285,551,285C405,285,285,407,285,550C285,693,405,815,551,815C697,815,815,693,815,550Z" fill="currentColor"/><path d="M551,385C648,385,715,454,715,550C715,646,648,715,551,715C454,715,385,645,385,550C385,455,454,385,551,385Z" fill="currentColor"/><path d="M300,900C235,900,200,865,200,800L200,300C200,235,235,200,300,200L800,200C865,200,900,235,900,300L900,800C900,865,865,900,800,900Z" fill="currentColor"/><path d="M100,800C100,920,180,1000,300,1000L800,1000C920,1000,1000,920,1000,800L1000,300C1000,180,920,100,800,100L300,100C180,100,100,180,100,300Z" fill="currentColor"/></svg>