<svg xmlns="http://www.w3.org/2000/svg" viewBox="0 0 1100 1100"><path d="M731,668C731,581,658,541,570,503C498,472,469,459,469,430C469,397,491,380,543,380C577,380,605,390,642,434L674,472L751,409L720,370C670,307,606,280,543,280C441,280,369,348,369,430C369,516,439,556,530,595C608,628,631,642,631,668C631,701,608,720,556,720C526,720,496,713,457,666L425,628L349,692L381,730C438,798,500,820,556,820C657,820,731,750,731,668Z" fill="currentColor"/><path d="M300,900C235,900,200,865,200,800L200,300C200,235,235,200,300,200L800,200C865,200,900,235,900,300L900,800C900,865,865,900,800,900Z" fill="currentColor"/><path d="M100,800C100,920,180,1000,300,1000L800,1000C920,1000,1000,920,1000,800L1000,300C1000,180,920,100,800,100L300,100C180,100,100,180,100,300Z" fill="currentColor"/></svg>