<svg xmlns="http://www.w3.org/2000/svg" viewBox="0 0 1100 1100"><path d="M350,800L488,800C683,800,770,686,770,554C770,419,684,300,488,300L350,300Z" fill="currentColor"/><path d="M450,700L450,400L488,400C627,400,670,458,670,554C670,645,627,700,488,700Z" fill="currentColor"/><path d="M300,900C235,900,200,865,200,800L200,300C200,235,235,200,300,200L800,200C865,200,900,235,900,300L900,800C900,865,865,900,800,900Z" fill="currentColor"/><path d="M100,800C100,920,180,1000,300,1000L800,1000C920,1000,1000,920,1000,800L1000,300C1000,180,920,100,800,100L300,100C180,100,100,180,100,300Z" fill="currentColor"/></svg>