<svg xmlns="http://www.w3.org/2000/svg" viewBox="0 0 1100 1100"><path d="M400,800L500,800L500,582L650,800L774,800L631,594C676,575,720,521,720,452C720,359,648,300,553,300L400,300Z" fill="currentColor"/><path d="M500,500L500,400L553,400C603,400,620,413,620,452C620,485,602,500,553,500Z" fill="currentColor"/><path d="M300,900C235,900,200,865,200,800L200,300C200,235,235,200,300,200L800,200C865,200,900,235,900,300L900,800C900,865,865,900,800,900Z" fill="currentColor"/><path d="M100,800C100,920,180,1000,300,1000L800,1000C920,1000,1000,920,1000,800L1000,300C1000,180,920,100,800,100L300,100C180,100,100,180,100,300Z" fill="currentColor"/></svg>