<svg xmlns="http://www.w3.org/2000/svg" viewBox="0 0 1100 1100"><path d="M278,800L386,800L436,685L665,685L714,800L822,800L609,300L492,300Z" fill="currentColor"/><path d="M479,585L550,418L622,585Z" fill="currentColor"/><path d="M300,900C235,900,200,865,200,800L200,300C200,235,235,200,300,200L800,200C865,200,900,235,900,300L900,800C900,865,865,900,800,900Z" fill="currentColor"/><path d="M100,800C100,920,180,1000,300,1000L800,1000C920,1000,1000,920,1000,800L1000,300C1000,180,920,100,800,100L300,100C180,100,100,180,100,300Z" fill="currentColor"/></svg>