<svg xmlns="http://www.w3.org/2000/svg" viewBox="0 0 1100 1100"><path d="M788,679L710,617C655,687,611,715,550,715C452,715,385,646,385,550C385,454,452,385,550,385C619,385,662,412,707,480L791,424C731,335,651,285,550,285C403,285,285,407,285,550C285,693,403,815,550,815C643,815,721,766,788,679Z" fill="currentColor"/><path d="M300,900C235,900,200,865,200,800L200,300C200,235,235,200,300,200L800,200C865,200,900,235,900,300L900,800C900,865,865,900,800,900Z" fill="currentColor"/><path d="M100,800C100,920,180,1000,300,1000L800,1000C920,1000,1000,920,1000,800L1000,300C1000,180,920,100,800,100L300,100C180,100,100,180,100,300Z" fill="currentColor"/></svg>