<svg xmlns="http://www.w3.org/2000/svg" viewBox="0 0 1100 1100"><path d="M810,500L500,500L500,600L709,600C691,677,632,715,549,715C452,715,384,646,384,550C384,454,452,385,549,385C619,385,661,411,695,464L779,410C731,335,651,285,549,285C403,285,284,407,284,550C284,693,403,815,549,815C706,815,838,692,810,500Z" fill="currentColor"/><path d="M300,900C235,900,200,865,200,800L200,300C200,235,235,200,300,200L800,200C865,200,900,235,900,300L900,800C900,865,865,900,800,900Z" fill="currentColor"/><path d="M100,800C100,920,180,1000,300,1000L800,1000C920,1000,1000,920,1000,800L1000,300C1000,180,920,100,800,100L300,100C180,100,100,180,100,300Z" fill="currentColor"/></svg>