<svg xmlns="http://www.w3.org/2000/svg" viewBox="0 0 1100 1100"><path d="M935,550C935,338,762,165,550,165C338,165,165,338,165,550C165,762,338,935,550,935C762,935,935,762,935,550Z" fill="currentColor"/><path d="M500,650L500,550L550,550C623,550,656,526,656,474C656,425,619,390,550,390C482,390,444,429,444,500L344,500C344,382,433,290,550,290C666,290,756,376,756,474C756,582,663,650,550,650Z" fill="currentColor"/><path d="M490,750C490,714,523,690,550,690C578,690,610,714,610,750C610,787,578,810,550,810C523,810,490,787,490,750Z" fill="currentColor"/></svg>