<svg xmlns="http://www.w3.org/2000/svg" viewBox="0 0 1100 1100"><path d="M810,500L500,500L500,600L709,600C691,677,632,715,549,715C452,715,384,646,384,550C384,454,452,385,549,385C619,385,661,411,695,464L779,410C731,335,651,285,549,285C403,285,284,407,284,550C284,693,403,815,549,815C706,815,838,692,810,500Z" fill="currentColor"/><path d="M190,550C190,345,346,190,550,190C755,190,910,345,910,550C910,754,755,910,550,910C346,910,190,754,190,550Z" fill="currentColor"/><path d="M550,1010C804,1010,1010,802,1010,550C1010,296,804,90,550,90C298,90,90,296,90,550C90,803,297,1010,550,1010Z" fill="currentColor"/></svg>