<svg xmlns="http://www.w3.org/2000/svg" viewBox="0 0 1100 1100"><path d="M788,679L710,617C655,687,611,715,550,715C452,715,385,646,385,550C385,454,452,385,550,385C619,385,662,412,707,480L791,424C731,335,651,285,550,285C403,285,285,407,285,550C285,693,403,815,550,815C643,815,721,766,788,679Z" fill="currentColor"/><path d="M190,550C190,345,346,190,550,190C755,190,910,345,910,550C910,754,755,910,550,910C346,910,190,754,190,550Z" fill="currentColor"/><path d="M550,1010C804,1010,1010,802,1010,550C1010,296,804,90,550,90C298,90,90,296,90,550C90,803,297,1010,550,1010Z" fill="currentColor"/></svg>