<svg xmlns="http://www.w3.org/2000/svg" viewBox="0 0 1100 1100"><path d="M475,700L578,700C625,700,646,681,646,648C646,617,626,600,578,600L475,600Z" fill="currentColor"/><path d="M375,800L375,300L547,300C644,300,714,368,714,452C714,485,701,514,684,535C721,561,746,602,746,648C746,733,670,800,578,800Z" fill="currentColor"/><path d="M475,500L547,500C596,500,614,485,614,452C614,418,596,400,547,400L475,400Z" fill="currentColor"/><path d="M935,550C935,338,762,165,550,165C338,165,165,338,165,550C165,762,338,935,550,935C762,935,935,762,935,550Z" fill="currentColor"/></svg>