<svg xmlns="http://www.w3.org/2000/svg" viewBox="0 0 1100 1100"><path d="M400,800L500,800L500,582L650,800L774,800L631,594C676,575,720,521,720,452C720,359,648,300,553,300L400,300Z" fill="currentColor"/><path d="M500,500L500,400L553,400C603,400,620,413,620,452C620,485,602,500,553,500Z" fill="currentColor"/><path d="M190,550C190,345,346,190,550,190C755,190,910,345,910,550C910,754,755,910,550,910C346,910,190,754,190,550Z" fill="currentColor"/><path d="M550,1010C804,1010,1010,802,1010,550C1010,296,804,90,550,90C298,90,90,296,90,550C90,803,297,1010,550,1010Z" fill="currentColor"/></svg>