<svg xmlns="http://www.w3.org/2000/svg" viewBox="0 0 11 11"><path d="M4.13,5.5C4.13,4.76,4.75,4.12,5.5,4.12C6.23,4.12,6.88,4.77,6.88,5.5C6.88,6.23,6.24,6.87,5.5,6.87C4.75,6.87,4.13,6.24,4.13,5.5ZM7.88,5.5C7.88,4.21,6.79,3.12,5.5,3.12C4.19,3.12,3.13,4.22,3.13,5.5C3.13,6.78,4.19,7.87,5.5,7.87C6.78,7.87,7.88,6.79,7.88,5.5ZM6.03,5.52C6.03,5.22,5.78,4.97,5.48,4.97C5.18,4.97,4.93,5.22,4.93,5.52C4.93,5.81,5.18,6.07,5.48,6.07C5.78,6.07,6.03,5.81,6.03,5.52ZM2.65,5.5C2.65,3.93,3.93,2.65,5.5,2.65C7.07,2.65,8.35,3.93,8.35,5.5C8.35,7.07,7.07,8.35,5.5,8.35C3.94,8.35,2.65,7.06,2.65,5.5ZM9.35,5.5C9.35,3.37,7.63,1.65,5.5,1.65C3.39,1.65,1.65,3.37,1.65,5.5C1.65,7.62,3.38,9.35,5.5,9.35C7.63,9.35,9.35,7.61,9.35,5.5Z" fill="#000000"/></svg>