<svg xmlns="http://www.w3.org/2000/svg" viewBox="0 0 1100 1100"><path d="M400,800L500,800L500,600L560,600C669,600,725,542,725,450C725,358,669,300,560,300L400,300Z" fill="currentColor"/><path d="M500,500L500,400L560,400C607,400,625,419,625,450C625,481,607,500,560,500Z" fill="currentColor"/><path d="M190,550C190,345,346,190,550,190C755,190,910,345,910,550C910,754,755,910,550,910C346,910,190,754,190,550Z" fill="currentColor"/><path d="M550,1010C804,1010,1010,802,1010,550C1010,296,804,90,550,90C298,90,90,296,90,550C90,803,297,1010,550,1010Z" fill="currentColor"/></svg>