<svg xmlns="http://www.w3.org/2000/svg" viewBox="0 0 11 11"><path d="M9.35,5.5C9.35,3.38,7.62,1.65,5.5,1.65C3.38,1.65,1.65,3.38,1.65,5.5C1.65,7.62,3.38,9.35,5.5,9.35C7.62,9.35,9.35,7.62,9.35,5.5ZM5,6.5L5,5.5L5.5,5.5C6.23,5.5,6.56,5.26,6.56,4.74C6.56,4.25,6.19,3.9,5.5,3.9C4.82,3.9,4.44,4.29,4.44,5L3.44,5C3.44,3.82,4.33,2.9,5.5,2.9C6.66,2.9,7.56,3.76,7.56,4.74C7.56,5.82,6.63,6.5,5.5,6.5ZM4.9,7.5C4.9,7.14,5.23,6.9,5.5,6.9C5.78,6.9,6.1,7.14,6.1,7.5C6.1,7.87,5.78,8.1,5.5,8.1C5.23,8.1,4.9,7.87,4.9,7.5Z" fill="#000000"/></svg>