<svg xmlns="http://www.w3.org/2000/svg" viewBox="0 0 11 11"><path d="M3.81,7.3L3.49,6.92L4.25,6.28L4.57,6.66C4.96,7.13,5.26,7.2,5.56,7.2C6.08,7.2,6.31,7.01,6.31,6.68C6.31,6.42,6.08,6.28,5.3,5.95C4.39,5.56,3.69,5.16,3.69,4.3C3.69,3.48,4.41,2.8,5.43,2.8C6.06,2.8,6.7,3.07,7.2,3.7L7.51,4.09L6.74,4.72L6.42,4.34C6.05,3.9,5.77,3.8,5.43,3.8C4.91,3.8,4.69,3.97,4.69,4.3C4.69,4.59,4.98,4.72,5.7,5.03C6.58,5.41,7.31,5.81,7.31,6.68C7.31,7.5,6.57,8.2,5.56,8.2C5,8.2,4.38,7.98,3.81,7.3ZM9.35,5.5C9.35,3.38,7.62,1.65,5.5,1.65C3.38,1.65,1.65,3.38,1.65,5.5C1.65,7.62,3.38,9.35,5.5,9.35C7.62,9.35,9.35,7.62,9.35,5.5Z" fill="#000000"/></svg>