<svg xmlns="http://www.w3.org/2000/svg" viewBox="0 0 1100 1100"><path d="M815,550C815,407,697,285,551,285C405,285,285,407,285,550C285,693,405,815,551,815C697,815,815,693,815,550Z" fill="currentColor"/><path d="M551,385C648,385,715,454,715,550C715,646,648,715,551,715C454,715,385,645,385,550C385,455,454,385,551,385Z" fill="currentColor"/><path d="M190,550C190,345,346,190,550,190C755,190,910,345,910,550C910,754,755,910,550,910C346,910,190,754,190,550Z" fill="currentColor"/><path d="M550,1010C804,1010,1010,802,1010,550C1010,296,804,90,550,90C298,90,90,296,90,550C90,803,297,1010,550,1010Z" fill="currentColor"/></svg>