<svg xmlns="http://www.w3.org/2000/svg" viewBox="0 0 11 11"><path d="M5.51,8.15C4.05,8.15,2.85,6.93,2.85,5.5C2.85,4.07,4.05,2.85,5.51,2.85C6.97,2.85,8.15,4.07,8.15,5.5C8.15,6.96,6.96,8.15,5.51,8.15ZM5.99,7.09L4.92,5.92L5.63,5.21L6.84,6.52C7.04,6.24,7.15,5.89,7.15,5.5C7.15,4.54,6.48,3.85,5.51,3.85C4.54,3.85,3.85,4.55,3.85,5.5C3.85,6.45,4.54,7.15,5.51,7.15C5.68,7.15,5.84,7.13,5.99,7.09ZM9.35,5.5C9.35,3.38,7.62,1.65,5.5,1.65C3.38,1.65,1.65,3.38,1.65,5.5C1.65,7.62,3.38,9.35,5.5,9.35C7.62,9.35,9.35,7.62,9.35,5.5Z" fill="#000000"/></svg>