<svg xmlns="http://www.w3.org/2000/svg" viewBox="0 0 11 11"><path d="M6.05,5.5C6.05,5.2,5.8,4.95,5.5,4.95C5.2,4.95,4.95,5.2,4.95,5.5C4.95,5.8,5.2,6.05,5.5,6.05C5.8,6.05,6.05,5.8,6.05,5.5ZM4.32,5.5C4.32,5.2,4.07,4.94,3.76,4.94C3.46,4.94,3.22,5.2,3.22,5.5C3.22,5.79,3.46,6.04,3.76,6.04C4.07,6.04,4.32,5.79,4.32,5.5ZM7.78,5.5C7.78,5.2,7.53,4.94,7.24,4.94C6.93,4.94,6.68,5.2,6.68,5.5C6.68,5.79,6.93,6.04,7.24,6.04C7.53,6.04,7.78,5.79,7.78,5.5ZM2.65,5.5C2.65,3.93,3.93,2.65,5.5,2.65C7.07,2.65,8.35,3.93,8.35,5.5C8.35,7.07,7.07,8.35,5.5,8.35C3.94,8.35,2.65,7.06,2.65,5.5ZM9.35,5.5C9.35,3.37,7.63,1.65,5.5,1.65C3.39,1.65,1.65,3.37,1.65,5.5C1.65,7.62,3.38,9.35,5.5,9.35C7.63,9.35,9.35,7.61,9.35,5.5Z" fill="#000000"/></svg>