<svg xmlns="http://www.w3.org/2000/svg" viewBox="0 0 1100 1100"><path d="M605,550C605,520.33,579.67,495,550,495C520.33,495,495,520.33,495,550C495,579.67,520.33,605,550,605C579.67,605,605,579.67,605,550Z" fill="currentColor"/><path d="M432,550C432,520.39,406.73,494,376,494C346.2,494,322,520.46,322,550C322,578.61,346.26,604,376,604C406.67,604,432,578.67,432,550Z" fill="currentColor"/><path d="M778,550C778,520.39,752.73,494,724,494C693.27,494,668,520.39,668,550C668,578.67,693.33,604,724,604C752.67,604,778,578.67,778,550Z" fill="currentColor"/><path d="M265,550C265,392.61,393.41,265,550,265C707.49,265,835,392.51,835,550C835,706.59,707.39,835,550,835C393.51,835,265,706.49,265,550Z" fill="currentColor"/><path d="M935,550C935,337.49,762.51,165,550,165C338.59,165,165,337.39,165,550C165,761.51,338.49,935,550,935C762.61,935,935,761.41,935,550Z" fill="currentColor"/></svg>