<svg xmlns="http://www.w3.org/2000/svg" viewBox="0 0 1100 1100"><path d="M314.64,505.36L550,740.72L785.36,505.36L714.65,434.65L550.01,599.29L385.37,434.65Z" fill="currentColor"/><path d="M550,835C392.51,835,265,707.49,265,550C265,393.41,392.61,265,550,265C706.49,265,835,393.51,835,550C835,707.39,706.59,835,550,835Z" fill="currentColor"/><path d="M550,165C337.39,165,165,338.59,165,550C165,762.51,337.49,935,550,935C761.41,935,935,762.61,935,550C935,338.49,761.51,165,550,165Z" fill="currentColor"/></svg>