<svg xmlns="http://www.w3.org/2000/svg" viewBox="0 0 1100 1100"><path d="M413,550C413,476,475.03,412,550,412C623.49,412,688,476.51,688,550C688,623.32,623.66,687,550,687C474.86,687,413,623.83,413,550Z" fill="currentColor"/><path d="M788,550C788,421.49,678.51,312,550,312C418.97,312,313,422,313,550C313,678.17,419.14,787,550,787C678.34,787,788,678.68,788,550Z" fill="currentColor"/><path d="M603,552C603,522,578,497,548,497C518,497,493,522,493,552C493,581,518,607,548,607C578,607,603,581,603,552Z" fill="currentColor"/><path d="M265,550C265,392.61,393.41,265,550,265C707.49,265,835,392.51,835,550C835,706.59,707.39,835,550,835C393.51,835,265,706.49,265,550Z" fill="currentColor"/><path d="M935,550C935,337.49,762.51,165,550,165C338.59,165,165,337.39,165,550C165,761.51,338.49,935,550,935C762.61,935,935,761.41,935,550Z" fill="currentColor"/></svg>