<svg xmlns="http://www.w3.org/2000/svg" viewBox="0 0 1100 1100"><path d="M750,573L750,300L650,300L650,573C650,678,610,710,547,710C487,710,450,678,450,573L450,300L350,300L350,573C350,739,426,810,547,810C672,810,750,739,750,573Z" fill="currentColor"/><path d="M190,550C190,345,346,190,550,190C755,190,910,345,910,550C910,754,755,910,550,910C346,910,190,754,190,550Z" fill="currentColor"/><path d="M550,1010C804,1010,1010,802,1010,550C1010,296,804,90,550,90C298,90,90,296,90,550C90,803,297,1010,550,1010Z" fill="currentColor"/></svg>