<svg xmlns="http://www.w3.org/2000/svg" viewBox="0 0 1100 1100"><path d="M551,815C405,815,285,693,285,550C285,407,405,285,551,285C697,285,815,407,815,550C815,696,696,815,551,815Z" fill="currentColor"/><path d="M599,709L492,592L563,521L684,652C704,624,715,589,715,550C715,454,648,385,551,385C454,385,385,455,385,550C385,645,454,715,551,715C568,715,584,713,599,709Z" fill="currentColor"/><path d="M935,550C935,338,762,165,550,165C338,165,165,338,165,550C165,762,338,935,550,935C762,935,935,762,935,550Z" fill="currentColor"/></svg>