<svg xmlns="http://www.w3.org/2000/svg" viewBox="0 0 1100 1100"><path d="M731,668C731,581,658,541,570,503C498,472,469,459,469,430C469,397,491,380,543,380C577,380,605,390,642,434L674,472L751,409L720,370C670,307,606,280,543,280C441,280,369,348,369,430C369,516,439,556,530,595C608,628,631,642,631,668C631,701,608,720,556,720C526,720,496,713,457,666L425,628L349,692L381,730C438,798,500,820,556,820C657,820,731,750,731,668Z" fill="currentColor"/><path d="M190,550C190,345,346,190,550,190C755,190,910,345,910,550C910,754,755,910,550,910C346,910,190,754,190,550Z" fill="currentColor"/><path d="M550,1010C804,1010,1010,802,1010,550C1010,296,804,90,550,90C298,90,90,296,90,550C90,803,297,1010,550,1010Z" fill="currentColor"/></svg>