<svg xmlns="http://www.w3.org/2000/svg" viewBox="0 0 11 11"><path d="M3.11,8.49C3.11,8.16,2.85,7.9,2.51,7.9C2.17,7.9,1.91,8.16,1.91,8.49C1.91,8.83,2.17,9.1,2.51,9.1C2.85,9.1,3.11,8.83,3.11,8.49Z" fill="#000000"/><path d="M6.1,8.49C6.1,8.16,5.84,7.9,5.5,7.9C5.16,7.9,4.9,8.16,4.9,8.49C4.9,8.83,5.16,9.1,5.5,9.1C5.84,9.1,6.1,8.83,6.1,8.49Z" fill="#000000"/><path d="M9.09,8.49C9.09,8.16,8.83,7.9,8.49,7.9C8.15,7.9,7.89,8.16,7.89,8.49C7.89,8.83,8.15,9.1,8.49,9.1C8.83,9.1,9.09,8.83,9.09,8.49Z" fill="#000000"/><path d="M1,5L3.5,5L3.5,3.16C4.69,2.93,6.31,2.93,7.5,3.16L7.5,5L10,5L10,4.36C10,2.11,7.5,1.95,5.5,1.95C3.51,1.95,1,2.11,1,4.36Z" fill="#000000"/></svg>