<svg xmlns="http://www.w3.org/2000/svg" viewBox="0 0 11 11"><path d="M2.61,6.77L3.32,6.32C3.55,6.66,3.71,6.83,3.95,6.83C4.17,6.83,4.38,6.68,4.38,6.41C4.38,6.12,4.2,5.96,3.87,5.96L3.34,5.96L3.34,5.12L3.87,5.12C4.2,5.12,4.38,4.92,4.38,4.67C4.38,4.4,4.17,4.25,3.95,4.25C3.69,4.25,3.55,4.42,3.32,4.76L2.61,4.31C2.88,3.71,3.33,3.35,3.95,3.35C4.87,3.35,5.28,3.97,5.28,4.61C5.28,5.03,5.11,5.33,4.86,5.54C5.11,5.75,5.28,6.05,5.28,6.47C5.28,7.11,4.87,7.73,3.95,7.73C3.33,7.73,2.88,7.37,2.61,6.77ZM5.59,5.93L5.59,5.15C5.59,4.03,6.03,3.35,6.95,3.35C7.86,3.35,8.29,4.03,8.29,5.15L8.29,5.93C8.29,7.05,7.86,7.73,6.95,7.73C6.03,7.73,5.59,7.05,5.59,5.93ZM7.29,6.13L7.29,4.95C7.29,4.51,7.18,4.35,6.95,4.35C6.71,4.35,6.59,4.51,6.59,4.96L6.59,6.12C6.59,6.57,6.71,6.73,6.95,6.73C7.18,6.73,7.29,6.57,7.29,6.13ZM8,9C8.65,9,9,8.65,9,8L9,3C9,2.35,8.65,2,8,2L3,2C2.35,2,2,2.35,2,3L2,8C2,8.65,2.35,9,3,9ZM3.5,2L4.5,2L4.5,1L3.5,1ZM6.5,2L7.5,2L7.5,1L6.5,1Z" fill="#000000"/></svg>