<svg xmlns="http://www.w3.org/2000/svg" viewBox="0 0 11 11"><path d="M5,8L5,7.64C5.01,6.91,4.51,6.63,3.9,7L3.59,7.18L3.08,6.32L3.39,6.14C3.98,5.78,3.98,5.2,3.4,4.86L3.08,4.68L3.59,3.82L3.89,3.99C4.5,4.34,5,4.05,5,3.34L5,3L6,3L6,3.36C5.99,4.07,6.49,4.36,7.11,3.99L7.41,3.82L7.92,4.68L7.6,4.86C7.01,5.22,7.01,5.79,7.61,6.14L7.92,6.32L7.41,7.18L7.11,7.01C6.51,6.66,6.01,6.94,6,7.63L6,7.99ZM6.29,5.5C6.29,5.06,5.93,4.69,5.48,4.69C5.04,4.69,4.69,5.06,4.69,5.5C4.69,5.91,5.04,6.29,5.48,6.29C5.93,6.29,6.29,5.91,6.29,5.5ZM8,9C8.65,9,9,8.65,9,8L9,3C9,2.35,8.65,2,8,2L3,2C2.35,2,2,2.35,2,3L2,8C2,8.65,2.35,9,3,9ZM3.5,2L4.5,2L4.5,1L3.5,1ZM6.5,2L7.5,2L7.5,1L6.5,1Z" fill="#000000"/></svg>