<svg xmlns="http://www.w3.org/2000/svg" viewBox="0 0 11 11"><path d="M4.11,8.49C4.11,8.16,3.85,7.9,3.51,7.9C3.17,7.9,2.91,8.16,2.91,8.49C2.91,8.83,3.17,9.1,3.51,9.1C3.85,9.1,4.11,8.83,4.11,8.49Z" fill="#000000"/><path d="M6.1,8.49C6.1,8.16,5.84,7.9,5.5,7.9C5.16,7.9,4.9,8.16,4.9,8.49C4.9,8.83,5.16,9.1,5.5,9.1C5.84,9.1,6.1,8.83,6.1,8.49Z" fill="#000000"/><path d="M8.09,8.49C8.09,8.16,7.83,7.9,7.49,7.9C7.15,7.9,6.89,8.16,6.89,8.49C6.89,8.83,7.15,9.1,7.49,9.1C7.83,9.1,8.09,8.83,8.09,8.49Z" fill="#000000"/><path d="M4.11,6.49C4.11,6.16,3.85,5.9,3.51,5.9C3.17,5.9,2.91,6.16,2.91,6.49C2.91,6.83,3.17,7.1,3.51,7.1C3.85,7.1,4.11,6.83,4.11,6.49Z" fill="#000000"/><path d="M6.1,6.49C6.1,6.16,5.84,5.9,5.5,5.9C5.16,5.9,4.9,6.16,4.9,6.49C4.9,6.83,5.16,7.1,5.5,7.1C5.84,7.1,6.1,6.83,6.1,6.49Z" fill="#000000"/><path d="M8.09,6.49C8.09,6.16,7.83,5.9,7.49,5.9C7.15,5.9,6.89,6.16,6.89,6.49C6.89,6.83,7.15,7.1,7.49,7.1C7.83,7.1,8.09,6.83,8.09,6.49Z" fill="#000000"/><path d="M1,5L3.5,5L3.5,3.16C4.69,2.93,6.31,2.93,7.5,3.16L7.5,5L10,5L10,4.36C10,2.11,7.5,1.95,5.5,1.95C3.51,1.95,1,2.11,1,4.36Z" fill="#000000"/></svg>