<svg xmlns="http://www.w3.org/2000/svg" viewBox="0 0 11 11"><path d="M2,9L9,9L9,2L2,2ZM3.2,9C3.2,8.59,3.54,8.25,3.95,8.25C4.36,8.25,4.7,8.59,4.7,9ZM2,6.3C2.41,6.3,2.75,6.64,2.75,7.05C2.75,7.46,2.41,7.8,2,7.8ZM6.3,9C6.3,8.59,6.64,8.25,7.05,8.25C7.46,8.25,7.8,8.59,7.8,9ZM2,3.2C2.41,3.2,2.75,3.54,2.75,3.95C2.75,4.36,2.41,4.7,2,4.7ZM4,7L4,4L7,4L7,7ZM3.2,2L4.7,2C4.7,2.41,4.36,2.75,3.95,2.75C3.54,2.75,3.2,2.41,3.2,2ZM9,7.8C8.59,7.8,8.25,7.46,8.25,7.05C8.25,6.64,8.59,6.3,9,6.3ZM6.3,2L7.8,2C7.8,2.41,7.46,2.75,7.05,2.75C6.64,2.75,6.3,2.41,6.3,2ZM9,4.7C8.59,4.7,8.25,4.36,8.25,3.95C8.25,3.54,8.59,3.2,9,3.2Z" fill="#000000"/></svg>