<svg xmlns="http://www.w3.org/2000/svg" viewBox="0 0 11 11"><path d="M8,9C8.65,9,9,8.65,9,8L9,3C9,2.35,8.65,2,8,2L3,2C2.35,2,2,2.35,2,3L2,8C2,8.65,2.35,9,3,9ZM3.5,2L4.5,2L4.5,1L3.5,1ZM6.5,2L7.5,2L7.5,1L6.5,1ZM2.9,5.49C2.9,5.16,3.16,4.9,3.5,4.9C3.84,4.9,4.1,5.16,4.1,5.49C4.1,5.84,3.84,6.1,3.5,6.1C3.16,6.1,2.9,5.84,2.9,5.49ZM4.9,5.49C4.9,5.16,5.17,4.9,5.5,4.9C5.85,4.9,6.1,5.16,6.1,5.49C6.1,5.84,5.85,6.1,5.5,6.1C5.17,6.1,4.9,5.84,4.9,5.49ZM6.9,5.49C6.9,5.16,7.17,4.9,7.5,4.9C7.85,4.9,8.1,5.16,8.1,5.49C8.1,5.84,7.85,6.1,7.5,6.1C7.17,6.1,6.9,5.84,6.9,5.49Z" fill="#000000"/></svg>