<svg xmlns="http://www.w3.org/2000/svg" viewBox="0 0 11 11"><path d="M5.44,8.38C5.74,7.44,5.91,7.36,7.5,7.36C8.61,7.36,9.25,6.54,9.25,5.5C9.25,3.48,7.69,1.85,5.52,1.85C3.3,1.85,1.75,3.48,1.75,5.46C1.75,7.62,3.61,9,4.73,9C5.16,9,5.29,8.87,5.44,8.38ZM2.88,5.6C2.88,5.25,3.16,4.97,3.51,4.97C3.86,4.97,4.14,5.25,4.14,5.6C4.14,5.95,3.86,6.23,3.51,6.23C3.16,6.23,2.88,5.95,2.88,5.6ZM3.82,3.65C3.82,3.3,4.1,3.02,4.45,3.02C4.8,3.02,5.08,3.3,5.08,3.65C5.08,4,4.8,4.28,4.45,4.28C4.1,4.28,3.82,4,3.82,3.65ZM6.88,5.6C6.88,5.25,7.16,4.97,7.51,4.97C7.86,4.97,8.14,5.25,8.14,5.6C8.14,5.95,7.86,6.23,7.51,6.23C7.16,6.23,6.88,5.95,6.88,5.6ZM5.92,3.65C5.92,3.3,6.2,3.02,6.55,3.02C6.9,3.02,7.18,3.3,7.18,3.65C7.18,4,6.9,4.28,6.55,4.28C6.2,4.28,5.92,4,5.92,3.65Z" fill="#000000"/></svg>