<svg xmlns="http://www.w3.org/2000/svg" viewBox="0 0 11 11"><path d="M8,7L8.99,7L9,7L9,4L8,4Z" fill="#000000"/><path d="M3.19,8.5C3.19,8.11,2.88,7.8,2.49,7.8C2.1,7.8,1.79,8.11,1.79,8.5C1.79,8.89,2.1,9.2,2.49,9.2C2.88,9.2,3.19,8.89,3.19,8.5Z" fill="#000000"/><path d="M2,7L2.01,7L3,7L3,4L2,4Z" fill="#000000"/><path d="M4,9L7,9L7,8L4,8L4,8.99Z" fill="#000000"/><path d="M3.19,2.5C3.19,2.11,2.88,1.8,2.49,1.8C2.1,1.8,1.79,2.11,1.79,2.5C1.79,2.89,2.1,3.2,2.49,3.2C2.88,3.2,3.19,2.89,3.19,2.5Z" fill="#000000"/><path d="M9.21,8.5C9.21,8.11,8.9,7.8,8.51,7.8C8.12,7.8,7.81,8.11,7.81,8.5C7.81,8.89,8.12,9.2,8.51,9.2C8.9,9.2,9.21,8.89,9.21,8.5Z" fill="#000000"/><path d="M4,3L7,3L7,2L4,2L4,2.01Z" fill="#000000"/><path d="M9.21,2.5C9.21,2.11,8.9,1.8,8.51,1.8C8.12,1.8,7.81,2.11,7.81,2.5C7.81,2.89,8.12,3.2,8.51,3.2C8.9,3.2,9.21,2.89,9.21,2.5Z" fill="#000000"/></svg>