<svg xmlns="http://www.w3.org/2000/svg" viewBox="0 0 11 11"><path d="M3.87,9L7.13,9L5.5,7Z" fill="#000000"/><path d="M2.51,6.1C2.84,6.1,3.1,5.84,3.1,5.5C3.1,5.16,2.84,4.9,2.51,4.9C2.17,4.9,1.9,5.16,1.9,5.5C1.9,5.84,2.17,6.1,2.51,6.1Z" fill="#000000"/><path d="M3.87,2L5.5,4L7.13,2Z" fill="#000000"/><path d="M4.5,6.11C4.84,6.11,5.1,5.84,5.1,5.5C5.1,5.16,4.84,4.9,4.5,4.9C4.16,4.9,3.9,5.16,3.9,5.5C3.9,5.84,4.16,6.11,4.5,6.11Z" fill="#000000"/><path d="M8.51,6.1C8.84,6.1,9.1,5.84,9.1,5.5C9.1,5.16,8.84,4.9,8.51,4.9C8.17,4.9,7.9,5.16,7.9,5.5C7.9,5.84,8.17,6.1,8.51,6.1Z" fill="#000000"/><path d="M6.5,6.11C6.84,6.11,7.1,5.84,7.1,5.5C7.1,5.16,6.84,4.9,6.5,4.9C6.16,4.9,5.9,5.16,5.9,5.5C5.9,5.84,6.16,6.11,6.5,6.11Z" fill="#000000"/></svg>