<svg xmlns="http://www.w3.org/2000/svg" viewBox="0 0 11 11"><path d="M7.5,3L8.5,3L8.5,2C8.5,1.35,8.15,1,7.5,1L6,1L6,2L7.5,2Z" fill="#000000"/><path d="M5,10L5,9L3.5,9L3.5,8L2.5,8L2.5,9C2.5,9.65,2.85,10,3.5,10Z" fill="#000000"/><path d="M2.5,7L3.5,7L3.5,4L2.5,4Z" fill="#000000"/><path d="M6,10L7.5,10C8.15,10,8.5,9.65,8.5,9L8.5,8L7.5,8L7.5,9L6,9Z" fill="#000000"/><path d="M2.5,3L3.5,3L3.5,2L5,2L5,1L3.5,1C2.85,1,2.5,1.35,2.5,2Z" fill="#000000"/><path d="M7.5,7L8.5,7L8.5,4L7.5,4Z" fill="#000000"/></svg>