<svg xmlns="http://www.w3.org/2000/svg" viewBox="0 0 11 11"><path d="M5.56,9C6.25,9,7.02,8.18,7.26,7.17L8.02,7.93C8.51,7.44,8.47,6.32,7.92,5.44L9,5.44C9,4.75,8.18,3.98,7.17,3.74L7.93,2.98C7.7,2.75,7.34,2.64,6.92,2.64C6.45,2.64,5.91,2.79,5.44,3.08L5.44,2C4.75,2,3.98,2.82,3.74,3.83L2.98,3.07C2.49,3.56,2.53,4.68,3.08,5.56L2,5.56C2,6.25,2.82,7.02,3.83,7.26L3.07,8.02C3.56,8.51,4.68,8.47,5.56,7.92ZM4.87,5.5C4.87,5.15,5.15,4.87,5.5,4.87C5.85,4.87,6.13,5.15,6.13,5.5C6.13,5.85,5.85,6.13,5.5,6.13C5.15,6.13,4.87,5.85,4.87,5.5Z" fill="#000000"/></svg>