<svg xmlns="http://www.w3.org/2000/svg" viewBox="0 0 11 11"><path d="M9,7.13L9,3.87L7,5.5Z" fill="#000000"/><path d="M6.1,8.49C6.1,8.16,5.84,7.9,5.5,7.9C5.16,7.9,4.9,8.16,4.9,8.49C4.9,8.83,5.16,9.1,5.5,9.1C5.84,9.1,6.1,8.83,6.1,8.49Z" fill="#000000"/><path d="M2,7.13L4,5.5L2,3.87Z" fill="#000000"/><path d="M6.11,6.5C6.11,6.16,5.84,5.9,5.5,5.9C5.16,5.9,4.9,6.16,4.9,6.5C4.9,6.84,5.16,7.1,5.5,7.1C5.84,7.1,6.11,6.84,6.11,6.5Z" fill="#000000"/><path d="M6.1,2.49C6.1,2.16,5.84,1.9,5.5,1.9C5.16,1.9,4.9,2.16,4.9,2.49C4.9,2.83,5.16,3.1,5.5,3.1C5.84,3.1,6.1,2.83,6.1,2.49Z" fill="#000000"/><path d="M6.11,4.5C6.11,4.16,5.84,3.9,5.5,3.9C5.16,3.9,4.9,4.16,4.9,4.5C4.9,4.84,5.16,5.1,5.5,5.1C5.84,5.1,6.11,4.84,6.11,4.5Z" fill="#000000"/></svg>