<svg xmlns="http://www.w3.org/2000/svg" viewBox="0 0 11 11"><path d="M9,8L10,8L10,3L9,3Z" fill="#000000"/><path d="M1,8L2,8L2,3L1,3Z" fill="#000000"/><path d="M4.1,5.5C4.1,5.16,3.84,4.9,3.5,4.9C3.16,4.9,2.9,5.16,2.9,5.5C2.9,5.84,3.16,6.11,3.5,6.11C3.84,6.11,4.1,5.84,4.1,5.5Z" fill="#000000"/><path d="M6.1,5.5C6.1,5.16,5.84,4.9,5.5,4.9C5.16,4.9,4.9,5.16,4.9,5.5C4.9,5.84,5.16,6.11,5.5,6.11C5.84,6.11,6.1,5.84,6.1,5.5Z" fill="#000000"/><path d="M8.1,5.5C8.1,5.16,7.84,4.9,7.5,4.9C7.16,4.9,6.9,5.16,6.9,5.5C6.9,5.84,7.16,6.11,7.5,6.11C7.84,6.11,8.1,5.84,8.1,5.5Z" fill="#000000"/></svg>