<svg xmlns="http://www.w3.org/2000/svg" viewBox="0 0 11 11"><path d="M6,7.75L6,3.25C5.85,3.22,5.7,3.2,5.54,3.2C4.22,3.2,3.2,4.2,3.2,5.5C3.2,6.8,4.22,7.8,5.54,7.8C5.7,7.8,5.85,7.78,6,7.75ZM4.26,7.44L3.56,6.74L2.67,7.62L3.38,8.33ZM6,7.75L5,7.75L5,9L6,9ZM3.25,6L3.25,5L2,5L2,6ZM5,6.7C4.53,6.5,4.2,6.05,4.2,5.5C4.2,4.95,4.53,4.5,5,4.3ZM3.56,4.26L4.26,3.56L3.38,2.67L2.67,3.38ZM7.44,6.74L6.74,7.44L7.62,8.33L8.33,7.62ZM5,3.25L6,3.25L6,2L5,2ZM7.75,5L7.75,6L9,6L9,5ZM6.74,3.56L7.44,4.26L8.33,3.38L7.62,2.67Z" fill="#000000"/></svg>