<svg xmlns="http://www.w3.org/2000/svg" viewBox="0 0 11 11"><path d="M7.63,4.82C8.09,4.36,8.09,3.86,7.63,3.4L6.22,1.99C5.76,1.53,5.26,1.53,4.8,1.99L2.68,4.1C2.22,4.56,2.22,5.06,2.68,5.52L4.09,6.93C4.55,7.39,5.05,7.39,5.51,6.93ZM3.1,8.5C3.1,8.13,2.87,7.9,2.5,7.9C2.13,7.9,1.9,8.13,1.9,8.5C1.9,8.87,2.13,9.1,2.5,9.1C2.89,9.1,3.1,8.87,3.1,8.5ZM5.1,8.5C5.1,8.13,4.87,7.9,4.5,7.9C4.13,7.9,3.9,8.13,3.9,8.5C3.9,8.87,4.13,9.1,4.5,9.1C4.89,9.1,5.1,8.87,5.1,8.5ZM7.1,8.5C7.1,8.13,6.87,7.9,6.5,7.9C6.13,7.9,5.9,8.13,5.9,8.5C5.9,8.87,6.13,9.1,6.5,9.1C6.89,9.1,7.1,8.87,7.1,8.5ZM4.81,6.22L3.38,4.82L4.09,4.11L5.51,5.51ZM9.1,8.5C9.1,8.13,8.87,7.9,8.5,7.9C8.13,7.9,7.9,8.13,7.9,8.5C7.9,8.87,8.13,9.1,8.5,9.1C8.89,9.1,9.1,8.87,9.1,8.5Z" fill="#000000"/></svg>