<svg xmlns="http://www.w3.org/2000/svg" viewBox="0 0 11 11"><path d="M9,5L10,5L10,3.5C10,2.85,9.65,2.5,9,2.5L8,2.5L8,3.5L9,3.5Z" fill="#000000"/><path d="M3,8.5L3,7.5L2,7.5L2,6L1,6L1,7.5C1,8.15,1.35,8.5,2,8.5Z" fill="#000000"/><path d="M4,8.5L7,8.5L7,7.5L4,7.5Z" fill="#000000"/><path d="M1,5L2,5L2,3.5L3,3.5L3,2.5L2,2.5C1.35,2.5,1,2.85,1,3.5Z" fill="#000000"/><path d="M8,8.5L9,8.5C9.65,8.5,10,8.15,10,7.5L10,6L9,6L9,7.5L8,7.5Z" fill="#000000"/><path d="M4,3.5L7,3.5L7,2.5L4,2.5Z" fill="#000000"/></svg>