<svg xmlns="http://www.w3.org/2000/svg" viewBox="0 0 11 11"><path d="M3,2L8,2L8,1L3,1Z" fill="#000000"/><path d="M3,10L8,10L8,9L3,9Z" fill="#000000"/><path d="M6.1,7.5C6.1,7.16,5.84,6.9,5.5,6.9C5.16,6.9,4.89,7.16,4.89,7.5C4.89,7.84,5.16,8.1,5.5,8.1C5.84,8.1,6.1,7.84,6.1,7.5Z" fill="#000000"/><path d="M6.1,5.5C6.1,5.16,5.84,4.9,5.5,4.9C5.16,4.9,4.89,5.16,4.89,5.5C4.89,5.84,5.16,6.1,5.5,6.1C5.84,6.1,6.1,5.84,6.1,5.5Z" fill="#000000"/><path d="M6.1,3.5C6.1,3.16,5.84,2.9,5.5,2.9C5.16,2.9,4.89,3.16,4.89,3.5C4.89,3.84,5.16,4.1,5.5,4.1C5.84,4.1,6.1,3.84,6.1,3.5Z" fill="#000000"/></svg>