<svg xmlns="http://www.w3.org/2000/svg" viewBox="0 0 11 11"><path d="M3.11,2.5C3.11,2.16,2.85,1.9,2.51,1.9C2.17,1.9,1.91,2.16,1.91,2.5C1.91,2.84,2.17,3.1,2.51,3.1C2.85,3.1,3.11,2.84,3.11,2.5Z" fill="#000000"/><path d="M8.76,8.5C8.76,8.36,8.65,8.25,8.51,8.25C8.37,8.25,8.26,8.36,8.26,8.5C8.26,8.64,8.37,8.75,8.51,8.75C8.65,8.75,8.76,8.64,8.76,8.5Z" fill="#000000"/><path d="M4.96,2.5C4.96,2.25,4.76,2.05,4.51,2.05C4.26,2.05,4.06,2.25,4.06,2.5C4.06,2.75,4.26,2.95,4.51,2.95C4.76,2.95,4.96,2.75,4.96,2.5Z" fill="#000000"/><path d="M8.76,6.5C8.76,6.36,8.65,6.25,8.51,6.25C8.37,6.25,8.26,6.36,8.26,6.5C8.26,6.64,8.37,6.75,8.51,6.75C8.65,6.75,8.76,6.64,8.76,6.5Z" fill="#000000"/><path d="M6.86,2.5C6.86,2.31,6.7,2.15,6.51,2.15C6.32,2.15,6.16,2.31,6.16,2.5C6.16,2.69,6.32,2.85,6.51,2.85C6.7,2.85,6.86,2.69,6.86,2.5Z" fill="#000000"/><path d="M8.76,2.5C8.76,2.36,8.65,2.25,8.51,2.25C8.37,2.25,8.26,2.36,8.26,2.5C8.26,2.64,8.37,2.75,8.51,2.75C8.65,2.75,8.76,2.64,8.76,2.5Z" fill="#000000"/><path d="M8.76,4.5C8.76,4.36,8.65,4.25,8.51,4.25C8.37,4.25,8.26,4.36,8.26,4.5C8.26,4.64,8.37,4.75,8.51,4.75C8.65,4.75,8.76,4.64,8.76,4.5Z" fill="#000000"/><path d="M3.11,4.5C3.11,4.16,2.85,3.9,2.51,3.9C2.17,3.9,1.91,4.16,1.91,4.5C1.91,4.84,2.17,5.1,2.51,5.1C2.85,5.1,3.11,4.84,3.11,4.5Z" fill="#000000"/><path d="M4.96,4.5C4.96,4.25,4.76,4.05,4.51,4.05C4.26,4.05,4.06,4.25,4.06,4.5C4.06,4.75,4.26,4.95,4.51,4.95C4.76,4.95,4.96,4.75,4.96,4.5Z" fill="#000000"/><path d="M6.86,4.5C6.86,4.31,6.7,4.15,6.51,4.15C6.32,4.15,6.16,4.31,6.16,4.5C6.16,4.69,6.32,4.85,6.51,4.85C6.7,4.85,6.86,4.69,6.86,4.5Z" fill="#000000"/><path d="M6.86,8.5C6.86,8.31,6.7,8.15,6.51,8.15C6.32,8.15,6.16,8.31,6.16,8.5C6.16,8.69,6.32,8.85,6.51,8.85C6.7,8.85,6.86,8.69,6.86,8.5Z" fill="#000000"/><path d="M6.86,6.5C6.86,6.31,6.7,6.15,6.51,6.15C6.32,6.15,6.16,6.31,6.16,6.5C6.16,6.69,6.32,6.85,6.51,6.85C6.7,6.85,6.86,6.69,6.86,6.5Z" fill="#000000"/><path d="M3.11,6.5C3.11,6.16,2.85,5.9,2.51,5.9C2.17,5.9,1.91,6.16,1.91,6.5C1.91,6.84,2.17,7.1,2.51,7.1C2.85,7.1,3.11,6.84,3.11,6.5Z" fill="#000000"/><path d="M4.96,6.5C4.96,6.25,4.76,6.05,4.51,6.05C4.26,6.05,4.06,6.25,4.06,6.5C4.06,6.75,4.26,6.95,4.51,6.95C4.76,6.95,4.96,6.75,4.96,6.5Z" fill="#000000"/><path d="M3.11,8.5C3.11,8.16,2.85,7.9,2.51,7.9C2.17,7.9,1.91,8.16,1.91,8.5C1.91,8.84,2.17,9.1,2.51,9.1C2.85,9.1,3.11,8.84,3.11,8.5Z" fill="#000000"/><path d="M4.96,8.5C4.96,8.25,4.76,8.05,4.51,8.05C4.26,8.05,4.06,8.25,4.06,8.5C4.06,8.75,4.26,8.95,4.51,8.95C4.76,8.95,4.96,8.75,4.96,8.5Z" fill="#000000"/></svg>