<svg xmlns="http://www.w3.org/2000/svg" viewBox="0 0 11 11"><path d="M2.32,5.15L1.61,5.85L0.9,5.15C0.44,4.69,0.44,4.19,0.9,3.73L1.96,2.67L2.67,3.38L1.61,4.44Z" fill="#ffffff"/><path d="M9.04,8.33L8.33,7.62L9.39,6.56L8.68,5.85L9.39,5.15L10.1,5.85C10.56,6.31,10.56,6.81,10.1,7.27Z" fill="#ffffff"/><path d="M8.68,4.44L7.97,5.15L5.85,3.03L6.56,2.32Z" fill="#ffffff"/><path d="M8.33,9.04L7.27,10.1C6.81,10.56,6.31,10.56,5.85,10.1L5.15,9.39L5.85,8.68L6.56,9.39L7.62,8.33Z" fill="#ffffff"/><path d="M5.85,1.61L5.15,2.32L4.44,1.61L3.38,2.67L2.67,1.96L3.73,0.9C4.19,0.44,4.69,0.44,5.15,0.9Z" fill="#ffffff"/><path d="M5.15,7.97L4.44,8.68L2.32,6.56L3.03,5.85Z" fill="#ffffff"/></svg>