<svg xmlns="http://www.w3.org/2000/svg" viewBox="0 0 11 11"><path d="M8.68,5.15L9.39,5.85L10.1,5.15C10.56,4.69,10.56,4.19,10.1,3.73L9.04,2.67L8.33,3.38L9.39,4.44Z" fill="#ffffff"/><path d="M1.96,8.33L2.67,7.62L1.61,6.56L2.32,5.85L1.61,5.15L0.9,5.85C0.44,6.31,0.44,6.81,0.9,7.27Z" fill="#ffffff"/><path d="M2.32,4.44L3.03,5.15L5.15,3.03L4.44,2.32Z" fill="#ffffff"/><path d="M2.67,9.04L3.73,10.1C4.19,10.56,4.69,10.56,5.15,10.1L5.85,9.39L5.15,8.68L4.44,9.39L3.38,8.33Z" fill="#ffffff"/><path d="M5.15,1.61L5.85,2.32L6.56,1.61L7.62,2.67L8.33,1.96L7.27,0.9C6.81,0.44,6.31,0.44,5.85,0.9Z" fill="#ffffff"/><path d="M5.85,7.97L6.56,8.68L8.68,6.56L7.97,5.85Z" fill="#ffffff"/></svg>