<svg xmlns="http://www.w3.org/2000/svg" viewBox="0 0 11 11"><path d="M2.71,9L6.91,4.8C7.45,4.26,6.74,3.55,6.2,4.09L2,8.29ZM5.09,3.99C5.1,3.65,4.84,3.4,4.49,3.4C4.15,3.4,3.9,3.65,3.91,4C3.91,4.34,4.15,4.59,4.51,4.59C4.84,4.6,5.09,4.34,5.09,3.99ZM7.6,6.5C7.6,6.16,7.35,5.9,7,5.92C6.66,5.92,6.4,6.18,6.41,6.52C6.41,6.86,6.65,7.1,7,7.09C7.34,7.09,7.6,6.85,7.6,6.5ZM6.6,2.5C6.6,2.16,6.34,1.9,6,1.9C5.65,1.91,5.4,2.15,5.4,2.5C5.4,2.83,5.66,3.09,6.01,3.1C6.35,3.1,6.6,2.85,6.6,2.5ZM9.1,4.99C9.09,4.67,8.84,4.41,8.5,4.41C8.16,4.4,7.9,4.65,7.9,5C7.9,5.34,8.15,5.6,8.5,5.59C8.83,5.6,9.09,5.35,9.1,4.99ZM8.6,2.99C8.58,2.66,8.34,2.4,8,2.4C7.65,2.41,7.4,2.67,7.41,3C7.41,3.34,7.65,3.6,8,3.58C8.34,3.59,8.6,3.34,8.6,2.99Z" fill="#000000"/></svg>