<svg xmlns="http://www.w3.org/2000/svg" viewBox="0 0 11 11"><path d="M7.01,9C7.66,9,8.01,8.65,8.01,8L8.01,2L3.01,2L3.01,8C3.01,8.65,3.36,9,4.01,9ZM3.9,3.5C3.9,3.16,4.15,2.9,4.5,2.9C4.84,2.9,5.1,3.16,5.1,3.5C5.1,3.85,4.84,4.1,4.5,4.1C4.15,4.1,3.9,3.85,3.9,3.5ZM5.9,3.5C5.9,3.16,6.16,2.9,6.5,2.9C6.85,2.9,7.1,3.16,7.1,3.5C7.1,3.85,6.85,4.1,6.5,4.1C6.16,4.1,5.9,3.85,5.9,3.5ZM3.9,5.25C3.9,4.91,4.15,4.65,4.5,4.65C4.84,4.65,5.1,4.91,5.1,5.25C5.1,5.6,4.84,5.85,4.5,5.85C4.15,5.85,3.9,5.6,3.9,5.25ZM5.9,5.25C5.9,4.91,6.16,4.65,6.5,4.65C6.85,4.65,7.1,4.91,7.1,5.25C7.1,5.6,6.85,5.85,6.5,5.85C6.16,5.85,5.9,5.6,5.9,5.25ZM4.5,7.25C4.5,6.68,4.93,6.25,5.5,6.25C6.08,6.25,6.5,6.68,6.5,7.25C6.5,7.83,6.08,8.25,5.5,8.25C4.93,8.25,4.5,7.83,4.5,7.25Z" fill="#000000"/></svg>