<svg xmlns="http://www.w3.org/2000/svg" viewBox="0 0 11 11"><path d="M9,9C9.65,9,10,8.65,10,8L10,5C10,4.35,9.65,4,9,4L2,4C1.35,4,1,4.35,1,5L1,8C1,8.65,1.35,9,2,9ZM1.9,7.49C1.9,7.15,2.16,6.89,2.49,6.89C2.83,6.89,3.1,7.15,3.1,7.49C3.1,7.83,2.83,8.09,2.49,8.09C2.16,8.09,1.9,7.83,1.9,7.49ZM1.9,5.5C1.9,5.16,2.16,4.9,2.49,4.9C2.83,4.9,3.1,5.16,3.1,5.5C3.1,5.84,2.83,6.1,2.49,6.1C2.16,6.1,1.9,5.84,1.9,5.5ZM4.01,8L4.01,7.99L4.01,7L7.01,7L7.01,8ZM3.9,5.5C3.9,5.16,4.17,4.9,4.51,4.9C4.84,4.9,5.1,5.16,5.1,5.5C5.1,5.84,4.84,6.1,4.51,6.1C4.17,6.1,3.9,5.84,3.9,5.5ZM5.9,5.5C5.9,5.16,6.16,4.9,6.5,4.9C6.84,4.9,7.1,5.16,7.1,5.5C7.1,5.84,6.84,6.11,6.5,6.11C6.16,6.11,5.9,5.84,5.9,5.5ZM7.9,7.49C7.9,7.15,8.17,6.89,8.51,6.89C8.84,6.89,9.1,7.15,9.1,7.49C9.1,7.83,8.84,8.09,8.51,8.09C8.17,8.09,7.9,7.83,7.9,7.49ZM7.9,5.5C7.9,5.16,8.17,4.9,8.51,4.9C8.84,4.9,9.1,5.16,9.1,5.5C9.1,5.84,8.84,6.1,8.51,6.1C8.17,6.1,7.9,5.84,7.9,5.5ZM4,3L7,3L5.5,1Z" fill="#000000"/></svg>