<svg xmlns="http://www.w3.org/2000/svg" viewBox="0 0 11 11"><path d="M2,9L9,9L9,4L2,4ZM2.9,7.49C2.9,7.15,3.16,6.89,3.49,6.89C3.83,6.89,4.1,7.15,4.1,7.49C4.1,7.83,3.83,8.09,3.49,8.09C3.16,8.09,2.9,7.83,2.9,7.49ZM2.9,5.5C2.9,5.16,3.16,4.9,3.49,4.9C3.83,4.9,4.1,5.16,4.1,5.5C4.1,5.84,3.83,6.1,3.49,6.1C3.16,6.1,2.9,5.84,2.9,5.5ZM5.01,8L5.01,7.99L5.01,7L8.01,7L8.01,8ZM4.9,5.5C4.9,5.16,5.17,4.9,5.51,4.9C5.84,4.9,6.1,5.16,6.1,5.5C6.1,5.84,5.84,6.1,5.51,6.1C5.17,6.1,4.9,5.84,4.9,5.5ZM6.9,5.5C6.9,5.16,7.16,4.9,7.5,4.9C7.84,4.9,8.1,5.16,8.1,5.5C8.1,5.84,7.84,6.11,7.5,6.11C7.16,6.11,6.9,5.84,6.9,5.5ZM8.25,3C9.5,3,10,3.5,10,4.75L10,5.25L11,5.25L11,4.75C11,2.94,10.06,2,8.25,2L7.75,2L7.75,3Z" fill="#000000"/></svg>