<svg xmlns="http://www.w3.org/2000/svg" viewBox="0 0 11 11"><path d="M2.01,9L9.01,9L9.01,6L2.01,6ZM4.45,5.19C4.83,4.82,5.18,4.65,5.51,4.65C5.84,4.65,6.2,4.82,6.56,5.19L7.28,4.49C6.74,3.94,6.14,3.65,5.51,3.65C4.88,3.65,4.29,3.95,3.75,4.49ZM2.95,3.7C3.65,3.01,4.57,2.65,5.51,2.65C6.46,2.65,7.38,2.99,8.06,3.69L8.78,2.99C7.9,2.09,6.7,1.65,5.51,1.65C4.33,1.65,3.13,2.11,2.25,2.98ZM4.76,7.5C4.76,7.07,5.07,6.75,5.51,6.75C5.94,6.75,6.26,7.07,6.26,7.5C6.26,7.94,5.94,8.25,5.51,8.25C5.07,8.25,4.76,7.94,4.76,7.5ZM4.89,6L6.14,6L5.51,5.5Z" fill="#000000"/></svg>