<svg xmlns="http://www.w3.org/2000/svg" viewBox="0 0 11 11"><path d="M7.5,2.9C7.82,2.9,8.1,3.18,8.1,3.5C8.1,3.83,7.82,4.1,7.5,4.1C7.17,4.1,6.9,3.83,6.9,3.5C6.9,3.18,7.17,2.9,7.5,2.9ZM7.1,8.5C7.1,8.17,6.83,7.9,6.5,7.9C6.17,7.9,5.9,8.17,5.9,8.5C5.9,8.83,6.17,9.1,6.5,9.1C6.83,9.1,7.1,8.83,7.1,8.5ZM9.1,8.5C9.1,8.17,8.83,7.9,8.5,7.9C8.17,7.9,7.9,8.17,7.9,8.5C7.9,8.83,8.17,9.1,8.5,9.1C8.83,9.1,9.1,8.83,9.1,8.5ZM2,9L5,9L5,8L2,8ZM8,6C8.65,6,9,5.65,9,5L9,3C9,2.35,8.65,2,8,2L3,2C2.35,2,2,2.35,2,3L2,5C2,5.65,2.35,6,3,6Z" fill="#000000"/></svg>