<svg xmlns="http://www.w3.org/2000/svg" viewBox="0 0 11 11"><path d="M9,7C9.65,7,10,6.65,10,6L10,3C10,2.35,9.65,2,9,2L2,2C1.35,2,1,2.35,1,3L1,6C1,6.65,1.35,7,2,7ZM1.9,5.49C1.9,5.15,2.16,4.89,2.49,4.89C2.83,4.89,3.1,5.15,3.1,5.49C3.1,5.83,2.83,6.09,2.49,6.09C2.16,6.09,1.9,5.83,1.9,5.49ZM1.9,3.5C1.9,3.16,2.16,2.9,2.49,2.9C2.83,2.9,3.1,3.16,3.1,3.5C3.1,3.84,2.83,4.1,2.49,4.1C2.16,4.1,1.9,3.84,1.9,3.5ZM4.01,6L4.01,5.99L4.01,5L7.01,5L7.01,6ZM3.9,3.5C3.9,3.16,4.17,2.9,4.51,2.9C4.84,2.9,5.1,3.16,5.1,3.5C5.1,3.84,4.84,4.1,4.51,4.1C4.17,4.1,3.9,3.84,3.9,3.5ZM5.9,3.5C5.9,3.16,6.16,2.9,6.5,2.9C6.84,2.9,7.1,3.16,7.1,3.5C7.1,3.84,6.84,4.11,6.5,4.11C6.16,4.11,5.9,3.84,5.9,3.5ZM7.9,5.49C7.9,5.15,8.17,4.89,8.51,4.89C8.84,4.89,9.1,5.15,9.1,5.49C9.1,5.83,8.84,6.09,8.51,6.09C8.17,6.09,7.9,5.83,7.9,5.49ZM7.9,3.5C7.9,3.16,8.17,2.9,8.51,2.9C8.84,2.9,9.1,3.16,9.1,3.5C9.1,3.84,8.84,4.1,8.51,4.1C8.17,4.1,7.9,3.84,7.9,3.5ZM4,8L5.5,10L7,8Z" fill="#000000"/></svg>