<svg xmlns="http://www.w3.org/2000/svg" viewBox="0 0 11 11"><path d="M7.5,2.9C7.82,2.9,8.1,3.18,8.1,3.5C8.1,3.83,7.82,4.1,7.5,4.1C7.17,4.1,6.9,3.83,6.9,3.5C6.9,3.18,7.17,2.9,7.5,2.9ZM8.1,8.5C8.1,8.17,7.83,7.9,7.5,7.9C7.17,7.9,6.9,8.17,6.9,8.5C6.9,8.83,7.17,9.1,7.5,9.1C7.83,9.1,8.1,8.83,8.1,8.5ZM4.1,8.5C4.1,8.17,3.83,7.9,3.5,7.9C3.17,7.9,2.9,8.17,2.9,8.5C2.9,8.83,3.17,9.1,3.5,9.1C3.83,9.1,4.1,8.83,4.1,8.5ZM6.1,8.5C6.1,8.17,5.83,7.9,5.5,7.9C5.17,7.9,4.9,8.17,4.9,8.5C4.9,8.83,5.17,9.1,5.5,9.1C5.83,9.1,6.1,8.83,6.1,8.5ZM8,6C8.65,6,9,5.65,9,5L9,3C9,2.35,8.65,2,8,2L3,2C2.35,2,2,2.35,2,3L2,5C2,5.65,2.35,6,3,6Z" fill="#000000"/></svg>