<svg xmlns="http://www.w3.org/2000/svg" viewBox="0 0 11 11"><path d="M7,7.99L7.99,7.99L8,7.99L8,4.99L7,4.99ZM4.11,7.49C4.11,7.16,3.85,6.9,3.51,6.9C3.17,6.9,2.91,7.16,2.91,7.49C2.91,7.83,3.17,8.1,3.51,8.1C3.85,8.1,4.11,7.83,4.11,7.49ZM6.1,7.49C6.1,7.16,5.84,6.9,5.5,6.9C5.16,6.9,4.9,7.16,4.9,7.49C4.9,7.83,5.16,8.1,5.5,8.1C5.84,8.1,6.1,7.83,6.1,7.49ZM4.11,5.5C4.11,5.16,3.85,4.9,3.51,4.9C3.17,4.9,2.9,5.16,2.9,5.5C2.9,5.84,3.17,6.1,3.51,6.1C3.85,6.1,4.11,5.84,4.11,5.5ZM6.11,5.5C6.11,5.16,5.84,4.9,5.5,4.9C5.16,4.9,4.9,5.16,4.9,5.5C4.9,5.84,5.16,6.1,5.5,6.1C5.84,6.1,6.11,5.84,6.11,5.5ZM4.11,3.49C4.11,3.16,3.85,2.9,3.51,2.9C3.17,2.9,2.91,3.16,2.91,3.49C2.91,3.83,3.17,4.1,3.51,4.1C3.85,4.1,4.11,3.83,4.11,3.49ZM6.1,3.49C6.1,3.16,5.84,2.9,5.5,2.9C5.16,2.9,4.9,3.16,4.9,3.49C4.9,3.83,5.16,4.1,5.5,4.1C5.84,4.1,6.1,3.83,6.1,3.49ZM8.09,3.49C8.09,3.16,7.83,2.9,7.49,2.9C7.15,2.9,6.89,3.16,6.89,3.49C6.89,3.83,7.15,4.1,7.49,4.1C7.83,4.1,8.09,3.83,8.09,3.49ZM2,9L2,2L9,2L9,9Z" fill="#000000"/></svg>