<svg xmlns="http://www.w3.org/2000/svg" viewBox="0 0 1100 1100"><path d="M421,386C421,336.76,476.79,290,550,290C625.21,290,681,336.76,681,386C681,435.02,625.42,481,550,481C476.58,481,421,435.02,421,386Z" fill="currentColor"/><path d="M781,386C781,275.24,674.79,190,550,190C427.41,190,321,275.44,321,386C321,496.78,427.62,581,550,581C674.58,581,781,496.98,781,386Z" fill="currentColor"/><path d="M390,698C390,633.63,454.94,581,549,581C645.26,581,710,633.83,710,698C710,762.57,644.46,815,550,815C455.54,815,390,762.57,390,698Z" fill="currentColor"/><path d="M810,698C810,572.37,694.94,481,549,481C405.06,481,290,572.37,290,698C290,823.63,405.06,915,550,915C694.94,915,810,823.63,810,698Z" fill="currentColor"/></svg>