<svg xmlns="http://www.w3.org/2000/svg" viewBox="0 0 1100 1100"><path d="M533.67,732L533.67,732C545.33,743.67,554.67,743.67,566.33,732L704,594.33C723.83,574.5,719.17,561.67,690,561.67L602.5,561.67L602.5,131.17C602.5,109,592,100.83,562.83,100.83L537.17,102C508,102,497.5,110.17,497.5,132.33L498.67,561.67L410,561.67C380.83,561.67,376.17,574.5,396,594.33Z" fill="currentColor"/><path d="M723.83,200C694.67,200,688.83,205.83,688.83,235C688.83,264.17,694.67,270,723.83,270L725,270C814.83,270,830,285.17,830,375L830,725C830,814.83,814.83,830,725,830L375,830C285.17,830,270,814.83,270,725L270,375C270,285.17,285.17,270,375,270L373.83,270C403,270,408.83,264.17,408.83,235C408.83,205.83,403,200,373.83,200L375,200C245.5,200,200,245.5,200,375L200,725C200,854.5,245.5,900,375,900L725,900C854.5,900,900,854.5,900,725L900,375C900,245.5,854.5,200,725,200Z" fill="currentColor"/></svg>