<svg xmlns="http://www.w3.org/2000/svg" viewBox="0 0 1100 1100"><path d="M566.33,368L566.33,368C554.67,356.33,545.33,356.33,533.67,368L396,505.67C376.17,525.5,380.83,538.33,410,538.33L497.5,538.33L497.5,968.83C497.5,991,508,999.17,537.17,999.17L562.83,998C592,998,602.5,989.83,602.5,967.67L601.33,538.33L690,538.33C719.17,538.33,723.83,525.5,704,505.67Z" fill="currentColor"/><path d="M376.17,900C405.33,900,411.17,894.17,411.17,865C411.17,835.83,405.33,830,376.17,830L375,830C285.17,830,270,814.83,270,725L270,375C270,285.17,285.17,270,375,270L725,270C814.83,270,830,285.17,830,375L830,725C830,814.83,814.83,830,725,830L726.17,830C697,830,691.17,835.83,691.17,865C691.17,894.17,697,900,726.17,900L725,900C854.5,900,900,854.5,900,725L900,375C900,245.5,854.5,200,725,200L375,200C245.5,200,200,245.5,200,375L200,725C200,854.5,245.5,900,375,900Z" fill="currentColor"/></svg>