<svg xmlns="http://www.w3.org/2000/svg" viewBox="0 0 1100 1100"><path d="M505.67,704C525.5,723.83,538.33,719.17,538.33,690L538.33,601.33L967.67,602.5C989.83,602.5,998,592,998,562.83L999.17,537.17C999.17,508,991,497.5,968.83,497.5L538.33,497.5L538.33,410C538.33,380.83,525.5,376.17,505.67,396L368,533.67C356.33,545.33,356.33,554.67,368,566.33Z" fill="currentColor"/><path d="M900,375C900,245.5,854.5,200,725,200L375,200C245.5,200,200,245.5,200,375L200,725C200,854.5,245.5,900,375,900L725,900C854.5,900,900,854.5,900,725L900,726.17C900,697,894.17,691.17,865,691.17C835.83,691.17,830,697,830,726.17L830,725C830,814.83,814.83,830,725,830L375,830C285.17,830,270,814.83,270,725L270,375C270,285.17,285.17,270,375,270L725,270C814.83,270,830,285.17,830,375L830,376.17C830,405.33,835.83,411.17,865,411.17C894.17,411.17,900,405.33,900,376.17Z" fill="currentColor"/></svg>