<svg xmlns="http://www.w3.org/2000/svg" viewBox="0 0 1100 1100"><path d="M732,566.33L732,566.33C743.67,554.67,743.67,545.33,732,533.67L594.33,396C574.5,376.17,561.67,380.83,561.67,410L561.67,497.5L131.17,497.5C109,497.5,100.83,508,100.83,537.17L102,562.83C102,592,110.17,602.5,132.33,602.5L561.67,601.33L561.67,690C561.67,719.17,574.5,723.83,594.33,704Z" fill="currentColor"/><path d="M200,376.17C200,405.33,205.83,411.17,235,411.17C264.17,411.17,270,405.33,270,376.17L270,375C270,285.17,285.17,270,375,270L725,270C814.83,270,830,285.17,830,375L830,725C830,814.83,814.83,830,725,830L375,830C285.17,830,270,814.83,270,725L270,726.17C270,697,264.17,691.17,235,691.17C205.83,691.17,200,697,200,726.17L200,725C200,854.5,245.5,900,375,900L725,900C854.5,900,900,854.5,900,725L900,375C900,245.5,854.5,200,725,200L375,200C245.5,200,200,245.5,200,375Z" fill="currentColor"/></svg>