<svg xmlns="http://www.w3.org/2000/svg" viewBox="0 0 1100 1100"><path d="M760,900C855,900,879,882,900,800L950,600L150,600L200,800C221,882,245,900,340,900Z" fill="currentColor"/><path d="M200,500L500,500L500,427C500,189,200,189,200,427Z" fill="currentColor"/><path d="M300,379L400,379L400,100L300,100Z" fill="currentColor"/><path d="M710,450C710,416,684,390,650,390C616,390,590,416,590,450C590,484,616,511,650,511C684,511,710,484,710,450Z" fill="currentColor"/><path d="M910,450C910,416,884,390,850,390C816,390,790,416,790,450C790,484,816,511,850,511C884,511,910,484,910,450Z" fill="currentColor"/><path d="M810,250C810,216,784,190,750,190C716,190,690,216,690,250C690,284,716,311,750,311C784,311,810,284,810,250Z" fill="currentColor"/></svg>