<svg xmlns="http://www.w3.org/2000/svg" viewBox="0 0 1100 1100"><path d="M150,700C250,832,401,910,550,910C700,910,850,832,950,700L550,190Z" fill="currentColor"/><path d="M585,549C585,513,613,485,650,485C687,485,715,513,715,549C715,586,687,615,650,615C613,615,585,586,585,549Z" fill="currentColor"/><path d="M715,751C715,787,687,815,650,815C613,815,585,787,585,751C585,714,613,685,650,685C687,685,715,714,715,751Z" fill="currentColor"/><path d="M335,649C335,613,363,585,400,585C437,585,465,613,465,649C465,686,437,715,400,715C363,715,335,686,335,649Z" fill="currentColor"/></svg>