<svg xmlns="http://www.w3.org/2000/svg" viewBox="0 0 1100 1100"><path d="M810,600C810,570.78,805.94,542.49,798.36,515.67L685,400L500,400L404.9,304.9C280.31,345.11,190,462.16,190,600C190,771,329,910,500,910C671,910,810,771,810,600Z" fill="currentColor"/><path d="M790,349C790,316,816,290,850,290C884,290,910,316,910,349C910,383,884,410,850,410C816,410,790,383,790,349Z" fill="currentColor"/><path d="M490,249C490,216,516,190,550,190C584,190,610,216,610,249C610,283,584,310,550,310C516,310,490,283,490,249Z" fill="currentColor"/><path d="M690,149C690,116,716,90,750,90C784,90,810,116,810,149C810,183,784,210,750,210C716,210,690,183,690,149Z" fill="currentColor"/><path d="M590,649C590,616,616,590,650,590C684,590,710,616,710,649C710,683,684,710,650,710C616,710,590,683,590,649Z" fill="currentColor"/><path d="M390,749C390,716,416,690,450,690C484,690,510,716,510,749C510,783,484,810,450,810C416,810,390,783,390,749Z" fill="currentColor"/></svg>