<svg xmlns="http://www.w3.org/2000/svg" viewBox="0 0 1100 1100"><path d="M100,200L100,300L700,300L700,200Z" fill="currentColor"/><path d="M300,200C399,600,399,600,650,600C901,600,901,600,1000,200Z" fill="currentColor"/><path d="M715,839C715,820,707,792,650,665C593,792,585,821,585,840C585,880,619,905,650,905C681,905,715,879,715,839Z" fill="currentColor"/><path d="M495,839C495,820,487,792,430,665C373,792,365,821,365,840C365,880,399,905,430,905C461,905,495,879,495,839Z" fill="currentColor"/><path d="M935,839C935,820,927,792,870,665C813,792,805,821,805,840C805,880,839,905,870,905C901,905,935,879,935,839Z" fill="currentColor"/></svg>