<svg xmlns="http://www.w3.org/2000/svg" viewBox="0 0 1100 1100"><path d="M200,760C246,906,246,906,550,906C854,906,854,906,900,760L950,600L150,600Z" fill="currentColor"/><path d="M351,510C384,510,410,484,410,450C410,416,384,390,351,390C317,390,290,416,290,450C290,484,317,510,351,510Z" fill="currentColor"/><path d="M550,511C584,511,610,484,610,450C610,416,584,390,550,390C516,390,490,416,490,450C490,484,516,511,550,511Z" fill="currentColor"/><path d="M750,511C784,511,810,484,810,450C810,416,784,390,750,390C716,390,690,416,690,450C690,484,716,511,750,511Z" fill="currentColor"/><path d="M450,311C484,311,510,284,510,250C510,216,484,190,450,190C416,190,390,216,390,250C390,284,416,311,450,311Z" fill="currentColor"/><path d="M650,311C684,311,710,284,710,250C710,216,684,190,650,190C616,190,590,216,590,250C590,284,616,311,650,311Z" fill="currentColor"/></svg>