<svg xmlns="http://www.w3.org/2000/svg" viewBox="0 0 1100 1100"><path d="M800,400C865,400,900,435,900,500L900,700L200,700L200,500C200,435,235,400,300,400Z" fill="currentColor"/><path d="M610,249C610,235,603,203,550,90C497,203,490,235,490,250C490,287,521,310,550,310C579,310,610,286,610,249Z" fill="currentColor"/><path d="M410,249C410,235,403,203,350,90C297,203,290,235,290,250C290,287,321,310,350,310C379,310,410,286,410,249Z" fill="currentColor"/><path d="M810,249C810,235,803,203,750,90C697,203,690,235,690,250C690,287,721,310,750,310C779,310,810,286,810,249Z" fill="currentColor"/><path d="M100,900L100,800L1000,800L1000,900Z" fill="currentColor"/></svg>