<svg xmlns="http://www.w3.org/2000/svg" viewBox="0 0 1100 1100"><path d="M280,550C280,401.51,401.51,280,550,280C698.49,280,820,401.51,820,550C820,698.49,698.49,820,550,820C401.51,820,280,698.49,280,550Z" fill="currentColor"/><path d="M920,550C920,346.49,753.51,180,550,180C346.49,180,180,346.49,180,550C180,753.51,346.49,920,550,920C753.51,920,920,753.51,920,550Z" fill="currentColor"/><path d="M720,545C720,451.49,643.51,375,550,375C456.49,375,380,451.49,380,545C380,638.51,456.49,715,550,715C643.51,715,720,638.51,720,545Z" fill="currentColor"/><path d="M480,545C480,506.51,511.51,475,550,475C588.49,475,620,506.51,620,545C620,583.49,588.49,615,550,615C511.51,615,480,583.49,480,545Z" fill="currentColor"/></svg>