<svg xmlns="http://www.w3.org/2000/svg" viewBox="0 0 1100 1100"><path d="M500,400L600,400L600,200L500,200Z" fill="currentColor"/><path d="M500,700L500,900L600,900L600,700Z" fill="currentColor"/><path d="M621,409L691,479L833,338L762,267Z" fill="currentColor"/><path d="M409,621L267,762L338,833L479,691Z" fill="currentColor"/><path d="M700,500L700,600L900,600L900,500Z" fill="currentColor"/><path d="M400,500L200,500L200,600L400,600Z" fill="currentColor"/><path d="M691,621L621,691L762,833L833,762Z" fill="currentColor"/><path d="M479,409L338,267L267,338L409,479Z" fill="currentColor"/></svg>