<svg xmlns="http://www.w3.org/2000/svg" viewBox="0 0 1100 1100"><path d="M725,550L900,550L900,375L725,375Z" fill="currentColor"/><path d="M200,725L375,725L375,550L200,550Z" fill="currentColor"/><path d="M375,900L550,900L550,725L375,725Z" fill="currentColor"/><path d="M200,375L375,375L375,200L200,200Z" fill="currentColor"/><path d="M375,550L550,550L550,375L375,375Z" fill="currentColor"/><path d="M550,725L725,725L725,550L550,550Z" fill="currentColor"/><path d="M725,900L900,900L900,725L725,725Z" fill="currentColor"/><path d="M550,375L725,375L725,200L550,200Z" fill="currentColor"/></svg>