<svg xmlns="http://www.w3.org/2000/svg" viewBox="0 0 1100 1100"><path d="M800,729C800,625.69,824.94,600,929,600L1000,600L1000,500L929,500C824.94,500,800,474.31,800,371L800,250L700,250L700,371C700,475.69,675.69,500,571,500L500,500L500,600L571,600C675.69,600,700,624.31,700,729L700,850L800,850Z" fill="currentColor"/><path d="M200.01,399.99C301.67,402.01,301.67,402.01,301,499.66L401,499.66C400.34,402.01,400.34,402.01,501.99,399.99L501,300C401.67,300,401.67,300,401,199.67L301,199.67C300.33,300,300.33,300,201,300Z" fill="currentColor"/><path d="M201,400C274.73,400,321.46,396.62,351,380.04C380.54,396.62,427.27,400,501,400L500.01,300.01C427.27,301.46,380.66,305.51,351,321.33C321.34,305.51,274.73,301.46,201.99,300.01Z" fill="currentColor"/><path d="M100.01,799.99C201.67,802.01,201.67,802.01,201,899.66L301,899.66C300.34,802.01,300.34,802.01,401.99,799.99L401,700C301.67,700,301.67,700,301,599.67L201,599.67C200.33,700,200.33,700,101,700Z" fill="currentColor"/><path d="M101,800C174.73,800,221.46,796.62,251,780.04C280.54,796.62,327.27,800,401,800L400.01,700.01C327.27,701.46,280.66,705.51,251,721.33C221.34,705.51,174.73,701.46,101.99,700.01Z" fill="currentColor"/></svg>