<svg xmlns="http://www.w3.org/2000/svg" viewBox="0 0 1100 1100"><path d="M500,300L600,300L600,200L500,200Z" fill="currentColor"/><path d="M500,800L500,900L600,900L600,800Z" fill="currentColor"/><path d="M691,338L762,409L833,338L762,267Z" fill="currentColor"/><path d="M338,691L267,762L338,833L409,762Z" fill="currentColor"/><path d="M800,500L800,600L900,600L900,500Z" fill="currentColor"/><path d="M300,500L200,500L200,600L300,600Z" fill="currentColor"/><path d="M762,691L691,762L762,833L833,762Z" fill="currentColor"/><path d="M409,338L338,267L267,338L338,409Z" fill="currentColor"/></svg>