<svg xmlns="http://www.w3.org/2000/svg" viewBox="0 0 1100 1100"><path d="M800,900C865,900,900,865,900,800L900,300C900,235,865,200,800,200L300,200C235,200,200,235,200,300L200,800C200,865,235,900,300,900Z" fill="currentColor"/><path d="M285,750C285,715,314,685,350,685C385,685,415,715,415,750C415,786,385,815,350,815C314,815,285,786,285,750Z" fill="currentColor"/><path d="M285,350C285,314,314,285,350,285C385,285,415,314,415,350C415,385,385,415,350,415C314,415,285,385,285,350Z" fill="currentColor"/><path d="M685,750C685,715,715,685,750,685C786,685,815,715,815,750C815,786,786,815,750,815C715,815,685,786,685,750Z" fill="currentColor"/><path d="M685,350C685,314,715,285,750,285C786,285,815,314,815,350C815,385,786,415,750,415C715,415,685,385,685,350Z" fill="currentColor"/></svg>