<svg xmlns="http://www.w3.org/2000/svg" viewBox="0 0 1100 1100"><path d="M248.23,379.27C301.72,342.67,382.2,300,497,300C696.64,300,800,431.86,800,564C800,708.6,671.06,800,519,800C392.9,800,300,740.04,300,643C300,542.94,399.12,500,492,500C568.05,500,600,530.28,600,555C600,575.05,575.72,600,511,600L400,600L400,700L511,700C635.28,700,700,630.35,700,555C700,472.12,624.75,400,492,400C356.88,400,200,474.66,200,643C200,807.56,350.7,900,519,900C720.94,900,900,769.4,900,564C900,384.14,759.36,200,497,200C353.79,200,252.28,255.33,191.77,296.73L150.5,324.96L206.97,407.49Z" fill="currentColor"/></svg>