<svg xmlns="http://www.w3.org/2000/svg" viewBox="0 0 1100 1100"><path d="M800,499C800,414,739,354,689,314C600,244,600,244,600,220L600,100L500,100L500,220C500,245,500,245,411,315C361,355,300,414,300,501C300,635,428,724,548,724C667,724,800,635,800,499Z" fill="currentColor"/><path d="M489,710C489,749.3,434.18,815,381,815C331.87,815,296.04,785.32,258.13,720.7L171.88,771.3C221.97,856.68,286.14,915,381.01,915C494.03,915,589.01,800.1,589.01,710Z" fill="currentColor"/><path d="M843.31,718.4C799.6,784.43,770.71,815,720,815C666.42,815,610.21,748.65,608.98,708.46L509.03,711.54C511.78,800.95,607.59,915,720.01,915C821.3,915,876.41,849.57,926.7,773.6Z" fill="currentColor"/></svg>