<svg xmlns="http://www.w3.org/2000/svg" viewBox="0 0 1100 1100"><path d="M894.32,785.43C818.62,682.2,808,675,550,675C292,675,281.38,682.21,205.68,785.43L286.32,844.57C337.34,775,337.34,775,550,775C762.66,775,762.66,775,813.68,844.57Z" fill="currentColor"/><path d="M200,600L900,600L900,500L200,500Z" fill="currentColor"/><path d="M209.85,319.54C305.94,420.1,317.4,425,550,425C782.6,425,794.06,420.1,890.15,319.54L817.85,250.45C746.62,324.99,746.62,324.99,550,324.99C353.38,324.99,353.38,324.99,282.15,250.45Z" fill="currentColor"/><path d="M720,625L695,385C682,264,637,200,549,200C462,200,418,264,405,385L380,625C362,802,429,900,549,900C669,900,738,802,720,625Z" fill="currentColor"/></svg>