<svg xmlns="http://www.w3.org/2000/svg" viewBox="0 0 1100 1100"><path d="M711,837C767,837,799,910,846,910C876,910,900,891,900,827L900,529C900,292,725,175,550,175C375,175,200,292,200,529L200,827C200,891,224,910,255,910C302,910,333,837,390,837C449,837,478,910,550,910C623,910,652,837,711,837Z" fill="currentColor"/><path d="M340,550C340,517,367,490,400,490C433,490,460,517,460,550C460,583,433,610,400,610C367,610,340,583,340,550Z" fill="currentColor"/><path d="M640,550C640,517,667,490,700,490C733,490,760,517,760,550C760,583,733,610,700,610C667,610,640,583,640,550Z" fill="currentColor"/></svg>