<svg xmlns="http://www.w3.org/2000/svg" viewBox="0 0 1100 1100"><path d="M800,900C865,900,900,865,900,800L900,300C900,235,865,200,800,200L300,200C235,200,200,235,200,300L200,800C200,865,235,900,300,900Z" fill="currentColor"/><path d="M400,810L290,700L400,590L510,700Z" fill="currentColor"/><path d="M565,739C565,706,591,680,625,680C659,680,685,706,685,739C685,773,659,800,625,800C591,800,565,773,565,739Z" fill="currentColor"/><path d="M690,639C690,606,716,580,750,580C784,580,810,606,810,639C810,673,784,700,750,700C716,700,690,673,690,639Z" fill="currentColor"/><path d="M300,500L300,300L800,300L800,500Z" fill="currentColor"/></svg>