<svg xmlns="http://www.w3.org/2000/svg" viewBox="0 0 1100 1100"><path d="M800,900C865,900,900,865,900,800L900,300C900,235,865,200,800,200L300,200C235,200,200,235,200,300L200,800C200,865,235,900,300,900Z" fill="currentColor"/><path d="M285,350C285,314,314,285,350,285C385,285,415,314,415,350C415,385,385,415,350,415C314,415,285,385,285,350Z" fill="currentColor"/><path d="M685,750C685,715,715,685,750,685C786,685,815,715,815,750C815,786,786,815,750,815C715,815,685,786,685,750Z" fill="currentColor"/></svg>