<svg xmlns="http://www.w3.org/2000/svg" viewBox="0 0 1100 1100"><path d="M550,700C659,700,659,808,815,808C965,808,1060,704,1060,556C1060,393,946,300,764,300L336,300C154,300,40,393,40,556C40,704,135,808,283,808C441,808,441,700,550,700Z" fill="currentColor"/><path d="M150,601L150,501L250,501L250,400L350,400L350,501L450,501L450,601L350,601L350,700L250,700L250,601Z" fill="currentColor"/><path d="M750,540C784,540,810,566,810,599C810,633,784,660,750,660C716,660,690,633,690,599C690,566,716,540,750,540Z" fill="currentColor"/><path d="M900,440C934,440,960,466,960,499C960,533,934,560,900,560C866,560,840,533,840,499C840,466,866,440,900,440Z" fill="currentColor"/></svg>