<svg xmlns="http://www.w3.org/2000/svg" viewBox="0 0 1100 1100"><path d="M600,700C665,700,700,665,700,600L700,300C700,235,665,200,600,200L300,200C235,200,200,235,200,300L200,600C200,665,235,700,300,700Z" fill="currentColor"/><path d="M285,350C285,314,314,285,350,285C385,285,415,314,415,350C415,385,385,415,350,415C314,415,285,385,285,350Z" fill="currentColor"/><path d="M485,550C485,514,515,485,550,485C586,485,615,514,615,550C615,585,586,615,550,615C515,615,485,585,485,550Z" fill="currentColor"/><path d="M800,900C865,900,900,865,900,800L900,500C900,435,865,400,800,400L800,400L800,600C800,730,730,800,600,800L400,800L400,800C400,865,435,900,500,900Z" fill="currentColor"/></svg>