<svg xmlns="http://www.w3.org/2000/svg" viewBox="0 0 1100 1100"><path d="M750,850L800,660C809,629,830,608,861,599L1050,550L861,500C830,491,809,470,800,439L750,250L701,439C692,470,671,491,640,500L450,550L640,599C671,608,692,629,701,660Z" fill="currentColor"/><path d="M350,500L385,396C395,366,418,344,448,333L550,300L448,265C418,255,395,232,385,202L350,100L317,202C306,232,284,255,254,265L150,300L253,334C284,344,306,366,316,397Z" fill="currentColor"/><path d="M250,900L285,796C295,766,318,744,348,733L450,700L348,665C318,655,295,632,285,602L250,500L217,602C206,632,184,655,154,665L50,700L153,734C184,744,206,766,216,797Z" fill="currentColor"/></svg>