<svg xmlns="http://www.w3.org/2000/svg" viewBox="0 0 1100 1100"><path d="M913,300C913,224,851,162,775,162C699,162,638,224,638,300C638,376,699,437,775,437C851,437,913,376,913,300Z" fill="currentColor"/><path d="M463,800C463,724,401,662,325,662C249,662,188,724,188,800C188,876,249,937,325,937C401,937,463,876,463,800Z" fill="currentColor"/><path d="M276,800C276,772,298,749,325,749C353,749,376,772,376,800C376,827,353,849,325,849C298,849,276,827,276,800Z" fill="currentColor"/><path d="M375,725L375,375L275,375L275,725Z" fill="currentColor"/><path d="M725,375L725,712C725,732.13,706.85,750,683,750L400,750L400,850L683,850C764.75,850,825,784.6,825,712L825,375Z" fill="currentColor"/><path d="M463,300C463,224,401,162,325,162C249,162,188,224,188,300C188,376,249,437,325,437C401,437,463,376,463,300Z" fill="currentColor"/><path d="M276,300C276,272,298,249,325,249C353,249,376,272,376,300C376,327,353,349,325,349C298,349,276,327,276,300Z" fill="currentColor"/><path d="M726,300C726,272,748,249,775,249C803,249,826,272,826,300C826,327,803,349,775,349C748,349,726,327,726,300Z" fill="currentColor"/></svg>