<svg xmlns="http://www.w3.org/2000/svg" viewBox="0 0 1100 1100"><path d="M687,800C687,742,650,691,599,671L599,600L713,600C783,600,825,559,825,492L825,428C876,408,913,358,913,300C913,224,851,162,775,162C699,162,638,224,638,300C638,358,674,408,725,428L725,492C725,500,725,500,713,500L387,500C375,500,375,500,375,492L375,428C426,408,463,358,463,300C463,224,401,162,325,162C249,162,188,224,188,300C188,358,224,408,275,428L275,492C275,559,317,600,387,600L499,600L499,671C448,692,412,742,412,800C412,876,473,937,549,937C625,937,687,876,687,800Z" fill="currentColor"/><path d="M325,249C353,249,376,272,376,300C376,327,353,349,325,349C298,349,276,327,276,300C276,272,298,249,325,249Z" fill="currentColor"/><path d="M549,749C577,749,600,772,600,800C600,827,577,849,549,849C522,849,500,827,500,800C500,772,522,749,549,749Z" fill="currentColor"/><path d="M775,249C803,249,826,272,826,300C826,327,803,349,775,349C748,349,726,327,726,300C726,272,748,249,775,249Z" fill="currentColor"/></svg>