<svg xmlns="http://www.w3.org/2000/svg" viewBox="0 0 1100 1100"><path d="M463,800C463,742,426,692,375,672L375,612C375,600,375,600,387,600L713,600C783,600,825,558,825,488L825,425C875,404,913,356,913,300C913,224,851,162,775,162C699,162,638,224,638,300C638,361,672,412,725,430L725,488C725,500,725,500,713,500L387,500L375,500L375,428C426,408,463,358,463,300C463,224,401,162,325,162C249,162,188,224,188,300C188,358,224,408,275,428L275,671C224,691,188,742,188,800C188,876,249,937,325,937C401,937,463,876,463,800Z" fill="currentColor"/><path d="M325,749C353,749,376,772,376,800C376,827,353,849,325,849C298,849,276,827,276,800C276,772,298,749,325,749Z" fill="currentColor"/><path d="M325,249C353,249,376,272,376,300C376,327,353,349,325,349C298,349,276,327,276,300C276,272,298,249,325,249Z" fill="currentColor"/><path d="M775,249C803,249,826,272,826,300C826,327,803,349,775,349C748,349,726,327,726,300C726,272,748,249,775,249Z" fill="currentColor"/></svg>