<svg xmlns="http://www.w3.org/2000/svg" viewBox="0 0 1100 1100"><path d="M913,300C913,224,851,162,775,162C699,162,638,224,638,300C638,376,699,437,775,437C851,437,913,376,913,300Z" fill="currentColor"/><path d="M275,375L275,492C275,558.8,317.2,600,387,600L713,600C782.8,600,825,558.8,825,492L825,375L725,375L725,492C725,500,725,500,713,500L387,500C375,500,375,500,375,492L375,375Z" fill="currentColor"/><path d="M463,300C463,224,401,162,325,162C249,162,188,224,188,300C188,376,249,437,325,437C401,437,463,376,463,300Z" fill="currentColor"/><path d="M687,800C687,724,625,662,549,662C473,662,412,724,412,800C412,876,473,937,549,937C625,937,687,876,687,800Z" fill="currentColor"/><path d="M599,725L599,550L499,550L499,725Z" fill="currentColor"/><path d="M500,800C500,772,522,749,549,749C577,749,600,772,600,800C600,827,577,849,549,849C522,849,500,827,500,800Z" fill="currentColor"/><path d="M276,300C276,272,298,249,325,249C353,249,376,272,376,300C376,327,353,349,325,349C298,349,276,327,276,300Z" fill="currentColor"/><path d="M726,300C726,272,748,249,775,249C803,249,826,272,826,300C826,327,803,349,775,349C748,349,726,327,726,300Z" fill="currentColor"/></svg>