<svg xmlns="http://www.w3.org/2000/svg" viewBox="0 0 1100 1100"><path d="M314.1,729.2L450.6,729.2C447.8,783.1,423.3,812.5,383.4,812.5C342.1,812.5,316.9,783.1,314.1,729.2Z" fill="currentColor"/><path d="M293.1,708.2C289.6,783.8,325.3,833.5,383.4,833.5C440.1,833.5,475.1,783.1,471.6,708.2Z" fill="currentColor"/><path d="M301.5,910.5L804.1,910.5L804.1,889.5L563.3,889.5L563.3,461.1L701.2,432.4L651.5,618.6L673.9,618.6L718.7,449.2L761.4,618.6L782.4,618.6L730.6,410L706.8,410L706.8,411.4L706.8,410L370.8,480L368.7,480L368.7,480.7L316.9,688.6L337.9,688.6L380.6,519.2L425.4,688.6L447.8,688.6L396.7,496.1L542.3,465.3L542.3,889.5L301.5,889.5Z" fill="currentColor"/><path d="M628.4,638.2C624.9,713.1,659.2,763.5,715.9,763.5C774.7,763.5,810.4,713.8,806.9,638.2Z" fill="currentColor"/><path d="M785.9,659.2C783.1,713.1,757.9,742.5,715.9,742.5C676,742.5,652.2,713.1,649.4,659.2Z" fill="currentColor"/></svg>