<svg xmlns="http://www.w3.org/2000/svg" viewBox="0 0 1100 1100"><path d="M800,300L900,300L900,200L800,200Z" fill="currentColor"/><path d="M200,900L300,900L300,800L200,800Z" fill="currentColor"/><path d="M200,700L300,700L300,600L200,600Z" fill="currentColor"/><path d="M400,900L500,900L500,800L400,800Z" fill="currentColor"/><path d="M200,500L300,500L300,400L200,400Z" fill="currentColor"/><path d="M400,700L500,700L500,600L400,600Z" fill="currentColor"/><path d="M600,900L700,900L700,800L600,800Z" fill="currentColor"/><path d="M200,300L300,300L300,200L200,200Z" fill="currentColor"/><path d="M400,500L500,500L500,400L400,400Z" fill="currentColor"/><path d="M600,700L700,700L700,600L600,600Z" fill="currentColor"/><path d="M800,900L900,900L900,800L800,800Z" fill="currentColor"/><path d="M400,300L500,300L500,200L400,200Z" fill="currentColor"/><path d="M600,500L700,500L700,400L600,400Z" fill="currentColor"/><path d="M800,700L900,700L900,600L800,600Z" fill="currentColor"/><path d="M600,300L700,300L700,200L600,200Z" fill="currentColor"/><path d="M800,500L900,500L900,400L800,400Z" fill="currentColor"/></svg>