<svg xmlns="http://www.w3.org/2000/svg" viewBox="0 0 1100 1100"><path d="M510,350C510,257.46,442.54,190,350,190C257.46,190,190,257.46,190,350C190,442.54,257.46,510,350,510C442.54,510,510,442.54,510,350Z" fill="currentColor"/><path d="M910,350C910,257.46,842.54,190,750,190C657.46,190,590,257.46,590,350C590,442.54,657.46,510,750,510C842.54,510,910,442.54,910,350Z" fill="currentColor"/><path d="M510,750C510,657.46,442.54,590,350,590C257.46,590,190,657.46,190,750C190,842.54,257.46,910,350,910C442.54,910,510,842.54,510,750Z" fill="currentColor"/><path d="M910,750C910,657.46,842.54,590,750,590C657.46,590,590,657.46,590,750C590,842.54,657.46,910,750,910C842.54,910,910,842.54,910,750Z" fill="currentColor"/></svg>