<svg xmlns="http://www.w3.org/2000/svg" viewBox="0 0 1100 1100"><path d="M800,900L899,900L900,900L900,199L800,199Z" fill="currentColor"/><path d="M310,849C310,817,283,790,250,790C217,790,190,817,190,849C190,883,217,910,250,910C283,910,310,883,310,849Z" fill="currentColor"/><path d="M310,549C310,517,283,490,250,490C217,490,190,517,190,549C190,583,217,610,250,610C283,610,310,583,310,549Z" fill="currentColor"/><path d="M610,849C610,817,583,790,550,790C517,790,490,817,490,849C490,883,517,910,550,910C583,910,610,883,610,849Z" fill="currentColor"/><path d="M310,249C310,217,283,190,250,190C217,190,190,217,190,249C190,283,217,310,250,310C283,310,310,283,310,249Z" fill="currentColor"/><path d="M610,549C610,517,583,490,550,490C517,490,490,517,490,549C490,583,517,610,550,610C583,610,610,583,610,549Z" fill="currentColor"/><path d="M610,249C610,217,583,190,550,190C517,190,490,217,490,249C490,283,517,310,550,310C583,310,610,283,610,249Z" fill="currentColor"/></svg>