<svg xmlns="http://www.w3.org/2000/svg" viewBox="0 0 1100 1100"><path d="M665.97,912.74L626.71,818.26C602.4,822.69,576.76,825,550,825C523.24,825,497.6,822.69,473.29,818.26L434.06,912.67C470.44,920.75,509.24,925,550,925C590.81,925,629.61,920.78,665.97,912.74Z" fill="currentColor"/><path d="M229,550C229,523.74,232.54,498.74,239.27,475.27L145.09,436.23C133.91,471.64,128,509.76,128,550C128,590.27,133.92,628.41,145.11,663.84L239.3,624.82C232.55,601.33,229,576.29,229,549.99Z" fill="currentColor"/><path d="M188.45,753.63C224.8,807.39,276.22,850.77,339.02,880.43L377.74,786.78C340.87,768.18,309.64,743.33,285.46,713.45Z" fill="currentColor"/><path d="M188.62,346.11L285.64,386.33C309.79,356.54,340.96,331.77,377.73,313.22L339.01,219.57C276.31,249.18,224.96,292.47,188.61,346.11Z" fill="currentColor"/><path d="M473.29,281.74C497.6,277.31,523.24,275,550,275C576.76,275,602.4,277.31,626.71,281.74L665.97,187.26C629.61,179.23,590.81,175,550,175C509.24,175,470.44,179.25,434.06,187.33Z" fill="currentColor"/><path d="M761.05,880.61C823.9,851.01,875.26,807.68,911.56,753.97L814.35,713.67C790.2,743.46,759.03,768.23,722.26,786.78Z" fill="currentColor"/><path d="M722.26,313.22C759.13,331.82,790.36,356.67,814.54,386.55L911.74,346.29C875.43,292.46,824,249.04,761.05,219.39Z" fill="currentColor"/><path d="M860.73,624.73L954.99,663.8C966.13,628.38,972,590.26,972,550C972,509.72,966.11,471.57,954.96,436.13L860.7,475.18C867.45,498.67,871,523.71,871,550.01C871,576.27,867.46,601.27,860.73,624.74Z" fill="currentColor"/></svg>