<svg xmlns="http://www.w3.org/2000/svg" viewBox="0 0 1100 1100"><path d="M300,200L800,200L800,100L300,100Z" fill="currentColor"/><path d="M300,1000L800,1000L800,900L300,900Z" fill="currentColor"/><path d="M610,750C610,716,584,690,550,690C516,690,489,716,489,750C489,784,516,810,550,810C584,810,610,784,610,750Z" fill="currentColor"/><path d="M610,550C610,516,584,490,550,490C516,490,489,516,489,550C489,584,516,610,550,610C584,610,610,584,610,550Z" fill="currentColor"/><path d="M610,350C610,316,584,290,550,290C516,290,489,316,489,350C489,384,516,410,550,410C584,410,610,384,610,350Z" fill="currentColor"/></svg>