<svg xmlns="http://www.w3.org/2000/svg" viewBox="0 0 1100 1100"><path d="M900,500L1000,500L1000,350C1000,285,965,250,900,250L800,250L800,350L900,350Z" fill="currentColor"/><path d="M300,850L300,750L200,750L200,600L100,600L100,750C100,815,135,850,200,850Z" fill="currentColor"/><path d="M400,850L700,850L700,750L400,750Z" fill="currentColor"/><path d="M100,500L200,500L200,350L300,350L300,250L200,250C135,250,100,285,100,350Z" fill="currentColor"/><path d="M800,850L900,850C965,850,1000,815,1000,750L1000,600L900,600L900,750L800,750Z" fill="currentColor"/><path d="M400,350L700,350L700,250L400,250Z" fill="currentColor"/></svg>