<svg xmlns="http://www.w3.org/2000/svg" viewBox="0 0 1100 1100"><path d="M377,283C377,229.46,337.54,190,284,190C230.54,190,190,229.38,190,283C190,336.54,230.46,377,284,377C337.62,377,377,336.46,377,283Z" fill="currentColor"/><path d="M377,550C377,496.46,337.54,457,284,457C230.54,457,190,496.38,190,550C190,603.62,230.54,643,284,643C337.54,643,377,603.54,377,550Z" fill="currentColor"/><path d="M377,816C377,762.46,337.54,723,284,723C230.54,723,190,762.38,190,816C190,869.54,230.46,910,284,910C337.62,910,377,869.46,377,816Z" fill="currentColor"/><path d="M643,283C643,229.46,603.54,190,550,190C496.46,190,457,229.46,457,283C457,336.46,496.38,377,550,377C603.62,377,643,336.46,643,283Z" fill="currentColor"/><path d="M643,550C643,496.46,603.54,457,550,457C496.46,457,457,496.46,457,550C457,603.54,496.46,643,550,643C603.54,643,643,603.54,643,550Z" fill="currentColor"/><path d="M643,816C643,762.46,603.54,723,550,723C496.46,723,457,762.46,457,816C457,869.46,496.38,910,550,910C603.62,910,643,869.46,643,816Z" fill="currentColor"/><path d="M910,283C910,229.46,870.54,190,817,190C763.54,190,723,229.38,723,283C723,336.54,763.46,377,817,377C870.62,377,910,336.46,910,283Z" fill="currentColor"/><path d="M910,550C910,496.46,870.54,457,817,457C763.54,457,723,496.38,723,550C723,603.62,763.54,643,817,643C870.54,643,910,603.54,910,550Z" fill="currentColor"/><path d="M910,816C910,762.46,870.54,723,817,723C763.54,723,723,762.38,723,816C723,869.54,763.46,910,817,910C870.62,910,910,869.46,910,816Z" fill="currentColor"/></svg>