<svg xmlns="http://www.w3.org/2000/svg" viewBox="0 0 11 11"><path d="M2,9L7,9L7,6.51C7,4.83,6.04,4.25,4.52,4.25C2.97,4.25,2,4.83,2,6.51Z" fill="#000000"/><path d="M3.5,3.5L5.5,3.5L5.5,2L3.5,2Z" fill="#000000"/><path d="M7.45,2.66C7.45,2.32,7.18,2.05,6.84,2.05C6.52,2.05,6.25,2.32,6.25,2.66C6.25,2.98,6.52,3.25,6.84,3.25C7.18,3.25,7.45,2.98,7.45,2.66Z" fill="#000000"/><path d="M9.03,3.76C9.03,3.42,8.76,3.15,8.42,3.15C8.1,3.15,7.83,3.42,7.83,3.76C7.83,4.08,8.1,4.35,8.42,4.35C8.76,4.35,9.03,4.08,9.03,3.76Z" fill="#000000"/><path d="M9.03,1.76C9.03,1.42,8.76,1.15,8.42,1.15C8.1,1.15,7.83,1.42,7.83,1.76C7.83,2.08,8.1,2.35,8.42,2.35C8.76,2.35,9.03,2.08,9.03,1.76Z" fill="#000000"/></svg>