<svg xmlns="http://www.w3.org/2000/svg" viewBox="0 0 1100 1100"><path d="M200,367L296.24,367L467,537.56L467,633L562.56,633L733,803.24L733,900L829.88,900L930,1000L1000,930L171,100L100,171L200,270.88Z" fill="currentColor"/><path d="M200,633L367,633L367,467L200,467Z" fill="currentColor"/><path d="M200,900L367,900L367,733L200,733Z" fill="currentColor"/><path d="M467,900L633,900L633,733L467,733Z" fill="currentColor"/><path d="M733,367L900,367L900,200L733,200Z" fill="currentColor"/><path d="M467,255L579,367L633,367L633,200L467,200Z" fill="currentColor"/><path d="M733,521L845,633L900,633L900,467L733,467Z" fill="currentColor"/></svg>