<svg xmlns="http://www.w3.org/2000/svg" viewBox="0 0 1100 1100"><path d="M500,700L600,700L600,600L700,600L700,500L600,500L600,400L500,400L500,500L400,500L400,600L500,600Z" fill="currentColor"/><path d="M290,550C290,409.3,407.72,290,550,290C690.49,290,810,409.51,810,550C810,691.49,691.49,810,550,810C407.82,810,290,689.8,290,550Z" fill="currentColor"/><path d="M910,550C910,354.49,745.51,190,550,190C352.28,190,190,354.7,190,550C190,744.2,352.18,910,550,910C746.51,910,910,746.51,910,550Z" fill="currentColor"/><path d="M1000,930L815,745L744,815L929,1000Z" fill="currentColor"/></svg>