<svg xmlns="http://www.w3.org/2000/svg" viewBox="0 0 1100 1100"><path d="M600,900L900,900L900,200L600,200Z" fill="currentColor"/><path d="M310,850C310,817,283,790,250,790C217,790,190,817,190,850C190,883,217,910,250,910C283,910,310,883,310,850Z" fill="currentColor"/><path d="M310,650C310,617,283,590,250,590C217,590,190,617,190,650C190,683,217,710,250,710C283,710,310,683,310,650Z" fill="currentColor"/><path d="M310,450C310,417,283,390,250,390C217,390,190,417,190,450C190,483,217,510,250,510C283,510,310,483,310,450Z" fill="currentColor"/><path d="M310,250C310,217,283,190,250,190C217,190,190,217,190,250C190,283,217,310,250,310C283,310,310,283,310,250Z" fill="currentColor"/><path d="M510,850C510,817,483,790,450,790C417,790,390,817,390,850C390,883,417,910,450,910C483,910,510,883,510,850Z" fill="currentColor"/><path d="M510,250C510,217,483,190,450,190C417,190,390,217,390,250C390,283,417,310,450,310C483,310,510,283,510,250Z" fill="currentColor"/></svg>