<svg xmlns="http://www.w3.org/2000/svg" viewBox="0 0 1100 1100"><path d="M900,500L900,200L200,200L200,500Z" fill="currentColor"/><path d="M850,790C817,790,790,817,790,850C790,883,817,910,850,910C883,910,910,883,910,850C910,817,883,790,850,790Z" fill="currentColor"/><path d="M650,790C617,790,590,817,590,850C590,883,617,910,650,910C683,910,710,883,710,850C710,817,683,790,650,790Z" fill="currentColor"/><path d="M450,790C417,790,390,817,390,850C390,883,417,910,450,910C483,910,510,883,510,850C510,817,483,790,450,790Z" fill="currentColor"/><path d="M250,790C217,790,190,817,190,850C190,883,217,910,250,910C283,910,310,883,310,850C310,817,283,790,250,790Z" fill="currentColor"/><path d="M850,590C817,590,790,617,790,650C790,683,817,710,850,710C883,710,910,683,910,650C910,617,883,590,850,590Z" fill="currentColor"/><path d="M250,590C217,590,190,617,190,650C190,683,217,710,250,710C283,710,310,683,310,650C310,617,283,590,250,590Z" fill="currentColor"/></svg>