<svg xmlns="http://www.w3.org/2000/svg" viewBox="0 0 1100 1100"><path d="M300,413L85,550L300,688Z" fill="currentColor"/><path d="M790,250C790,284,817,310,851,310C884,310,910,284,910,250C910,216,884,190,851,190C817,190,790,216,790,250Z" fill="currentColor"/><path d="M790,550C790,584,817,610,851,610C884,610,910,584,910,550C910,516,884,490,851,490C817,490,790,516,790,550Z" fill="currentColor"/><path d="M490,250C490,284,516,310,550,310C584,310,610,284,610,250C610,216,584,190,550,190C516,190,490,216,490,250Z" fill="currentColor"/><path d="M790,850C790,884,817,910,851,910C884,910,910,884,910,850C910,816,884,790,851,790C817,790,790,816,790,850Z" fill="currentColor"/><path d="M190,250C190,284,217,310,251,310C284,310,310,284,310,250C310,216,284,190,251,190C217,190,190,216,190,250Z" fill="currentColor"/><path d="M490,849C490,883,516,910,550,910C584,910,610,883,610,849C610,815,584,790,550,790C516,790,490,815,490,849Z" fill="currentColor"/><path d="M190,849C190,883,217,909,251,909C284,909,310,883,310,849C310,815,284,790,251,790C217,790,190,815,190,849Z" fill="currentColor"/></svg>