<svg xmlns="http://www.w3.org/2000/svg" viewBox="0 0 1100 1100"><path d="M660,550C660,488,612,440,552,440C489,440,440,488,440,550C440,612,489,660,552,660C612,660,660,612,660,550Z" fill="currentColor"/><path d="M350,600L350,500L100,500L100,600Z" fill="currentColor"/><path d="M406.81,401.69L493.41,351.69L368.41,135.18L281.81,185.18Z" fill="currentColor"/><path d="M606.81,351.69L693.41,401.69L818.41,185.18L731.81,135.18Z" fill="currentColor"/><path d="M750,500L750,600L1000,600L1000,500Z" fill="currentColor"/><path d="M693.19,698.31L606.59,748.31L731.59,964.82L818.19,914.82Z" fill="currentColor"/><path d="M493.19,748.31L406.59,698.31L281.59,914.82L368.19,964.82Z" fill="currentColor"/></svg>