<svg xmlns="http://www.w3.org/2000/svg" viewBox="0 0 1100 1100"><path d="M200,900L900,900L900,200L200,200Z" fill="currentColor"/><path d="M300,800L300,700L400,700L400,800Z" fill="currentColor"/><path d="M500,800L500,700L600,700L600,800Z" fill="currentColor"/><path d="M300,600L300,500L400,500L400,600Z" fill="currentColor"/><path d="M700,800L700,700L800,700L800,800Z" fill="currentColor"/><path d="M500,600L500,500L600,500L600,600Z" fill="currentColor"/><path d="M300,400L300,300L400,300L400,400Z" fill="currentColor"/><path d="M700,600L700,500L800,500L800,600Z" fill="currentColor"/><path d="M500,400L500,300L600,300L600,400Z" fill="currentColor"/><path d="M700,400L700,300L800,300L800,400Z" fill="currentColor"/></svg>