<svg xmlns="http://www.w3.org/2000/svg" viewBox="0 0 1100 1100"><path d="M271,900L691,480C745,426,674,355,620,409L200,829Z" fill="currentColor"/><path d="M509,399C510,365,484,340,449,340C415,340,390,365,391,400C391,434,415,459,451,459C484,460,509,434,509,399Z" fill="currentColor"/><path d="M760,650C760,616,735,590,700,592C666,592,640,618,641,652C641,686,665,710,700,709C734,709,760,685,760,650Z" fill="currentColor"/><path d="M660,250C660,216,634,190,600,190C565,191,540,215,540,250C540,283,566,309,601,310C635,310,660,285,660,250Z" fill="currentColor"/><path d="M910,499C909,467,884,441,850,441C816,440,790,465,790,500C790,534,815,560,850,559C883,560,909,535,910,499Z" fill="currentColor"/><path d="M860,299C858,266,834,240,800,240C765,241,740,267,741,300C741,334,765,360,800,358C834,359,860,334,860,299Z" fill="currentColor"/></svg>