<svg xmlns="http://www.w3.org/2000/svg" viewBox="0 0 1100 1100"><path d="M200,300L901,300L901,200L200,200L200,201Z" fill="currentColor"/><path d="M251,910C283,910,310,883,310,850C310,817,283,790,251,790C217,790,190,817,190,850C190,883,217,910,251,910Z" fill="currentColor"/><path d="M551,910C583,910,610,883,610,850C610,817,583,790,551,790C517,790,490,817,490,850C490,883,517,910,551,910Z" fill="currentColor"/><path d="M251,610C283,610,310,583,310,550C310,517,283,490,251,490C217,490,190,517,190,550C190,583,217,610,251,610Z" fill="currentColor"/><path d="M851,910C883,910,910,883,910,850C910,817,883,790,851,790C817,790,790,817,790,850C790,883,817,910,851,910Z" fill="currentColor"/><path d="M551,610C583,610,610,583,610,550C610,517,583,490,551,490C517,490,490,517,490,550C490,583,517,610,551,610Z" fill="currentColor"/><path d="M851,610C883,610,910,583,910,550C910,517,883,490,851,490C817,490,790,517,790,550C790,583,817,610,851,610Z" fill="currentColor"/></svg>