<svg xmlns="http://www.w3.org/2000/svg" viewBox="0 0 1100 1100"><path d="M387,900L713,900L550,700Z" fill="currentColor"/><path d="M251,610C284,610,310,584,310,550C310,516,284,490,251,490C217,490,190,516,190,550C190,584,217,610,251,610Z" fill="currentColor"/><path d="M387,200L550,400L713,200Z" fill="currentColor"/><path d="M450,611C484,611,510,584,510,550C510,516,484,490,450,490C416,490,390,516,390,550C390,584,416,611,450,611Z" fill="currentColor"/><path d="M851,610C884,610,910,584,910,550C910,516,884,490,851,490C817,490,790,516,790,550C790,584,817,610,851,610Z" fill="currentColor"/><path d="M650,611C684,611,710,584,710,550C710,516,684,490,650,490C616,490,590,516,590,550C590,584,616,611,650,611Z" fill="currentColor"/></svg>