<svg xmlns="http://www.w3.org/2000/svg" viewBox="0 0 1100 1100"><path d="M350,450L150,450L150,650L350,650Z" fill="currentColor"/><path d="M850,190C817,190,790,217,790,251C790,283,817,310,850,310C883,310,910,283,910,251C910,217,883,190,850,190Z" fill="currentColor"/><path d="M550,190C517,190,490,217,490,251C490,283,517,310,550,310C583,310,610,283,610,251C610,217,583,190,550,190Z" fill="currentColor"/><path d="M849,490C817,490,790,517,790,550C790,583,817,610,849,610C883,610,910,583,910,550C910,517,883,490,849,490Z" fill="currentColor"/><path d="M551,490C517,490,490,517,490,550C490,583,517,610,551,610C583,610,610,583,610,550C610,517,583,490,551,490Z" fill="currentColor"/><path d="M850,790C817,790,790,817,790,849C790,883,817,910,850,910C883,910,910,883,910,849C910,817,883,790,850,790Z" fill="currentColor"/><path d="M250,190C217,190,190,217,190,251C190,283,217,310,250,310C283,310,310,283,310,251C310,217,283,190,250,190Z" fill="currentColor"/><path d="M550,790C517,790,490,817,490,849C490,883,517,910,550,910C583,910,610,883,610,849C610,817,583,790,550,790Z" fill="currentColor"/><path d="M250,790C217,790,190,817,190,849C190,883,217,910,250,910C283,910,310,883,310,849C310,817,283,790,250,790Z" fill="currentColor"/></svg>