<svg xmlns="http://www.w3.org/2000/svg" viewBox="0 0 1100 1100"><path d="M500,900L599,900L600,900L600,199L500,199Z" fill="currentColor"/><path d="M310,849C310,816,284,790,250,790C216,790,190,816,190,849C190,883,216,910,250,910C284,910,310,883,310,849Z" fill="currentColor"/><path d="M310,549C310,516,284,490,250,490C216,490,190,516,190,549C190,583,216,610,250,610C284,610,310,583,310,549Z" fill="currentColor"/><path d="M310,249C310,216,284,190,250,190C216,190,190,216,190,249C190,283,216,310,250,310C284,310,310,283,310,249Z" fill="currentColor"/><path d="M910,849C910,816,884,790,850,790C816,790,790,816,790,849C790,883,816,910,850,910C884,910,910,883,910,849Z" fill="currentColor"/><path d="M910,549C910,516,884,490,850,490C816,490,790,516,790,549C790,583,816,610,850,610C884,610,910,583,910,549Z" fill="currentColor"/><path d="M910,249C910,216,884,190,850,190C816,190,790,216,790,249C790,283,816,310,850,310C884,310,910,283,910,249Z" fill="currentColor"/></svg>