<svg xmlns="http://www.w3.org/2000/svg" viewBox="0 0 1100 1100"><path d="M660,550C660,488,612,440,552,440C489,440,440,488,440,550C440,612,489,660,552,660C612,660,660,612,660,550Z" fill="currentColor"/><path d="M350,600L350,500L150,500L150,600Z" fill="currentColor"/><path d="M406.81,401.69L493.41,351.69L393.41,178.48L306.81,228.48Z" fill="currentColor"/><path d="M750,500L750,600L950,600L950,500Z" fill="currentColor"/><path d="M606.81,351.69L693.41,401.69L793.41,228.48L706.81,178.48Z" fill="currentColor"/><path d="M693.19,698.31L606.59,748.31L706.59,921.52L793.19,871.52Z" fill="currentColor"/><path d="M493.19,748.31L406.59,698.31L306.59,871.52L393.19,921.52Z" fill="currentColor"/></svg>