<svg xmlns="http://www.w3.org/2000/svg" viewBox="0 0 1100 1100"><path d="M150,850L950,850L950,250L150,250Z" fill="currentColor"/><path d="M275,750L275,690C275,608,314,580,425,580C537,580,575,609,575,691L575,750Z" fill="currentColor"/><path d="M675,750L675,580C774,580,825,608,825,690L825,750Z" fill="currentColor"/><path d="M350,450C350,409,383,375,426,375C466,375,500,409,500,450C500,492,466,525,426,525C383,525,350,492,350,450Z" fill="currentColor"/><path d="M600,450C600,409,634,375,674,375C717,375,750,409,750,450C750,492,717,525,674,525C634,525,600,492,600,450Z" fill="currentColor"/></svg>