<svg xmlns="http://www.w3.org/2000/svg" viewBox="0 0 1100 1100"><path d="M500,900L600,900L600,600L900,600L900,500L600,500L600,200L500,200L500,500L200,500L200,600L500,600Z" fill="currentColor"/><path d="M310,850C310,816,284,790,251,790C217,790,190,816,190,850C190,884,217,910,251,910C284,910,310,884,310,850Z" fill="currentColor"/><path d="M310,250C310,216,284,190,251,190C217,190,190,216,190,250C190,284,217,310,251,310C284,310,310,284,310,250Z" fill="currentColor"/><path d="M910,850C910,816,884,790,851,790C817,790,790,816,790,850C790,884,817,910,851,910C884,910,910,884,910,850Z" fill="currentColor"/><path d="M910,250C910,216,884,190,851,190C817,190,790,216,790,250C790,284,817,310,851,310C884,310,910,284,910,250Z" fill="currentColor"/></svg>