<svg xmlns="http://www.w3.org/2000/svg" viewBox="0 0 1100 1100"><path d="M900,800L199,800L199,900L900,900L900,899Z" fill="currentColor"/><path d="M849,190C817,190,790,217,790,250C790,283,817,310,849,310C883,310,910,283,910,250C910,217,883,190,849,190Z" fill="currentColor"/><path d="M549,190C517,190,490,217,490,250C490,283,517,310,549,310C583,310,610,283,610,250C610,217,583,190,549,190Z" fill="currentColor"/><path d="M849,490C817,490,790,517,790,550C790,583,817,610,849,610C883,610,910,583,910,550C910,517,883,490,849,490Z" fill="currentColor"/><path d="M249,190C217,190,190,217,190,250C190,283,217,310,249,310C283,310,310,283,310,250C310,217,283,190,249,190Z" fill="currentColor"/><path d="M549,490C517,490,490,517,490,550C490,583,517,610,549,610C583,610,610,583,610,550C610,517,583,490,549,490Z" fill="currentColor"/><path d="M249,490C217,490,190,517,190,550C190,583,217,610,249,610C283,610,310,583,310,550C310,517,283,490,249,490Z" fill="currentColor"/></svg>