<svg xmlns="http://www.w3.org/2000/svg" viewBox="0 0 1100 1100"><path d="M310,650C310,617,283,590,250,590C217,590,190,617,190,650C190,683,217,710,250,710C283,710,310,683,310,650Z" fill="currentColor"/><path d="M310,450C310,417,283,390,250,390C217,390,190,417,190,450C190,483,217,510,250,510C283,510,310,483,310,450Z" fill="currentColor"/><path d="M310,250C310,217,283,190,250,190C217,190,190,217,190,250C190,283,217,310,250,310C283,310,310,283,310,250Z" fill="currentColor"/><path d="M200,900L800,900L800,800L200,800Z" fill="currentColor"/><path d="M700,1050L950,850L700,650Z" fill="currentColor"/><path d="M859,600L510,200L642,200L989,600Z" fill="currentColor"/><path d="M641,600L511,600L858,200L990,200Z" fill="currentColor"/></svg>