<svg xmlns="http://www.w3.org/2000/svg" viewBox="0 0 1100 1100"><path d="M50,400L450,400L250,150Z" fill="currentColor"/><path d="M510,850C510,817,483,790,450,790C417,790,390,817,390,850C390,883,417,910,450,910C483,910,510,883,510,850Z" fill="currentColor"/><path d="M300,900L300,300L200,300L200,900Z" fill="currentColor"/><path d="M710,850C710,817,683,790,650,790C617,790,590,817,590,850C590,883,617,910,650,910C683,910,710,883,710,850Z" fill="currentColor"/><path d="M910,850C910,817,883,790,850,790C817,790,790,817,790,850C790,883,817,910,850,910C883,910,910,883,910,850Z" fill="currentColor"/><path d="M700,700L700,479L492,200L616,200L750,379L884,200L1008,200L800,479L800,700Z" fill="currentColor"/></svg>