<svg xmlns="http://www.w3.org/2000/svg" viewBox="0 0 1100 1100"><path d="M200,900L900,900L900,400L200,400Z" fill="currentColor"/><path d="M311,250C311,216.46,284.54,190,251,190C217.46,190,191,216.46,191,250C191,283.54,217.46,310,251,310C284.54,310,311,283.54,311,250Z" fill="currentColor"/><path d="M511,250C511,216.46,484.54,190,451,190C417.46,190,391,216.46,391,250C391,283.54,417.46,310,451,310C484.54,310,511,283.54,511,250Z" fill="currentColor"/><path d="M711,250C711,216.46,684.54,190,651,190C617.46,190,591,216.46,591,250C591,283.54,617.46,310,651,310C684.54,310,711,283.54,711,250Z" fill="currentColor"/><path d="M911,250C911,216.46,884.54,190,851,190C817.46,190,791,216.46,791,250C791,283.54,817.46,310,851,310C884.54,310,911,283.54,911,250Z" fill="currentColor"/></svg>