<svg xmlns="http://www.w3.org/2000/svg" viewBox="0 0 1100 1100"><path d="M596,550C596,525,576,505,551,505C526,505,506,525,506,550C506,575,526,595,551,595C576,595,596,575,596,550Z" fill="currentColor"/><path d="M249,675C263,675,274,664,274,650C274,636,263,625,249,625C235,625,224,636,224,650C224,664,235,675,249,675Z" fill="currentColor"/><path d="M249,475C263,475,274,464,274,450C274,436,263,425,249,425C235,425,224,436,224,450C224,464,235,475,249,475Z" fill="currentColor"/><path d="M299,825C313,825,324,814,324,800C324,786,313,775,299,775C285,775,274,786,274,800C274,814,285,825,299,825Z" fill="currentColor"/><path d="M299,325C313,325,324,314,324,300C324,286,313,275,299,275C285,275,274,286,274,300C274,314,285,325,299,325Z" fill="currentColor"/><path d="M375,585C394,585,410,569,410,550C410,531,394,515,375,515C356,515,340,531,340,550C340,569,356,585,375,585Z" fill="currentColor"/><path d="M450,876C464,876,475,865,475,851C475,837,464,826,450,826C436,826,425,837,425,851C425,865,436,876,450,876Z" fill="currentColor"/><path d="M450,274C464,274,475,263,475,249C475,235,464,224,450,224C436,224,425,235,425,249C425,263,436,274,450,274Z" fill="currentColor"/><path d="M465,735C484,735,500,719,500,700C500,681,484,665,465,665C446,665,430,681,430,700C430,719,446,735,465,735Z" fill="currentColor"/><path d="M465,435C484,435,500,419,500,400C500,381,484,365,465,365C446,365,430,381,430,400C430,419,446,435,465,435Z" fill="currentColor"/><path d="M635,735C654,735,670,719,670,700C670,681,654,665,635,665C616,665,600,681,600,700C600,719,616,735,635,735Z" fill="currentColor"/><path d="M635,435C654,435,670,419,670,400C670,381,654,365,635,365C616,365,600,381,600,400C600,419,616,435,635,435Z" fill="currentColor"/><path d="M650,876C664,876,675,865,675,851C675,837,664,826,650,826C636,826,625,837,625,851C625,865,636,876,650,876Z" fill="currentColor"/><path d="M650,274C664,274,675,263,675,249C675,235,664,224,650,224C636,224,625,235,625,249C625,263,636,274,650,274Z" fill="currentColor"/><path d="M725,585C744,585,760,569,760,550C760,531,744,515,725,515C706,515,690,531,690,550C690,569,706,585,725,585Z" fill="currentColor"/><path d="M801,825C815,825,826,814,826,800C826,786,815,775,801,775C787,775,776,786,776,800C776,814,787,825,801,825Z" fill="currentColor"/><path d="M801,325C815,325,826,314,826,300C826,286,815,275,801,275C787,275,776,286,776,300C776,314,787,325,801,325Z" fill="currentColor"/><path d="M851,675C865,675,876,664,876,650C876,636,865,625,851,625C837,625,826,636,826,650C826,664,837,675,851,675Z" fill="currentColor"/><path d="M851,475C865,475,876,464,876,450C876,436,865,425,851,425C837,425,826,436,826,450C826,464,837,475,851,475Z" fill="currentColor"/></svg>