<svg xmlns="http://www.w3.org/2000/svg" viewBox="0 0 1100 1100"><path d="M935.36,464.64L635.36,164.64L564.65,235.35L864.65,535.35Z" fill="currentColor"/><path d="M635.36,535.36L935.36,235.36L864.65,164.65L564.65,464.65Z" fill="currentColor"/><path d="M450,900L450,800L300,800L300,650L200,650L200,800C200,865,235,900,300,900Z" fill="currentColor"/><path d="M200,550L300,550L300,400L400,400L400,300L300,300C235,300,200,335,200,400Z" fill="currentColor"/><path d="M550,900L700,900C765,900,800,865,800,800L800,650L700,650L700,800L550,800Z" fill="currentColor"/></svg>