<svg xmlns="http://www.w3.org/2000/svg" viewBox="0 0 1100 1100"><path d="M390,550C390,461.51,461.51,390,550,390C638.49,390,710,461.51,710,550C710,638.49,638.49,710,550,710C461.51,710,390,638.49,390,550Z" fill="currentColor"/><path d="M810,550C810,406.49,693.51,290,550,290C406.49,290,290,406.49,290,550C290,693.51,406.49,810,550,810C693.51,810,810,693.51,810,550Z" fill="currentColor"/><path d="M340,500L200,500L200,600L340,600Z" fill="currentColor"/><path d="M600,900L600,760L500,760L500,900Z" fill="currentColor"/><path d="M900,500L760,500L760,600L900,600Z" fill="currentColor"/><path d="M600,340L600,200L500,200L500,340Z" fill="currentColor"/></svg>