<svg xmlns="http://www.w3.org/2000/svg" viewBox="0 0 1100 1100"><path d="M356,673C392.49,673,427,707.51,427,744C427,780.49,392.49,815,356,815C319.51,815,285,780.49,285,744C285,707.51,319.51,673,356,673Z" fill="currentColor"/><path d="M356,915C447.51,915,527,835.51,527,744C527,725.02,523.58,706.56,517.34,689.22L295.51,581.59C222.84,621.8,185,664.65,185,744C185,835.51,264.49,915,356,915Z" fill="currentColor"/><path d="M554.62,461.15L671.46,517.81L970.72,381.5L929.27,290.5Z" fill="currentColor"/><path d="M970.73,718.5L397.75,457.51C303.23,414.38,285.01,397.88,285.01,356.01L185.01,356.01C185.01,455.14,244.06,497.3,356.27,548.51L929.29,809.52Z" fill="currentColor"/><path d="M285,356C285,319.51,319.51,285,356,285C392.49,285,427,319.51,427,356C427,392.49,392.49,427,356,427C319.51,427,285,392.49,285,356Z" fill="currentColor"/><path d="M527,356C527,264.49,447.51,185,356,185C264.49,185,185,264.49,185,356C185,447.51,264.49,527,356,527C447.51,527,527,447.51,527,356Z" fill="currentColor"/></svg>