<svg xmlns="http://www.w3.org/2000/svg" viewBox="0 0 1100 1100"><path d="M1000,825L1000,900L1100,900L1100,500L1000,500L1000,575C973,527,927,495,866,495C762,495,690,588,690,700C690,812,762,905,867,905C929,905,973,872,1000,825Z" fill="currentColor"/><path d="M-4,900L104,900L185,700L515,700L596,900L704,900L422,200L279,200Z" fill="currentColor"/><path d="M225,600L347,300L354,300L475,600Z" fill="currentColor"/><path d="M889,593C949,593,985,630,985,700C985,770,949,807,889,807C828,807,790,768,790,700C790,632,828,593,889,593Z" fill="currentColor"/></svg>