<svg xmlns="http://www.w3.org/2000/svg" viewBox="0 0 1100 1100"><path d="M900,900L900,200L600,200L600,900Z" fill="currentColor"/><path d="M509,850C509,816.46,482.54,790,449,790C415.46,790,389,816.46,389,850C389,883.54,415.46,910,449,910C482.54,910,509,883.54,509,850Z" fill="currentColor"/><path d="M309,850C309,816.46,282.54,790,249,790C215.46,790,189,816.46,189,850C189,883.54,215.46,910,249,910C282.54,910,309,883.54,309,850Z" fill="currentColor"/><path d="M509,250C509,216.46,482.54,190,449,190C415.46,190,389,216.46,389,250C389,283.54,415.46,310,449,310C482.54,310,509,283.54,509,250Z" fill="currentColor"/><path d="M309,250C309,216.46,282.54,190,249,190C215.46,190,189,216.46,189,250C189,283.54,215.46,310,249,310C282.54,310,309,283.54,309,250Z" fill="currentColor"/><path d="M900,500L300,500L300,600L900,600Z" fill="currentColor"/><path d="M300,390L100,550L300,710Z" fill="currentColor"/></svg>