<svg xmlns="http://www.w3.org/2000/svg" viewBox="0 0 1100 1100"><path d="M910,550C910,516,883,490,849,490C815,490,789,516,789,550C789,584,815,610,849,610C883,610,910,584,910,550Z" fill="currentColor"/><path d="M311,849C311,816,285,790,251,790C217,790,191,816,191,849C191,883,217,910,251,910C285,910,311,883,311,849Z" fill="currentColor"/><path d="M610,849C610,816,584,790,550,790C516,790,490,816,490,849C490,883,516,910,550,910C584,910,610,883,610,849Z" fill="currentColor"/><path d="M311,550C311,516,285,490,251,490C217,490,190,516,190,550C190,584,217,610,251,610C285,610,311,584,311,550Z" fill="currentColor"/><path d="M909,849C909,816,883,790,849,790C815,790,789,816,789,849C789,883,815,910,849,910C883,910,909,883,909,849Z" fill="currentColor"/><path d="M611,550C611,516,584,490,550,490C516,490,490,516,490,550C490,584,516,610,550,610C584,610,611,584,611,550Z" fill="currentColor"/><path d="M311,249C311,216,285,190,251,190C217,190,191,216,191,249C191,283,217,310,251,310C285,310,311,283,311,249Z" fill="currentColor"/><path d="M610,249C610,216,584,190,550,190C516,190,490,216,490,249C490,283,516,310,550,310C584,310,610,283,610,249Z" fill="currentColor"/><path d="M909,249C909,216,883,190,849,190C815,190,789,216,789,249C789,283,815,310,849,310C883,310,909,283,909,249Z" fill="currentColor"/></svg>