<svg xmlns="http://www.w3.org/2000/svg" viewBox="0 0 11 11"><path d="M1.83,3.92C1.88,3.91,1.94,3.91,1.99,3.91C2.31,3.91,2.59,3.99,2.84,4.13C3.12,3.58,3.58,3.13,4.13,2.84C3.99,2.6,3.91,2.31,3.91,1.99C3.91,1.94,3.91,1.88,3.92,1.83C2.98,2.24,2.23,2.99,1.83,3.92Z" fill="#000000"/><path d="M3.92,9.16C3.91,9.11,3.91,9.06,3.91,9.01C3.91,8.69,3.99,8.4,4.13,8.16C3.59,7.87,3.14,7.43,2.86,6.88C2.61,7.03,2.32,7.11,1.99,7.11C1.95,7.11,1.9,7.11,1.86,7.11C2.27,8.02,3,8.76,3.92,9.16Z" fill="#000000"/><path d="M6.89,8.16C7.03,8.4,7.11,8.69,7.11,9.01C7.11,9.06,7.11,9.12,7.1,9.17C8.02,8.76,8.76,8.03,9.17,7.1C9.11,7.11,9.06,7.11,9.01,7.11C8.69,7.11,8.4,7.03,8.16,6.89C7.87,7.43,7.43,7.88,6.89,8.16Z" fill="#000000"/><path d="M8.18,4.12C8.42,3.99,8.7,3.91,9.01,3.91C9.07,3.91,9.13,3.91,9.19,3.92C8.79,2.99,8.04,2.24,7.1,1.83C7.11,1.88,7.11,1.94,7.11,1.99C7.11,2.31,7.03,2.59,6.89,2.84C7.44,3.12,7.9,3.57,8.18,4.12Z" fill="#000000"/><path d="M6.19,2C6.19,1.61,5.88,1.3,5.49,1.3C5.1,1.3,4.79,1.61,4.79,2C4.79,2.39,5.1,2.7,5.49,2.7C5.88,2.7,6.19,2.39,6.19,2Z" fill="#000000"/><path d="M4.79,9C4.79,9.39,5.1,9.7,5.49,9.7C5.88,9.7,6.19,9.39,6.19,9C6.19,8.61,5.88,8.3,5.49,8.3C5.1,8.3,4.79,8.61,4.79,9Z" fill="#000000"/><path d="M9,6.19C9.39,6.19,9.7,5.88,9.7,5.49C9.7,5.1,9.39,4.79,9,4.79C8.61,4.79,8.3,5.1,8.3,5.49C8.3,5.88,8.61,6.19,9,6.19Z" fill="#000000"/><path d="M2,4.79C1.61,4.79,1.3,5.1,1.3,5.49C1.3,5.88,1.61,6.19,2,6.19C2.39,6.19,2.7,5.88,2.7,5.49C2.7,5.1,2.39,4.79,2,4.79Z" fill="#000000"/></svg>