<svg xmlns="http://www.w3.org/2000/svg" viewBox="0 0 1100 1100"><path d="M183.09,391.7C188.3,391.23,193.61,391,199,391C230.68,391,259.45,398.89,283.63,412.93C312.14,357.97,357.59,312.55,413,283.76C398.92,259.56,391,230.74,391,199.01C391,193.67,391.23,188.42,391.69,183.25C298.43,223.95,223.31,299.04,183.09,391.72Z" fill="currentColor"/><path d="M391.67,916.47C391.23,911.39,391,906.23,391,901C391,869.13,398.99,840.2,413.19,815.93C359.02,787.41,314.34,742.62,285.69,687.85C261.09,702.65,231.58,711,199,711C194.51,711,190.07,710.83,185.7,710.51C226.5,802.49,300.39,876.22,391.67,916.47Z" fill="currentColor"/><path d="M688.92,816.11C703.06,840.34,711,869.21,711,901C711,906.3,710.77,911.53,710.32,916.67C801.96,876.43,875.84,802.52,916.54,710.33C911.44,710.77,906.26,711,901.01,711C869.17,711,840.25,703.03,816,688.85C787.4,743.29,742.94,787.77,688.93,816.11Z" fill="currentColor"/><path d="M818.06,411.96C841.88,398.53,870.06,391,901,391C907.16,391,913.21,391.31,919.14,391.92C879.03,299.01,803.92,223.73,710.29,183.04C710.76,188.27,711,193.6,711,199C711,230.65,703.12,259.41,689.1,283.58C744.36,312.19,789.59,357.32,818.06,411.96Z" fill="currentColor"/><path d="M619,200C619,161.12,587.88,130,549,130C510.12,130,479,161.12,479,200C479,238.88,510.12,270,549,270C587.88,270,619,238.88,619,200Z" fill="currentColor"/><path d="M479,900C479,938.88,510.12,970,549,970C587.88,970,619,938.88,619,900C619,861.12,587.88,830,549,830C510.12,830,479,861.12,479,900Z" fill="currentColor"/><path d="M900,619C938.88,619,970,587.88,970,549C970,510.12,938.88,479,900,479C861.12,479,830,510.12,830,549C830,587.88,861.12,619,900,619Z" fill="currentColor"/><path d="M200,479C161.12,479,130,510.12,130,549C130,587.88,161.12,619,200,619C238.88,619,270,587.88,270,549C270,510.12,238.88,479,200,479Z" fill="currentColor"/></svg>