<svg xmlns="http://www.w3.org/2000/svg" viewBox="0 0 1100 1100"><path d="M400,700L700,700L700,400L400,400Z" fill="currentColor"/><path d="M310,850C310,817,283,790,250,790C217,790,190,817,190,850C190,883,217,910,250,910C283,910,310,883,310,850Z" fill="currentColor"/><path d="M310,650C310,617,283,590,250,590C217,590,190,617,190,650C190,683,217,710,250,710C283,710,310,683,310,650Z" fill="currentColor"/><path d="M510,850C510,817,483,790,450,790C417,790,390,817,390,850C390,883,417,910,450,910C483,910,510,883,510,850Z" fill="currentColor"/><path d="M310,450C310,417,283,390,250,390C217,390,190,417,190,450C190,483,217,510,250,510C283,510,310,483,310,450Z" fill="currentColor"/><path d="M710,850C710,817,683,790,650,790C617,790,590,817,590,850C590,883,617,910,650,910C683,910,710,883,710,850Z" fill="currentColor"/><path d="M310,250C310,217,283,190,250,190C217,190,190,217,190,250C190,283,217,310,250,310C283,310,310,283,310,250Z" fill="currentColor"/><path d="M910,850C910,817,883,790,850,790C817,790,790,817,790,850C790,883,817,910,850,910C883,910,910,883,910,850Z" fill="currentColor"/><path d="M510,250C510,217,483,190,450,190C417,190,390,217,390,250C390,283,417,310,450,310C483,310,510,283,510,250Z" fill="currentColor"/><path d="M910,650C910,617,883,590,850,590C817,590,790,617,790,650C790,683,817,710,850,710C883,710,910,683,910,650Z" fill="currentColor"/><path d="M910,450C910,417,883,390,850,390C817,390,790,417,790,450C790,483,817,510,850,510C883,510,910,483,910,450Z" fill="currentColor"/><path d="M710,250C710,217,683,190,650,190C617,190,590,217,590,250C590,283,617,310,650,310C683,310,710,283,710,250Z" fill="currentColor"/><path d="M910,250C910,217,883,190,850,190C817,190,790,217,790,250C790,283,817,310,850,310C883,310,910,283,910,250Z" fill="currentColor"/></svg>