<svg xmlns="http://www.w3.org/2000/svg" viewBox="0 0 1100 1100"><path d="M799,915L735,824C703,778,700,764,700,714L700,200L900,200L900,714C900,769,893,782,863,824Z" fill="currentColor"/><path d="M650,800L420,800C348.93,800,300,777.87,300,718C300,678.37,318.62,656.96,369.97,600.67C420.62,544.96,476,485.43,476,397C476,274.55,371.49,200,250,200L200,200L200,300L250,300C324.91,300,376,337.85,376,397C376,444.58,345.38,479.05,296.03,533.33C243.52,590.89,200,637.82,200,718C200,847.93,308.87,900,420,900L650,900Z" fill="currentColor"/></svg>