<svg xmlns="http://www.w3.org/2000/svg" viewBox="0 0 1100 1100"><path d="M800,700C865,700,900,665,900,600L900,300C900,235,865,200,800,200L300,200C235,200,200,235,200,300L200,600C200,665,235,700,300,700Z" fill="currentColor"/><path d="M191,850C191,883.54,217.46,910,251,910C284.54,910,311,883.54,311,850C311,816.46,284.54,790,251,790C217.46,790,191,816.46,191,850Z" fill="currentColor"/><path d="M391,850C391,883.54,417.46,910,451,910C484.54,910,511,883.54,511,850C511,816.46,484.54,790,451,790C417.46,790,391,816.46,391,850Z" fill="currentColor"/><path d="M591,850C591,883.54,617.46,910,651,910C684.54,910,711,883.54,711,850C711,816.46,684.54,790,651,790C617.46,790,591,816.46,591,850Z" fill="currentColor"/><path d="M791,850C791,883.54,817.46,910,851,910C884.54,910,911,883.54,911,850C911,816.46,884.54,790,851,790C817.46,790,791,816.46,791,850Z" fill="currentColor"/></svg>