<svg xmlns="http://www.w3.org/2000/svg" viewBox="0 0 1100 1100"><path d="M544,838C574,744,591,736,750,736C861,736,925,654,925,550C925,348,769,185,552,185C330,185,175,348,175,546C175,762,361,900,473,900C516,900,529,887,544,838Z" fill="currentColor"/><path d="M288,560C288,525,316,497,351,497C386,497,414,525,414,560C414,595,386,623,351,623C316,623,288,595,288,560Z" fill="currentColor"/><path d="M382,365C382,330,410,302,445,302C480,302,508,330,508,365C508,400,480,428,445,428C410,428,382,400,382,365Z" fill="currentColor"/><path d="M688,560C688,525,716,497,751,497C786,497,814,525,814,560C814,595,786,623,751,623C716,623,688,595,688,560Z" fill="currentColor"/><path d="M592,365C592,330,620,302,655,302C690,302,718,330,718,365C718,400,690,428,655,428C620,428,592,400,592,365Z" fill="currentColor"/></svg>