<svg xmlns="http://www.w3.org/2000/svg" viewBox="0 0 1100 1100"><path d="M311,250C311,217,284,190,251,190C218,190,191,217,191,250C191,283,218,310,251,310C284,310,311,283,311,250Z" fill="currentColor"/><path d="M251,910C284,910,311,883,311,850C311,817,284,790,251,790C218,790,191,817,191,850C191,883,218,910,251,910Z" fill="currentColor"/><path d="M251,610C284,610,311,583,311,550C311,517,284,490,251,490C218,490,191,517,191,550C191,583,218,610,251,610Z" fill="currentColor"/><path d="M351,755C381,755,406,730,406,700C406,670,381,645,351,645C321,645,296,670,296,700C296,730,321,755,351,755Z" fill="currentColor"/><path d="M351,455C381,455,406,430,406,400C406,370,381,345,351,345C321,345,296,370,296,400C296,430,321,455,351,455Z" fill="currentColor"/><path d="M451,895C476,895,496,875,496,850C496,825,476,805,451,805C426,805,406,825,406,850C406,875,426,895,451,895Z" fill="currentColor"/><path d="M451,595C476,595,496,575,496,550C496,525,476,505,451,505C426,505,406,525,406,550C406,575,426,595,451,595Z" fill="currentColor"/><path d="M451,295C476,295,496,275,496,250C496,225,476,205,451,205C426,205,406,225,406,250C406,275,426,295,451,295Z" fill="currentColor"/><path d="M551,735C570,735,586,719,586,700C586,681,570,665,551,665C532,665,516,681,516,700C516,719,532,735,551,735Z" fill="currentColor"/><path d="M551,435C570,435,586,419,586,400C586,381,570,365,551,365C532,365,516,381,516,400C516,419,532,435,551,435Z" fill="currentColor"/><path d="M651,885C670,885,686,869,686,850C686,831,670,815,651,815C632,815,616,831,616,850C616,869,632,885,651,885Z" fill="currentColor"/><path d="M651,585C670,585,686,569,686,550C686,531,670,515,651,515C632,515,616,531,616,550C616,569,632,585,651,585Z" fill="currentColor"/><path d="M651,285C670,285,686,269,686,250C686,231,670,215,651,215C632,215,616,231,616,250C616,269,632,285,651,285Z" fill="currentColor"/><path d="M751,725C765,725,776,714,776,700C776,686,765,675,751,675C737,675,726,686,726,700C726,714,737,725,751,725Z" fill="currentColor"/><path d="M751,425C765,425,776,414,776,400C776,386,765,375,751,375C737,375,726,386,726,400C726,414,737,425,751,425Z" fill="currentColor"/><path d="M851,875C865,875,876,864,876,850C876,836,865,825,851,825C837,825,826,836,826,850C826,864,837,875,851,875Z" fill="currentColor"/><path d="M851,575C865,575,876,564,876,550C876,536,865,525,851,525C837,525,826,536,826,550C826,564,837,575,851,575Z" fill="currentColor"/><path d="M851,275C865,275,876,264,876,250C876,236,865,225,851,225C837,225,826,236,826,250C826,264,837,275,851,275Z" fill="currentColor"/></svg>