<svg xmlns="http://www.w3.org/2000/svg" viewBox="0 0 1100 1100"><path d="M687,300L550,85L412,300Z" fill="currentColor"/><path d="M850,790C816,790,790,817,790,851C790,884,816,910,850,910C884,910,910,884,910,851C910,817,884,790,850,790Z" fill="currentColor"/><path d="M550,790C516,790,490,817,490,851C490,884,516,910,550,910C584,910,610,884,610,851C610,817,584,790,550,790Z" fill="currentColor"/><path d="M850,490C816,490,790,516,790,550C790,584,816,610,850,610C884,610,910,584,910,550C910,516,884,490,850,490Z" fill="currentColor"/><path d="M250,790C216,790,190,817,190,851C190,884,216,910,250,910C284,910,310,884,310,851C310,817,284,790,250,790Z" fill="currentColor"/><path d="M850,190C816,190,790,217,790,251C790,284,816,310,850,310C884,310,910,284,910,251C910,217,884,190,850,190Z" fill="currentColor"/><path d="M251,490C217,490,190,516,190,550C190,584,217,610,251,610C285,610,310,584,310,550C310,516,285,490,251,490Z" fill="currentColor"/><path d="M251,190C217,190,191,217,191,251C191,284,217,310,251,310C285,310,310,284,310,251C310,217,285,190,251,190Z" fill="currentColor"/></svg>