<svg xmlns="http://www.w3.org/2000/svg" viewBox="0 0 1100 1100"><path d="M900,800L1000,800L1000,300L900,300Z" fill="currentColor"/><path d="M100,800L200,800L200,300L100,300Z" fill="currentColor"/><path d="M410,550C410,516,384,490,350,490C316,490,290,516,290,550C290,584,316,611,350,611C384,611,410,584,410,550Z" fill="currentColor"/><path d="M610,550C610,516,584,490,550,490C516,490,490,516,490,550C490,584,516,611,550,611C584,611,610,584,610,550Z" fill="currentColor"/><path d="M810,550C810,516,784,490,750,490C716,490,690,516,690,550C690,584,716,611,750,611C784,611,810,584,810,550Z" fill="currentColor"/></svg>