<svg xmlns="http://www.w3.org/2000/svg" viewBox="0 0 1100 1100"><path d="M200,900L700,900L700,651C700,483,604,425,452,425C297,425,200,483,200,651Z" fill="currentColor"/><path d="M350,350L550,350L550,200L350,200Z" fill="currentColor"/><path d="M745,266C745,232,718,205,684,205C652,205,625,232,625,266C625,298,652,325,684,325C718,325,745,298,745,266Z" fill="currentColor"/><path d="M903,376C903,342,876,315,842,315C810,315,783,342,783,376C783,408,810,435,842,435C876,435,903,408,903,376Z" fill="currentColor"/><path d="M903,176C903,142,876,115,842,115C810,115,783,142,783,176C783,208,810,235,842,235C876,235,903,208,903,176Z" fill="currentColor"/></svg>