<svg xmlns="http://www.w3.org/2000/svg" viewBox="0 0 1100 1100"><path d="M200,900L900,900L900,200L200,200Z" fill="currentColor"/><path d="M300,800L300,300L800,300L800,800Z" fill="currentColor"/><path d="M710,650C710,617,683,590,650,590C617,590,590,617,590,650C590,683,617,710,650,710C683,710,710,683,710,650Z" fill="currentColor"/><path d="M710,450C710,417,683,390,650,390C617,390,590,417,590,450C590,483,617,510,650,510C683,510,710,483,710,450Z" fill="currentColor"/><path d="M510,650C510,617,483,590,450,590C417,590,390,617,390,650C390,683,417,710,450,710C483,710,510,683,510,650Z" fill="currentColor"/><path d="M510,450C510,417,483,390,450,390C417,390,390,417,390,450C390,483,417,510,450,510C483,510,510,483,510,450Z" fill="currentColor"/></svg>