<svg xmlns="http://www.w3.org/2000/svg" viewBox="0 0 1100 1100"><path d="M450,750L450,950L650,950L650,750Z" fill="currentColor"/><path d="M190,250C190,283,217,310,251,310C283,310,310,283,310,250C310,217,283,190,251,190C217,190,190,217,190,250Z" fill="currentColor"/><path d="M190,550C190,583,217,610,251,610C283,610,310,583,310,550C310,517,283,490,251,490C217,490,190,517,190,550Z" fill="currentColor"/><path d="M490,251C490,283,517,310,550,310C583,310,610,283,610,251C610,217,583,190,550,190C517,190,490,217,490,251Z" fill="currentColor"/><path d="M490,549C490,583,517,610,550,610C583,610,610,583,610,549C610,517,583,490,550,490C517,490,490,517,490,549Z" fill="currentColor"/><path d="M790,250C790,283,817,310,849,310C883,310,910,283,910,250C910,217,883,190,849,190C817,190,790,217,790,250Z" fill="currentColor"/><path d="M190,850C190,883,217,910,251,910C283,910,310,883,310,850C310,817,283,790,251,790C217,790,190,817,190,850Z" fill="currentColor"/><path d="M790,550C790,583,817,610,849,610C883,610,910,583,910,550C910,517,883,490,849,490C817,490,790,517,790,550Z" fill="currentColor"/><path d="M790,850C790,883,817,910,849,910C883,910,910,883,910,850C910,817,883,790,849,790C817,790,790,817,790,850Z" fill="currentColor"/></svg>