<svg xmlns="http://www.w3.org/2000/svg" viewBox="0 0 1100 1100"><path d="M800,700L899,700L900,700L900,400L800,400Z" fill="currentColor"/><path d="M319,850C319,811.12,287.88,780,249,780C210.12,780,179,811.12,179,850C179,888.88,210.12,920,249,920C287.88,920,319,888.88,319,850Z" fill="currentColor"/><path d="M200,700L201,700L300,700L300,400L200,400Z" fill="currentColor"/><path d="M400,900L700,900L700,800L400,800L400,899Z" fill="currentColor"/><path d="M319,250C319,211.12,287.88,180,249,180C210.12,180,179,211.12,179,250C179,288.88,210.12,320,249,320C287.88,320,319,288.88,319,250Z" fill="currentColor"/><path d="M921,850C921,811.12,889.88,780,851,780C812.12,780,781,811.12,781,850C781,888.88,812.12,920,851,920C889.88,920,921,888.88,921,850Z" fill="currentColor"/><path d="M400,300L700,300L700,200L400,200L400,201Z" fill="currentColor"/><path d="M921,250C921,211.12,889.88,180,851,180C812.12,180,781,211.12,781,250C781,288.88,812.12,320,851,320C889.88,320,921,288.88,921,250Z" fill="currentColor"/></svg>