<svg xmlns="http://www.w3.org/2000/svg" viewBox="0 0 1100 1100"><path d="M300,800L800,800L800,300L300,300Z" fill="currentColor"/><path d="M410,950C410,917,383,890,350,890C317,890,290,917,290,950C290,983,317,1010,350,1010C383,1010,410,983,410,950Z" fill="currentColor"/><path d="M210,750C210,717,183,690,150,690C117,690,90,717,90,750C90,783,117,810,150,810C183,810,210,783,210,750Z" fill="currentColor"/><path d="M810,950C810,917,783,890,750,890C717,890,690,917,690,950C690,983,717,1010,750,1010C783,1010,810,983,810,950Z" fill="currentColor"/><path d="M210,350C210,317,183,290,150,290C117,290,90,317,90,350C90,383,117,410,150,410C183,410,210,383,210,350Z" fill="currentColor"/><path d="M400,600L400,500L700,500L700,600Z" fill="currentColor"/><path d="M410,150C410,117,383,90,350,90C317,90,290,117,290,150C290,183,317,210,350,210C383,210,410,183,410,150Z" fill="currentColor"/><path d="M1010,750C1010,717,983,690,950,690C917,690,890,717,890,750C890,783,917,810,950,810C983,810,1010,783,1010,750Z" fill="currentColor"/><path d="M810,150C810,117,783,90,750,90C717,90,690,117,690,150C690,183,717,210,750,210C783,210,810,183,810,150Z" fill="currentColor"/><path d="M1010,350C1010,317,983,290,950,290C917,290,890,317,890,350C890,383,917,410,950,410C983,410,1010,383,1010,350Z" fill="currentColor"/></svg>