<svg xmlns="http://www.w3.org/2000/svg" viewBox="0 0 1100 1100"><path d="M200,900L900,900L900,600L200,600Z" fill="currentColor"/><path d="M250,509C283.54,509,310,482.54,310,449C310,415.46,283.54,389,250,389C216.46,389,190,415.46,190,449C190,482.54,216.46,509,250,509Z" fill="currentColor"/><path d="M250,309C283.54,309,310,282.54,310,249C310,215.46,283.54,189,250,189C216.46,189,190,215.46,190,249C190,282.54,216.46,309,250,309Z" fill="currentColor"/><path d="M850,509C883.54,509,910,482.54,910,449C910,415.46,883.54,389,850,389C816.46,389,790,415.46,790,449C790,482.54,816.46,509,850,509Z" fill="currentColor"/><path d="M850,309C883.54,309,910,282.54,910,249C910,215.46,883.54,189,850,189C816.46,189,790,215.46,790,249C790,282.54,816.46,309,850,309Z" fill="currentColor"/><path d="M600,900L600,300L500,300L500,900Z" fill="currentColor"/><path d="M710,300L550,100L390,300Z" fill="currentColor"/></svg>