<svg xmlns="http://www.w3.org/2000/svg" viewBox="0 0 11 11"><path d="M7,4L4,4L4,5L7,5Z" fill="#000000"/><path d="M6,6L4,6L4,7L6,7Z" fill="#000000"/><path d="M9.1,8.5C9.1,8.16,8.83,7.9,8.49,7.9C8.16,7.9,7.9,8.16,7.9,8.5C7.9,8.84,8.16,9.1,8.49,9.1C8.83,9.1,9.1,8.84,9.1,8.5Z" fill="#000000"/><path d="M3.1,8.5C3.1,8.16,2.83,7.9,2.49,7.9C2.16,7.9,1.9,8.16,1.9,8.5C1.9,8.84,2.16,9.1,2.49,9.1C2.83,9.1,3.1,8.84,3.1,8.5Z" fill="#000000"/><path d="M3.1,2.5C3.1,2.16,2.83,1.9,2.49,1.9C2.16,1.9,1.9,2.16,1.9,2.5C1.9,2.84,2.16,3.1,2.49,3.1C2.83,3.1,3.1,2.84,3.1,2.5Z" fill="#000000"/><path d="M9.1,2.51C9.1,2.17,8.83,1.91,8.49,1.91C8.16,1.91,7.9,2.17,7.9,2.51C7.9,2.85,8.16,3.1,8.49,3.1C8.83,3.1,9.1,2.85,9.1,2.51Z" fill="#000000"/></svg>