<svg xmlns="http://www.w3.org/2000/svg" viewBox="0 0 1100 1100"><path d="M800,687L1015,550L800,412Z" fill="currentColor"/><path d="M310,850C310,816,283,790,249,790C216,790,190,816,190,850C190,884,216,910,249,910C283,910,310,884,310,850Z" fill="currentColor"/><path d="M310,550C310,516,283,490,249,490C216,490,190,516,190,550C190,584,216,610,249,610C283,610,310,584,310,550Z" fill="currentColor"/><path d="M610,850C610,816,584,790,550,790C516,790,490,816,490,850C490,884,516,910,550,910C584,910,610,884,610,850Z" fill="currentColor"/><path d="M310,250C310,216,283,190,249,190C216,190,190,216,190,250C190,284,216,310,249,310C283,310,310,284,310,250Z" fill="currentColor"/><path d="M910,850C910,816,883,790,849,790C816,790,790,816,790,850C790,884,816,910,849,910C883,910,910,884,910,850Z" fill="currentColor"/><path d="M610,251C610,217,584,190,550,190C516,190,490,217,490,251C490,285,516,310,550,310C584,310,610,285,610,251Z" fill="currentColor"/><path d="M910,251C910,217,883,191,849,191C816,191,790,217,790,251C790,285,816,310,849,310C883,310,910,285,910,251Z" fill="currentColor"/></svg>