<svg xmlns="http://www.w3.org/2000/svg" viewBox="0 0 1100 1100"><path d="M860,301C860,267,834,240,800,240C766,240,740,267,740,301C740,335,766,361,800,361C834,361,860,335,860,301Z" fill="currentColor"/><path d="M360,799C360,765,334,739,300,739C266,739,240,765,240,799C240,833,266,860,300,860C334,860,360,833,360,799Z" fill="currentColor"/><path d="M610,889C610,855,584,829,550,829C516,829,490,855,490,889C490,923,516,950,550,950C584,950,610,923,610,889Z" fill="currentColor"/><path d="M271,550C271,516,245,490,211,490C177,490,150,516,150,550C150,584,177,610,211,610C245,610,271,584,271,550Z" fill="currentColor"/><path d="M360,301C360,267,334,240,300,240C266,240,240,267,240,301C240,335,266,361,300,361C334,361,360,335,360,301Z" fill="currentColor"/><path d="M860,799C860,765,834,739,800,739C766,739,740,765,740,799C740,833,766,860,800,860C834,860,860,833,860,799Z" fill="currentColor"/><path d="M950,550C950,516,923,490,889,490C855,490,829,516,829,550C829,584,855,610,889,610C923,610,950,584,950,550Z" fill="currentColor"/><path d="M610,211C610,177,584,150,550,150C516,150,490,177,490,211C490,245,516,271,550,271C584,271,610,245,610,211Z" fill="currentColor"/></svg>