<svg xmlns="http://www.w3.org/2000/svg" viewBox="0 0 1100 1100"><path d="M200,900L700,900L700,700L400,700L400,400L200,400Z" fill="currentColor"/><path d="M910,650C910,617,883,590,850,590C817,590,790,617,790,650C790,683,817,710,850,710C883,710,910,683,910,650Z" fill="currentColor"/><path d="M510,250C510,217,483,190,450,190C417,190,390,217,390,250C390,283,417,310,450,310C483,310,510,283,510,250Z" fill="currentColor"/><path d="M910,450C910,417,883,390,850,390C817,390,790,417,790,450C790,483,817,510,850,510C883,510,910,483,910,450Z" fill="currentColor"/><path d="M710,250C710,217,683,190,650,190C617,190,590,217,590,250C590,283,617,310,650,310C683,310,710,283,710,250Z" fill="currentColor"/><path d="M910,250C910,217,883,190,850,190C817,190,790,217,790,250C790,283,817,310,850,310C883,310,910,283,910,250Z" fill="currentColor"/></svg>