<svg xmlns="http://www.w3.org/2000/svg" viewBox="0 0 1100 1100"><path d="M600,775L600,325C585,322,570,320,554,320C422,320,320,420,320,550C320,680,422,780,554,780C570,780,585,778,600,775Z" fill="currentColor"/><path d="M426,744L356,674L267,762L338,833Z" fill="currentColor"/><path d="M600,775L500,775L500,900L600,900Z" fill="currentColor"/><path d="M325,600L325,500L200,500L200,600Z" fill="currentColor"/><path d="M500,670C453,650,420,605,420,550C420,495,453,450,500,430Z" fill="currentColor"/><path d="M356,426L426,356L338,267L267,338Z" fill="currentColor"/><path d="M744,674L674,744L762,833L833,762Z" fill="currentColor"/><path d="M500,325L600,325L600,200L500,200Z" fill="currentColor"/><path d="M775,500L775,600L900,600L900,500Z" fill="currentColor"/><path d="M674,356L744,426L833,338L762,267Z" fill="currentColor"/></svg>