<svg xmlns="http://www.w3.org/2000/svg" viewBox="0 0 1100 1100"><path d="M700,400L400,400L400,500L700,500Z" fill="currentColor"/><path d="M600,600L400,600L400,700L600,700Z" fill="currentColor"/><path d="M910,850C910,816,883,790,849,790C816,790,790,816,790,850C790,884,816,910,849,910C883,910,910,884,910,850Z" fill="currentColor"/><path d="M310,850C310,816,283,790,249,790C216,790,190,816,190,850C190,884,216,910,249,910C283,910,310,884,310,850Z" fill="currentColor"/><path d="M310,250C310,216,283,190,249,190C216,190,190,216,190,250C190,284,216,310,249,310C283,310,310,284,310,250Z" fill="currentColor"/><path d="M910,251C910,217,883,191,849,191C816,191,790,217,790,251C790,285,816,310,849,310C883,310,910,285,910,251Z" fill="currentColor"/></svg>