<svg xmlns="http://www.w3.org/2000/svg" viewBox="0 0 1100 1100"><path d="M401,700L701,700L701,400L401,400Z" fill="currentColor"/><path d="M310,850C310,816.46,283.54,790,250,790C216.46,790,190,816.46,190,850C190,883.54,216.46,910,250,910C283.54,910,310,883.54,310,850Z" fill="currentColor"/><path d="M510,850C510,816.46,483.54,790,450,790C416.46,790,390,816.46,390,850C390,883.54,416.46,910,450,910C483.54,910,510,883.54,510,850Z" fill="currentColor"/><path d="M310,650C310,616.46,283.54,590,250,590C216.46,590,190,616.46,190,650C190,683.54,216.46,710,250,710C283.54,710,310,683.54,310,650Z" fill="currentColor"/><path d="M710,850C710,816.46,683.54,790,650,790C616.46,790,590,816.46,590,850C590,883.54,616.46,910,650,910C683.54,910,710,883.54,710,850Z" fill="currentColor"/><path d="M310,450C310,416.46,283.54,390,250,390C216.46,390,190,416.46,190,450C190,483.54,216.46,510,250,510C283.54,510,310,483.54,310,450Z" fill="currentColor"/><path d="M311,250C311,216.46,284.54,190,251,190C217.46,190,191,216.46,191,250C191,283.54,217.46,310,251,310C284.54,310,311,283.54,311,250Z" fill="currentColor"/><path d="M911,850C911,816.46,884.54,790,851,790C817.46,790,791,816.46,791,850C791,883.54,817.46,910,851,910C884.54,910,911,883.54,911,850Z" fill="currentColor"/><path d="M511,250C511,216.46,484.54,190,451,190C417.46,190,391,216.46,391,250C391,283.54,417.46,310,451,310C484.54,310,511,283.54,511,250Z" fill="currentColor"/><path d="M911,650C911,616.46,884.54,590,851,590C817.46,590,791,616.46,791,650C791,683.54,817.46,710,851,710C884.54,710,911,683.54,911,650Z" fill="currentColor"/><path d="M711,250C711,216.46,684.54,190,651,190C617.46,190,591,216.46,591,250C591,283.54,617.46,310,651,310C684.54,310,711,283.54,711,250Z" fill="currentColor"/><path d="M911,450C911,416.46,884.54,390,851,390C817.46,390,791,416.46,791,450C791,483.54,817.46,510,851,510C884.54,510,911,483.54,911,450Z" fill="currentColor"/><path d="M911,250C911,216.46,884.54,190,851,190C817.46,190,791,216.46,791,250C791,283.54,817.46,310,851,310C884.54,310,911,283.54,911,250Z" fill="currentColor"/></svg>