<svg xmlns="http://www.w3.org/2000/svg" viewBox="0 0 1100 1100"><path d="M750,650L950,650L950,450L750,450Z" fill="currentColor"/><path d="M250,910C283,910,310,883,310,849C310,817,283,790,250,790C217,790,190,817,190,849C190,883,217,910,250,910Z" fill="currentColor"/><path d="M550,910C583,910,610,883,610,849C610,817,583,790,550,790C517,790,490,817,490,849C490,883,517,910,550,910Z" fill="currentColor"/><path d="M251,610C283,610,310,583,310,550C310,517,283,490,251,490C217,490,190,517,190,550C190,583,217,610,251,610Z" fill="currentColor"/><path d="M549,610C583,610,610,583,610,550C610,517,583,490,549,490C517,490,490,517,490,550C490,583,517,610,549,610Z" fill="currentColor"/><path d="M250,310C283,310,310,283,310,251C310,217,283,190,250,190C217,190,190,217,190,251C190,283,217,310,250,310Z" fill="currentColor"/><path d="M850,910C883,910,910,883,910,849C910,817,883,790,850,790C817,790,790,817,790,849C790,883,817,910,850,910Z" fill="currentColor"/><path d="M550,310C583,310,610,283,610,251C610,217,583,190,550,190C517,190,490,217,490,251C490,283,517,310,550,310Z" fill="currentColor"/><path d="M850,310C883,310,910,283,910,251C910,217,883,190,850,190C817,190,790,217,790,251C790,283,817,310,850,310Z" fill="currentColor"/></svg>