<svg xmlns="http://www.w3.org/2000/svg" viewBox="0 0 1100 1100"><path d="M900,200L200,200L200,500L900,500Z" fill="currentColor"/><path d="M850,591C816.46,591,790,617.46,790,651C790,684.54,816.46,711,850,711C883.54,711,910,684.54,910,651C910,617.46,883.54,591,850,591Z" fill="currentColor"/><path d="M850,791C816.46,791,790,817.46,790,851C790,884.54,816.46,911,850,911C883.54,911,910,884.54,910,851C910,817.46,883.54,791,850,791Z" fill="currentColor"/><path d="M250,591C216.46,591,190,617.46,190,651C190,684.54,216.46,711,250,711C283.54,711,310,684.54,310,651C310,617.46,283.54,591,250,591Z" fill="currentColor"/><path d="M250,791C216.46,791,190,817.46,190,851C190,884.54,216.46,911,250,911C283.54,911,310,884.54,310,851C310,817.46,283.54,791,250,791Z" fill="currentColor"/><path d="M500,200L500,800L600,800L600,200Z" fill="currentColor"/><path d="M390,800L550,1000L710,800Z" fill="currentColor"/></svg>