<svg xmlns="http://www.w3.org/2000/svg" viewBox="0 0 1100 1100"><path d="M400,700L900,700L900,200L400,200Z" fill="currentColor"/><path d="M310,850C310,817,283,790,250,790C217,790,190,817,190,850C190,883,217,910,250,910C283,910,310,883,310,850Z" fill="currentColor"/><path d="M510,850C510,817,483,790,450,790C417,790,390,817,390,850C390,883,417,910,450,910C483,910,510,883,510,850Z" fill="currentColor"/><path d="M310,650C310,617,283,590,250,590C217,590,190,617,190,650C190,683,217,710,250,710C283,710,310,683,310,650Z" fill="currentColor"/><path d="M710,850C710,817,683,790,650,790C617,790,590,817,590,850C590,883,617,910,650,910C683,910,710,883,710,850Z" fill="currentColor"/><path d="M310,450C310,417,283,390,250,390C217,390,190,417,190,450C190,483,217,510,250,510C283,510,310,483,310,450Z" fill="currentColor"/></svg>