<svg xmlns="http://www.w3.org/2000/svg" viewBox="0 0 1100 1100"><path d="M763,482C809,436,809,386,763,340L622,199C576,153,526,153,480,199L268,410C222,456,222,506,268,552L409,693C455,739,505,739,551,693Z" fill="currentColor"/><path d="M310,850C310,813,287,790,250,790C213,790,190,813,190,850C190,887,213,910,250,910C289,910,310,887,310,850Z" fill="currentColor"/><path d="M510,850C510,813,487,790,450,790C413,790,390,813,390,850C390,887,413,910,450,910C489,910,510,887,510,850Z" fill="currentColor"/><path d="M710,850C710,813,687,790,650,790C613,790,590,813,590,850C590,887,613,910,650,910C689,910,710,887,710,850Z" fill="currentColor"/><path d="M481,622L338,482L409,411L551,551Z" fill="currentColor"/><path d="M910,850C910,813,887,790,850,790C813,790,790,813,790,850C790,887,813,910,850,910C889,910,910,887,910,850Z" fill="currentColor"/></svg>