<svg xmlns="http://www.w3.org/2000/svg" viewBox="0 0 1100 1100"><path d="M398,850L702,850C721,885,758,910,800,910C861,910,910,860,910,800C910,757,886,720,850,702L850,398C886,380,910,342,910,300C910,239,861,190,800,190C758,190,720,214,702,250L398,250C380,214,343,190,300,190C240,190,190,239,190,300C190,342,215,379,250,398L250,702C215,720,190,757,190,800C190,860,240,910,300,910C343,910,380,885,398,850Z" fill="currentColor"/><path d="M350,398C371,387,387,370,398,350L702,350C713,370,730,387,750,398L750,702C730,713,713,729,702,750L398,750C388,729,371,712,350,702Z" fill="currentColor"/></svg>