<svg xmlns="http://www.w3.org/2000/svg" viewBox="0 0 1100 1100"><path d="M556,900C625,900,702,818,726,717L802,793C851,744,847,632,792,544L900,544C900,475,818,398,717,374L793,298C770,275,734,264,692,264C645,264,591,279,544,308L544,200C475,200,398,282,374,383L298,307C249,356,253,468,308,556L200,556C200,625,282,702,383,726L307,802C356,851,468,847,556,792Z" fill="currentColor"/><path d="M487,550C487,515,515,487,550,487C585,487,613,515,613,550C613,585,585,613,550,613C515,613,487,585,487,550Z" fill="currentColor"/></svg>