<svg xmlns="http://www.w3.org/2000/svg" viewBox="0 0 1100 1100"><path d="M401,700L701,700L701,400L401,400Z" fill="currentColor"/><path d="M250,910C283,910,310,883,310,850C310,817,283,790,250,790C217,790,190,817,190,850C190,883,217,910,250,910Z" fill="currentColor"/><path d="M250,710C283,710,310,683,310,650C310,617,283,590,250,590C217,590,190,617,190,650C190,683,217,710,250,710Z" fill="currentColor"/><path d="M250,510C283,510,310,483,310,450C310,417,283,390,250,390C217,390,190,417,190,450C190,483,217,510,250,510Z" fill="currentColor"/><path d="M251,310C284,310,311,283,311,250C311,217,284,190,251,190C218,190,191,217,191,250C191,283,218,310,251,310Z" fill="currentColor"/><path d="M450,910C483,910,510,883,510,850C510,817,483,790,450,790C417,790,390,817,390,850C390,883,417,910,450,910Z" fill="currentColor"/><path d="M451,310C484,310,511,283,511,250C511,217,484,190,451,190C418,190,391,217,391,250C391,283,418,310,451,310Z" fill="currentColor"/><path d="M650,910C683,910,710,883,710,850C710,817,683,790,650,790C617,790,590,817,590,850C590,883,617,910,650,910Z" fill="currentColor"/><path d="M651,310C684,310,711,283,711,250C711,217,684,190,651,190C618,190,591,217,591,250C591,283,618,310,651,310Z" fill="currentColor"/><path d="M851,910C884,910,911,883,911,850C911,817,884,790,851,790C818,790,791,817,791,850C791,883,818,910,851,910Z" fill="currentColor"/><path d="M851,710C884,710,911,683,911,650C911,617,884,590,851,590C818,590,791,617,791,650C791,683,818,710,851,710Z" fill="currentColor"/><path d="M851,510C884,510,911,483,911,450C911,417,884,390,851,390C818,390,791,417,791,450C791,483,818,510,851,510Z" fill="currentColor"/><path d="M851,310C884,310,911,283,911,250C911,217,884,190,851,190C818,190,791,217,791,250C791,283,818,310,851,310Z" fill="currentColor"/></svg>