<svg xmlns="http://www.w3.org/2000/svg" viewBox="0 0 1100 1100"><path d="M460,849C460,815,433,789,399,789C366,789,340,815,340,849C340,883,366,909,399,909C433,909,460,883,460,849Z" fill="currentColor"/><path d="M460,550C460,516,433,490,399,490C366,490,340,516,340,550C340,584,366,610,399,610C433,610,460,584,460,550Z" fill="currentColor"/><path d="M460,251C460,217,433,191,399,191C366,191,340,217,340,251C340,285,366,311,399,311C433,311,460,285,460,251Z" fill="currentColor"/><path d="M760,849C760,815,733,789,699,789C666,789,640,815,640,849C640,883,666,909,699,909C733,909,760,883,760,849Z" fill="currentColor"/><path d="M760,550C760,516,733,490,699,490C666,490,640,516,640,550C640,584,666,610,699,610C733,610,760,584,760,550Z" fill="currentColor"/><path d="M760,251C760,217,733,191,699,191C666,191,640,217,640,251C640,285,666,311,699,311C733,311,760,285,760,251Z" fill="currentColor"/></svg>