<svg xmlns="http://www.w3.org/2000/svg" viewBox="0 0 1100 1100"><path d="M311,250C311,217,284,190,251,190C218,190,191,217,191,250C191,283,218,310,251,310C284,310,311,283,311,250Z" fill="currentColor"/><path d="M251,910C284,910,311,883,311,850C311,817,284,790,251,790C218,790,191,817,191,850C191,883,218,910,251,910Z" fill="currentColor"/><path d="M251,710C284,710,311,683,311,650C311,617,284,590,251,590C218,590,191,617,191,650C191,683,218,710,251,710Z" fill="currentColor"/><path d="M251,510C284,510,311,483,311,450C311,417,284,390,251,390C218,390,191,417,191,450C191,483,218,510,251,510Z" fill="currentColor"/><path d="M451,895C476,895,496,875,496,850C496,825,476,805,451,805C426,805,406,825,406,850C406,875,426,895,451,895Z" fill="currentColor"/><path d="M451,695C476,695,496,675,496,650C496,625,476,605,451,605C426,605,406,625,406,650C406,675,426,695,451,695Z" fill="currentColor"/><path d="M451,495C476,495,496,475,496,450C496,425,476,405,451,405C426,405,406,425,406,450C406,475,426,495,451,495Z" fill="currentColor"/><path d="M451,295C476,295,496,275,496,250C496,225,476,205,451,205C426,205,406,225,406,250C406,275,426,295,451,295Z" fill="currentColor"/><path d="M651,885C670,885,686,869,686,850C686,831,670,815,651,815C632,815,616,831,616,850C616,869,632,885,651,885Z" fill="currentColor"/><path d="M651,685C670,685,686,669,686,650C686,631,670,615,651,615C632,615,616,631,616,650C616,669,632,685,651,685Z" fill="currentColor"/><path d="M651,485C670,485,686,469,686,450C686,431,670,415,651,415C632,415,616,431,616,450C616,469,632,485,651,485Z" fill="currentColor"/><path d="M651,285C670,285,686,269,686,250C686,231,670,215,651,215C632,215,616,231,616,250C616,269,632,285,651,285Z" fill="currentColor"/><path d="M851,875C865,875,876,864,876,850C876,836,865,825,851,825C837,825,826,836,826,850C826,864,837,875,851,875Z" fill="currentColor"/><path d="M851,675C865,675,876,664,876,650C876,636,865,625,851,625C837,625,826,636,826,650C826,664,837,675,851,675Z" fill="currentColor"/><path d="M851,475C865,475,876,464,876,450C876,436,865,425,851,425C837,425,826,436,826,450C826,464,837,475,851,475Z" fill="currentColor"/><path d="M851,275C865,275,876,264,876,250C876,236,865,225,851,225C837,225,826,236,826,250C826,264,837,275,851,275Z" fill="currentColor"/></svg>