<svg xmlns="http://www.w3.org/2000/svg" viewBox="0 0 1100 1100"><path d="M822,278L900,278L900,200L822,200Z" fill="currentColor"/><path d="M200,900L278,900L278,822L200,822Z" fill="currentColor"/><path d="M356,900L433,900L433,822L356,822Z" fill="currentColor"/><path d="M200,744L278,744L278,667L200,667Z" fill="currentColor"/><path d="M200,589L278,589L278,511L200,511Z" fill="currentColor"/><path d="M511,900L589,900L589,822L511,822Z" fill="currentColor"/><path d="M356,744L433,744L433,667L356,667Z" fill="currentColor"/><path d="M200,433L278,433L278,356L200,356Z" fill="currentColor"/><path d="M356,589L433,589L433,511L356,511Z" fill="currentColor"/><path d="M667,900L744,900L744,822L667,822Z" fill="currentColor"/><path d="M511,744L589,744L589,667L511,667Z" fill="currentColor"/><path d="M200,278L278,278L278,200L200,200Z" fill="currentColor"/><path d="M356,433L433,433L433,356L356,356Z" fill="currentColor"/><path d="M511,589L589,589L589,511L511,511Z" fill="currentColor"/><path d="M822,900L900,900L900,822L822,822Z" fill="currentColor"/><path d="M667,744L744,744L744,667L667,667Z" fill="currentColor"/><path d="M356,278L433,278L433,200L356,200Z" fill="currentColor"/><path d="M511,433L589,433L589,356L511,356Z" fill="currentColor"/><path d="M667,589L744,589L744,511L667,511Z" fill="currentColor"/><path d="M822,744L900,744L900,667L822,667Z" fill="currentColor"/><path d="M511,278L589,278L589,200L511,200Z" fill="currentColor"/><path d="M667,433L744,433L744,356L667,356Z" fill="currentColor"/><path d="M822,589L900,589L900,511L822,511Z" fill="currentColor"/><path d="M667,278L744,278L744,200L667,200Z" fill="currentColor"/><path d="M822,433L900,433L900,356L822,356Z" fill="currentColor"/></svg>