<svg xmlns="http://www.w3.org/2000/svg" viewBox="0 0 1100 1100"><path d="M300,900L300,199L200,199L200,900L201,900Z" fill="currentColor"/><path d="M910,849C910,817,883,790,850,790C817,790,790,817,790,849C790,883,817,910,850,910C883,910,910,883,910,849Z" fill="currentColor"/><path d="M910,549C910,517,883,490,850,490C817,490,790,517,790,549C790,583,817,610,850,610C883,610,910,583,910,549Z" fill="currentColor"/><path d="M610,849C610,817,583,790,550,790C517,790,490,817,490,849C490,883,517,910,550,910C583,910,610,883,610,849Z" fill="currentColor"/><path d="M910,249C910,217,883,190,850,190C817,190,790,217,790,249C790,283,817,310,850,310C883,310,910,283,910,249Z" fill="currentColor"/><path d="M610,549C610,517,583,490,550,490C517,490,490,517,490,549C490,583,517,610,550,610C583,610,610,583,610,549Z" fill="currentColor"/><path d="M610,249C610,217,583,190,550,190C517,190,490,217,490,249C490,283,517,310,550,310C583,310,610,283,610,249Z" fill="currentColor"/></svg>