<svg xmlns="http://www.w3.org/2000/svg" viewBox="0 0 1100 1100"><path d="M750,300L850,300L850,200C850,135,815,100,750,100L600,100L600,200L750,200Z" fill="currentColor"/><path d="M500,1000L500,900L350,900L350,800L250,800L250,900C250,965,285,1000,350,1000Z" fill="currentColor"/><path d="M250,700L350,700L350,400L250,400Z" fill="currentColor"/><path d="M600,1000L750,1000C815,1000,850,965,850,900L850,800L750,800L750,900L600,900Z" fill="currentColor"/><path d="M250,300L350,300L350,200L500,200L500,100L350,100C285,100,250,135,250,200Z" fill="currentColor"/><path d="M750,700L850,700L850,400L750,400Z" fill="currentColor"/></svg>