<svg xmlns="http://www.w3.org/2000/svg" viewBox="0 0 1100 1100"><path d="M450,900L450,800L300,800L300,650L200,650L200,800C200,865,235,900,300,900Z" fill="currentColor"/><path d="M200,550L300,550L300,400L400,400L400,300L300,300C235,300,200,335,200,400Z" fill="currentColor"/><path d="M550,900L700,900C765,900,800,865,800,800L800,700L700,700L700,800L550,800Z" fill="currentColor"/><path d="M950,300L550,300L550,400L950,400Z" fill="currentColor"/><path d="M800,550L800,150L700,150L700,550Z" fill="currentColor"/></svg>