<svg xmlns="http://www.w3.org/2000/svg" viewBox="0 0 1100 1100"><path d="M200,500L200,599L200,600L901,600L901,500Z" fill="currentColor"/><path d="M251,310C284,310,310,284,310,250C310,216,284,190,251,190C217,190,190,216,190,250C190,284,217,310,251,310Z" fill="currentColor"/><path d="M551,310C584,310,610,284,610,250C610,216,584,190,551,190C517,190,490,216,490,250C490,284,517,310,551,310Z" fill="currentColor"/><path d="M851,310C884,310,910,284,910,250C910,216,884,190,851,190C817,190,790,216,790,250C790,284,817,310,851,310Z" fill="currentColor"/><path d="M251,910C284,910,310,884,310,850C310,816,284,790,251,790C217,790,190,816,190,850C190,884,217,910,251,910Z" fill="currentColor"/><path d="M551,910C584,910,610,884,610,850C610,816,584,790,551,790C517,790,490,816,490,850C490,884,517,910,551,910Z" fill="currentColor"/><path d="M851,910C884,910,910,884,910,850C910,816,884,790,851,790C817,790,790,816,790,850C790,884,817,910,851,910Z" fill="currentColor"/></svg>