<svg xmlns="http://www.w3.org/2000/svg" viewBox="0 0 1100 1100"><path d="M450,350L650,350L650,150L450,150Z" fill="currentColor"/><path d="M310,850C310,817,283,790,251,790C217,790,190,817,190,850C190,883,217,910,251,910C283,910,310,883,310,850Z" fill="currentColor"/><path d="M310,550C310,517,283,490,251,490C217,490,190,517,190,550C190,583,217,610,251,610C283,610,310,583,310,550Z" fill="currentColor"/><path d="M610,849C610,817,583,790,550,790C517,790,490,817,490,849C490,883,517,910,550,910C583,910,610,883,610,849Z" fill="currentColor"/><path d="M610,551C610,517,583,490,550,490C517,490,490,517,490,551C490,583,517,610,550,610C583,610,610,583,610,551Z" fill="currentColor"/><path d="M910,850C910,817,883,790,849,790C817,790,790,817,790,850C790,883,817,910,849,910C883,910,910,883,910,850Z" fill="currentColor"/><path d="M310,250C310,217,283,190,251,190C217,190,190,217,190,250C190,283,217,310,251,310C283,310,310,283,310,250Z" fill="currentColor"/><path d="M910,550C910,517,883,490,849,490C817,490,790,517,790,550C790,583,817,610,849,610C883,610,910,583,910,550Z" fill="currentColor"/><path d="M910,250C910,217,883,190,849,190C817,190,790,217,790,250C790,283,817,310,849,310C883,310,910,283,910,250Z" fill="currentColor"/></svg>