<svg xmlns="http://www.w3.org/2000/svg" viewBox="0 0 1100 1100"><path d="M413,800L550,1015L688,800Z" fill="currentColor"/><path d="M250,310C284,310,310,283,310,249C310,216,284,190,250,190C216,190,190,216,190,249C190,283,216,310,250,310Z" fill="currentColor"/><path d="M550,310C584,310,610,283,610,249C610,216,584,190,550,190C516,190,490,216,490,249C490,283,516,310,550,310Z" fill="currentColor"/><path d="M250,610C284,610,310,584,310,550C310,516,284,490,250,490C216,490,190,516,190,550C190,584,216,610,250,610Z" fill="currentColor"/><path d="M850,310C884,310,910,283,910,249C910,216,884,190,850,190C816,190,790,216,790,249C790,283,816,310,850,310Z" fill="currentColor"/><path d="M250,910C284,910,310,883,310,849C310,816,284,790,250,790C216,790,190,816,190,849C190,883,216,910,250,910Z" fill="currentColor"/><path d="M849,610C883,610,910,584,910,550C910,516,883,490,849,490C815,490,790,516,790,550C790,584,815,610,849,610Z" fill="currentColor"/><path d="M849,910C883,910,909,883,909,849C909,816,883,790,849,790C815,790,790,816,790,849C790,883,815,910,849,910Z" fill="currentColor"/></svg>