<svg xmlns="http://www.w3.org/2000/svg" viewBox="0 0 1100 1100"><path d="M400,900L900,900L900,400L800,400L800,800L400,800Z" fill="currentColor"/><path d="M250,710C283,710,310,683,310,650C310,617,283,590,250,590C217,590,190,617,190,650C190,683,217,710,250,710Z" fill="currentColor"/><path d="M250,510C283,510,310,483,310,450C310,417,283,390,250,390C217,390,190,417,190,450C190,483,217,510,250,510Z" fill="currentColor"/><path d="M250,310C283,310,310,283,310,250C310,217,283,190,250,190C217,190,190,217,190,250C190,283,217,310,250,310Z" fill="currentColor"/><path d="M450,710C483,710,510,683,510,650C510,617,483,590,450,590C417,590,390,617,390,650C390,683,417,710,450,710Z" fill="currentColor"/><path d="M450,310C483,310,510,283,510,250C510,217,483,190,450,190C417,190,390,217,390,250C390,283,417,310,450,310Z" fill="currentColor"/><path d="M650,710C683,710,710,683,710,650C710,617,683,590,650,590C617,590,590,617,590,650C590,683,617,710,650,710Z" fill="currentColor"/><path d="M650,510C683,510,710,483,710,450C710,417,683,390,650,390C617,390,590,417,590,450C590,483,617,510,650,510Z" fill="currentColor"/><path d="M650,310C683,310,710,283,710,250C710,217,683,190,650,190C617,190,590,217,590,250C590,283,617,310,650,310Z" fill="currentColor"/></svg>