<svg xmlns="http://www.w3.org/2000/svg" viewBox="0 0 1100 1100"><path d="M500,200L200,200L200,900L500,900Z" fill="currentColor"/><path d="M790,250C790,283,817,310,850,310C883,310,910,283,910,250C910,217,883,190,850,190C817,190,790,217,790,250Z" fill="currentColor"/><path d="M790,450C790,483,817,510,850,510C883,510,910,483,910,450C910,417,883,390,850,390C817,390,790,417,790,450Z" fill="currentColor"/><path d="M790,650C790,683,817,710,850,710C883,710,910,683,910,650C910,617,883,590,850,590C817,590,790,617,790,650Z" fill="currentColor"/><path d="M790,850C790,883,817,910,850,910C883,910,910,883,910,850C910,817,883,790,850,790C817,790,790,817,790,850Z" fill="currentColor"/><path d="M590,250C590,283,617,310,650,310C683,310,710,283,710,250C710,217,683,190,650,190C617,190,590,217,590,250Z" fill="currentColor"/><path d="M590,850C590,883,617,910,650,910C683,910,710,883,710,850C710,817,683,790,650,790C617,790,590,817,590,850Z" fill="currentColor"/></svg>