<svg xmlns="http://www.w3.org/2000/svg" viewBox="0 0 1100 1100"><path d="M200,600L200,900L900,900L900,600Z" fill="currentColor"/><path d="M250,310C283,310,310,283,310,250C310,217,283,190,250,190C217,190,190,217,190,250C190,283,217,310,250,310Z" fill="currentColor"/><path d="M450,310C483,310,510,283,510,250C510,217,483,190,450,190C417,190,390,217,390,250C390,283,417,310,450,310Z" fill="currentColor"/><path d="M650,310C683,310,710,283,710,250C710,217,683,190,650,190C617,190,590,217,590,250C590,283,617,310,650,310Z" fill="currentColor"/><path d="M850,310C883,310,910,283,910,250C910,217,883,190,850,190C817,190,790,217,790,250C790,283,817,310,850,310Z" fill="currentColor"/><path d="M250,510C283,510,310,483,310,450C310,417,283,390,250,390C217,390,190,417,190,450C190,483,217,510,250,510Z" fill="currentColor"/><path d="M850,510C883,510,910,483,910,450C910,417,883,390,850,390C817,390,790,417,790,450C790,483,817,510,850,510Z" fill="currentColor"/></svg>