<svg xmlns="http://www.w3.org/2000/svg" viewBox="0 0 1100 1100"><path d="M900,713L900,387L700,550Z" fill="currentColor"/><path d="M610,849C610,816,584,790,550,790C516,790,490,816,490,849C490,883,516,910,550,910C584,910,610,883,610,849Z" fill="currentColor"/><path d="M200,713L400,550L200,387Z" fill="currentColor"/><path d="M611,650C611,616,584,590,550,590C516,590,490,616,490,650C490,684,516,710,550,710C584,710,611,684,611,650Z" fill="currentColor"/><path d="M610,249C610,216,584,190,550,190C516,190,490,216,490,249C490,283,516,310,550,310C584,310,610,283,610,249Z" fill="currentColor"/><path d="M611,450C611,416,584,390,550,390C516,390,490,416,490,450C490,484,516,510,550,510C584,510,611,484,611,450Z" fill="currentColor"/></svg>