<svg xmlns="http://www.w3.org/2000/svg" viewBox="0 0 1100 1100"><path d="M710,449C710,416,684,390,650,390C616,390,590,416,590,449C590,483,616,510,650,510C684,510,710,483,710,449Z" fill="currentColor"/><path d="M760,249C760,216,734,190,700,190C666,190,640,216,640,249C640,283,666,310,700,310C734,310,760,283,760,249Z" fill="currentColor"/><path d="M510,449C510,416,484,390,450,390C416,390,390,416,390,449C390,483,416,510,450,510C484,510,510,483,510,449Z" fill="currentColor"/><path d="M460,249C460,216,434,190,400,190C366,190,340,216,340,249C340,283,366,310,400,310C434,310,460,283,460,249Z" fill="currentColor"/><path d="M710,649C710,616,684,590,650,590C616,590,590,616,590,649C590,683,616,710,650,710C684,710,710,683,710,649Z" fill="currentColor"/><path d="M510,649C510,616,484,590,450,590C416,590,390,616,390,649C390,683,416,710,450,710C484,710,510,683,510,649Z" fill="currentColor"/><path d="M640,851C640,884,666,910,700,910C734,910,760,884,760,851C760,817,734,790,700,790C666,790,640,817,640,851Z" fill="currentColor"/><path d="M340,851C340,884,366,910,400,910C434,910,460,884,460,851C460,817,434,790,400,790C366,790,340,817,340,851Z" fill="currentColor"/><path d="M851,760C884,760,910,734,910,700C910,666,884,640,851,640C817,640,790,666,790,700C790,734,817,760,851,760Z" fill="currentColor"/><path d="M851,460C884,460,910,434,910,400C910,366,884,340,851,340C817,340,790,366,790,400C790,434,817,460,851,460Z" fill="currentColor"/><path d="M249,640C216,640,190,666,190,700C190,734,216,760,249,760C283,760,310,734,310,700C310,666,283,640,249,640Z" fill="currentColor"/><path d="M249,340C216,340,190,366,190,400C190,434,216,460,249,460C283,460,310,434,310,400C310,366,283,340,249,340Z" fill="currentColor"/></svg>