<svg xmlns="http://www.w3.org/2000/svg" viewBox="0 0 1100 1100"><path d="M200,200L200,900L500,900L500,200Z" fill="currentColor"/><path d="M591,250C591,283.54,617.46,310,651,310C684.54,310,711,283.54,711,250C711,216.46,684.54,190,651,190C617.46,190,591,216.46,591,250Z" fill="currentColor"/><path d="M791,250C791,283.54,817.46,310,851,310C884.54,310,911,283.54,911,250C911,216.46,884.54,190,851,190C817.46,190,791,216.46,791,250Z" fill="currentColor"/><path d="M591,850C591,883.54,617.46,910,651,910C684.54,910,711,883.54,711,850C711,816.46,684.54,790,651,790C617.46,790,591,816.46,591,850Z" fill="currentColor"/><path d="M791,850C791,883.54,817.46,910,851,910C884.54,910,911,883.54,911,850C911,816.46,884.54,790,851,790C817.46,790,791,816.46,791,850Z" fill="currentColor"/><path d="M200,600L800,600L800,500L200,500Z" fill="currentColor"/><path d="M800,710L1000,550L800,390Z" fill="currentColor"/></svg>