<svg xmlns="http://www.w3.org/2000/svg" viewBox="0 0 1100 1100"><path d="M582,264L645,264L645,200L582,200Z" fill="currentColor"/><path d="M200,645L264,645L264,582L200,582Z" fill="currentColor"/><path d="M200,518L264,518L264,455L200,455Z" fill="currentColor"/><path d="M327,645L391,645L391,582L327,582Z" fill="currentColor"/><path d="M200,391L264,391L264,327L200,327Z" fill="currentColor"/><path d="M327,518L391,518L391,455L327,455Z" fill="currentColor"/><path d="M455,645L518,645L518,582L455,582Z" fill="currentColor"/><path d="M200,264L264,264L264,200L200,200Z" fill="currentColor"/><path d="M327,391L391,391L391,327L327,327Z" fill="currentColor"/><path d="M455,518L518,518L518,455L455,455Z" fill="currentColor"/><path d="M582,645L645,645L645,582L582,582Z" fill="currentColor"/><path d="M327,264L391,264L391,200L327,200Z" fill="currentColor"/><path d="M455,391L518,391L518,327L455,327Z" fill="currentColor"/><path d="M582,518L645,518L645,455L582,455Z" fill="currentColor"/><path d="M455,264L518,264L518,200L455,200Z" fill="currentColor"/><path d="M582,391L645,391L645,327L582,327Z" fill="currentColor"/><path d="M836,264L900,264L900,200L836,200Z" fill="currentColor"/><path d="M709,645L773,645L773,582L709,582Z" fill="currentColor"/><path d="M709,518L773,518L773,455L709,455Z" fill="currentColor"/><path d="M836,645L900,645L900,582L836,582Z" fill="currentColor"/><path d="M709,391L773,391L773,327L709,327Z" fill="currentColor"/><path d="M836,518L900,518L900,455L836,455Z" fill="currentColor"/><path d="M709,264L773,264L773,200L709,200Z" fill="currentColor"/><path d="M836,391L900,391L900,327L836,327Z" fill="currentColor"/><path d="M200,900L264,900L264,836L200,836Z" fill="currentColor"/><path d="M200,773L264,773L264,709L200,709Z" fill="currentColor"/><path d="M327,900L391,900L391,836L327,836Z" fill="currentColor"/><path d="M327,773L391,773L391,709L327,709Z" fill="currentColor"/><path d="M455,900L518,900L518,836L455,836Z" fill="currentColor"/><path d="M455,773L518,773L518,709L455,709Z" fill="currentColor"/><path d="M582,900L645,900L645,836L582,836Z" fill="currentColor"/><path d="M582,773L645,773L645,709L582,709Z" fill="currentColor"/><path d="M709,900L773,900L773,836L709,836Z" fill="currentColor"/><path d="M709,773L773,773L773,709L709,709Z" fill="currentColor"/><path d="M836,900L900,900L900,836L836,836Z" fill="currentColor"/><path d="M836,773L900,773L900,709L836,709Z" fill="currentColor"/></svg>