<svg xmlns="http://www.w3.org/2000/svg" viewBox="0 0 11 11"><path d="M3.56,6.73C3.92,6.73,4.27,7.08,4.27,7.44C4.27,7.8,3.92,8.15,3.56,8.15C3.2,8.15,2.85,7.8,2.85,7.44C2.85,7.08,3.2,6.73,3.56,6.73ZM3.56,9.15C4.48,9.15,5.27,8.36,5.27,7.44C5.27,7.25,5.24,7.07,5.17,6.89L2.96,5.82C2.23,6.22,1.85,6.65,1.85,7.44C1.85,8.36,2.64,9.15,3.56,9.15ZM5.55,4.61L6.71,5.18L9.71,3.81L9.29,2.91ZM9.71,7.19L3.98,4.58C3.03,4.14,2.85,3.98,2.85,3.56L1.85,3.56C1.85,4.55,2.44,4.97,3.56,5.49L9.29,8.1ZM2.85,3.56C2.85,3.2,3.2,2.85,3.56,2.85C3.92,2.85,4.27,3.2,4.27,3.56C4.27,3.92,3.92,4.27,3.56,4.27C3.2,4.27,2.85,3.92,2.85,3.56ZM5.27,3.56C5.27,2.64,4.48,1.85,3.56,1.85C2.64,1.85,1.85,2.64,1.85,3.56C1.85,4.48,2.64,5.27,3.56,5.27C4.48,5.27,5.27,4.48,5.27,3.56Z" fill="#000000"/></svg>