<svg xmlns="http://www.w3.org/2000/svg" viewBox="0 0 11 11"><path d="M4.26,7.44L3.56,6.74L2.67,7.62L3.38,8.33Z" fill="#000000"/><path d="M6,7.75L5,7.75L5,9L6,9Z" fill="#000000"/><path d="M3.25,6L3.25,5L2,5L2,6Z" fill="#000000"/><path d="M3.56,4.26L4.26,3.56L3.38,2.67L2.67,3.38Z" fill="#000000"/><path d="M4.9,5.5C4.9,5.16,5.17,4.9,5.51,4.9C5.84,4.9,6.1,5.16,6.1,5.5C6.1,5.84,5.84,6.1,5.51,6.1C5.17,6.1,4.9,5.84,4.9,5.5Z" fill="#000000"/><path d="M7.44,6.74L6.74,7.44L7.62,8.33L8.33,7.62Z" fill="#000000"/><path d="M5,3.25L6,3.25L6,2L5,2Z" fill="#000000"/><path d="M7.75,5L7.75,6L9,6L9,5Z" fill="#000000"/><path d="M6.74,3.56L7.44,4.26L8.33,3.38L7.62,2.67Z" fill="#000000"/></svg>