<svg xmlns="http://www.w3.org/2000/svg" viewBox="0 0 1100 1100"><path d="M800,400C934.43,400,1000,462.45,1000,550C1000,636.55,934.3,699.18,799.69,700L800.3,800C990.69,798.83,1099.99,692.25,1099.99,550C1099.99,406.75,990.56,300,799.99,300Z" fill="currentColor"/><path d="M300,300C109.43,300,0,406.75,0,550C0,692.25,109.3,798.83,299.69,800L300.3,700C165.69,699.17,99.99,636.55,99.99,550C99.99,462.45,165.56,400,299.99,400Z" fill="currentColor"/><path d="M624.31,50L599.31,200L700.69,200L725.69,50Z" fill="currentColor"/><path d="M374.31,50L399.31,200L500.69,200L475.69,50Z" fill="currentColor"/><path d="M599.31,900L624.31,1050L725.69,1050L700.69,900Z" fill="currentColor"/><path d="M399.31,900L374.31,1050L475.69,1050L500.69,900Z" fill="currentColor"/></svg>