<svg xmlns="http://www.w3.org/2000/svg" viewBox="0 0 1100 1100"><path d="M901,972L971,902L972,901L882.05,811.05L810.82,739.82L359.45,288.45L288.19,217.19L199,128L128,199L217.26,288.26C159.56,361.15,125,452.57,125,550C125,779.17,316.15,975,550,975C647.21,975,738.32,939.93,811.05,882.05Z" fill="currentColor"/><path d="M225,550C225,479.82,248.66,413.62,288.51,359.51L739.82,810.82C685.79,850.9,619.81,875,550,875C371.85,875,225,724.83,225,550Z" fill="currentColor"/><path d="M452.46,240.46C483.31,230.44,516.09,225,550,225C724.49,225,875,375.51,875,550C875,583.58,869.43,616.27,859.18,647.18L936.02,724.02C960.97,670.52,975,611.48,975,550C975,320.49,779.51,125,550,125C487.87,125,428.75,138.82,375.43,163.43Z" fill="currentColor"/></svg>