<svg xmlns="http://www.w3.org/2000/svg" viewBox="0 0 1100 1100"><path d="M500,950L600,950L600,820L500,820Z" fill="currentColor"/><path d="M500,280L600,280L600,150L500,150Z" fill="currentColor"/><path d="M345.29,764.94C401.31,825.53,475.35,870,564,870C676.64,870,769,796.92,769,701C769,595.66,675.73,546.04,569.43,503.52C466.84,463.22,432,436.03,432,398C432,364.02,475.58,330,538,330C592.35,330,640.55,357.64,683.63,403.31L717.94,439.68L790.68,371.06L756.37,334.69C699.45,274.36,625.65,230,538,230C425.62,230,332,301.78,332,398C332,497.37,411.35,548.86,532.57,596.48C624.97,633.44,669,660.54,669,701C669,735.48,625.96,770,564,770C508.65,770,460.7,742.47,418.71,697.06L384.77,660.35L311.34,728.24Z" fill="currentColor"/></svg>