<svg xmlns="http://www.w3.org/2000/svg" viewBox="0 0 1100 1100"><path d="M700,550C700,414.35,601.83,300,400,300C198.17,300,100,414.35,100,550C100,684.65,198.05,798.83,399.71,800L400.29,700C259.15,699.18,200,633.95,200,550C200,465.05,259.03,400,400,400C540.97,400,600,465.05,600,550L600,600L700,600Z" fill="currentColor"/><path d="M400,550C400,685.65,498.17,800,700,800C901.83,800,1000,685.65,1000,550C1000,415.35,901.95,301.17,700.29,300L699.71,400C840.85,400.82,900,466.05,900,550C900,634.95,840.97,700,700,700C559.03,700,500,634.95,500,550L500,500L400,500Z" fill="currentColor"/></svg>