<svg xmlns="http://www.w3.org/2000/svg" viewBox="0 0 1100 1100"><path d="M1000,500L475,500L475,600L1000,600Z" fill="currentColor"/><path d="M600,350L350,550L600,750Z" fill="currentColor"/><path d="M250,310C283,310,310,283,310,250C310,217,283,190,250,190C217,190,190,217,190,250C190,283,217,310,250,310Z" fill="currentColor"/><path d="M250,510C283,510,310,483,310,450C310,417,283,390,250,390C217,390,190,417,190,450C190,483,217,510,250,510Z" fill="currentColor"/><path d="M250,710C283,710,310,683,310,650C310,617,283,590,250,590C217,590,190,617,190,650C190,683,217,710,250,710Z" fill="currentColor"/><path d="M250,910C283,910,310,883,310,850C310,817,283,790,250,790C217,790,190,817,190,850C190,883,217,910,250,910Z" fill="currentColor"/></svg>