<svg xmlns="http://www.w3.org/2000/svg" viewBox="0 0 1100 1100"><path d="M232,797L303,868L868,303L797,232Z" fill="currentColor"/><path d="M263,374C263,339.8,291.22,312,326,312C360.49,312,388,339.51,388,374C388,408.78,360.2,437,326,437C291.51,437,263,408.49,263,374Z" fill="currentColor"/><path d="M488,374C488,284.49,415.51,212,326,212C236.78,212,163,284.2,163,374C163,463.51,236.49,537,326,537C415.8,537,488,463.22,488,374Z" fill="currentColor"/><path d="M838,726C838,760.2,809.78,788,775,788C740.51,788,713,760.49,713,726C713,691.22,740.8,663,775,663C809.49,663,838,691.51,838,726Z" fill="currentColor"/><path d="M613,726C613,815.51,685.49,888,775,888C864.22,888,938,815.8,938,726C938,636.49,864.51,563,775,563C685.2,563,613,636.78,613,726Z" fill="currentColor"/></svg>