<svg xmlns="http://www.w3.org/2000/svg" viewBox="0 0 1100 1100"><path d="M964,800L743,800L743,836.25L827.46,760.15C911.33,684.66,964,645.39,964,572.99C964,493.79,887.71,429.99,811,429.99C754.53,429.99,704.4,462.72,660.19,508.1L625.3,543.91L696.92,613.7L731.81,577.89C763.46,545.41,789.67,530,811,530C833.09,530,864,551.27,864,573C864,596.79,832.28,621.28,760.54,685.84L643,791.74L643,899.99L964,899.99Z" fill="currentColor"/><path d="M579.04,180.3L279.04,880.3L370.95,919.69L670.95,219.69Z" fill="currentColor"/><path d="M125,300L200,300L200,600L300,600L300,200L125,200Z" fill="currentColor"/></svg>