<svg xmlns="http://www.w3.org/2000/svg" viewBox="0 0 1100 1100"><path d="M566,624C510.21,624,475,585.76,475,548C475,502.75,507.34,474,550,474C590.75,474,625,507.77,625,548C625,659.37,681.31,708,754,708C846.81,708,925,639.25,925,517C925,335.97,758,175,554,175C345.79,175,175,342.19,175,543C175,756.21,365.15,925,576,925C674.35,925,783.23,887.42,853.97,842.1L800.03,757.9C742.77,794.58,653.65,825,576,825C416.85,825,275,697.79,275,543C275,397.81,400.21,275,554,275C704,275,825,392.03,825,517C825,580.55,794.99,608,754,608C734.09,608,725,596.83,725,548C725,452.23,645.25,374,550,374C456.66,374,375,443.25,375,548C375,638.04,451.99,724,566,724L616,724L616,624Z" fill="currentColor"/></svg>