<svg xmlns="http://www.w3.org/2000/svg" viewBox="0 0 1100 1100"><path d="M319,600C257.45,600,190,544.29,190,453C190,360.26,266.57,300,369,300L430,300C585.3,300,643.48,413.49,580.44,600L685.14,600C751.78,364.36,643.99,200,429.99,200L368.99,200C218.22,200,89.99,298.54,89.99,453C89.99,605.71,208.54,700,318.99,700Z" fill="currentColor"/><path d="M781,500C842.55,500,910,555.71,910,647C910,739.74,833.43,800,731,800L670,800C514.7,800,456.52,686.51,519.56,500L414.86,500C348.22,735.64,456.01,900,670.01,900L731.01,900C881.78,900,1010.01,801.46,1010.01,647C1010.01,494.29,891.46,400,781.01,400Z" fill="currentColor"/></svg>