<svg xmlns="http://www.w3.org/2000/svg" viewBox="0 0 1100 1100"><path d="M234,755L409,550L59,550Z" fill="currentColor"/><path d="M1041,550L866,345L691,550Z" fill="currentColor"/><path d="M816,467L816,546C816,703.92,703.06,820,550,820C503.26,820,429.84,786.13,385.36,741.64L384.36,740.64L313.65,811.35L314.65,812.35C376.16,873.86,474.75,919.99,550.01,919.99C758.95,919.99,916.01,758.07,916.01,545.99L916.01,466.99Z" fill="currentColor"/><path d="M786.36,280.64L785.36,279.64C728.46,222.74,629.3,180,550,180C341.38,180,184,338.6,184,546L184,648L284,648L284,546C284,393.4,396.62,280,550,280C602.7,280,675.55,311.26,714.64,350.36L715.64,351.36Z" fill="currentColor"/></svg>