<svg xmlns="http://www.w3.org/2000/svg" viewBox="0 0 1100 1100"><path d="M866,755L1041,550L691,550Z" fill="currentColor"/><path d="M59,550L409,550L234,345Z" fill="currentColor"/><path d="M715.64,740.64L714.64,741.64C670.15,786.13,596.74,820,550,820C396.94,820,284,703.92,284,546L284,467L184,467L184,546C184,758.08,341.06,920,550,920C625.26,920,723.84,873.87,785.36,812.36L786.36,811.36Z" fill="currentColor"/><path d="M916,648L916,546C916,338.6,758.62,180,550,180C470.7,180,371.55,222.74,314.64,279.64L313.64,280.64L384.35,351.35L385.35,350.35C424.45,311.25,497.29,279.99,549.99,279.99C703.37,279.99,815.99,393.39,815.99,545.99L815.99,647.99Z" fill="currentColor"/></svg>