<svg xmlns="http://www.w3.org/2000/svg" viewBox="0 0 1100 1100"><path d="M367,837C367,797,332,771,300,771C269,771,233,797,233,837C233,879,269,905,300,905C332,905,367,879,367,837Z" fill="currentColor"/><path d="M250,200L250,650L350,650L350,200Z" fill="currentColor"/><path d="M545,450C545,363.85,610.17,300,700,300C791.41,300,855,356.49,855,441C855,513.63,790.34,575,700,575L650,575L650,675L700,675C843.66,675,955,570.37,955,441C955,297.51,842.59,200,700,200C555.83,200,445,308.15,445,450Z" fill="currentColor"/><path d="M767,837C767,797,732,771,700,771C669,771,633,797,633,837C633,879,669,905,700,905C732,905,767,879,767,837Z" fill="currentColor"/></svg>