<svg xmlns="http://www.w3.org/2000/svg" viewBox="0 0 1100 1100"><path d="M300,900L420,900C526.3,900,600,832.74,600,731L600,701C600,633.72,627.04,600,671,600L800,600L800,500L671,500C568.16,500,500,581.28,500,701L500,731C500,775.06,473.5,800,420,800L300,800Z" fill="currentColor"/><path d="M800,500L671,500C627.04,500,600,466.28,600,399L600,369C600,267.26,526.3,200,420,200L300,200L300,300L420,300C473.5,300,500,324.94,500,369L500,399C500,518.72,568.16,600,671,600L800,600Z" fill="currentColor"/></svg>