<svg xmlns="http://www.w3.org/2000/svg" viewBox="0 0 1100 1100"><path d="M800,400L400,400L400,500L800,500Z" fill="currentColor"/><path d="M538.96,645.52L738.96,299.52L661.04,254.48L461.04,600.48Z" fill="currentColor"/><path d="M461.04,299.52L661.04,645.52L738.96,600.48L538.96,254.48Z" fill="currentColor"/><path d="M460,749C460,716,434,690,400,690C366,690,340,716,340,749C340,783,366,810,400,810C434,810,460,783,460,749Z" fill="currentColor"/><path d="M293.73,846.89C178.42,662.9,181.49,435.92,294.22,252.32L209,200C77,415,73,683,209,900Z" fill="currentColor"/><path d="M813.55,250.26C920.58,434.35,920.61,663.88,813.35,850.08L900,899.99C1025,682.99,1025,414.99,900,199.99Z" fill="currentColor"/></svg>