<svg xmlns="http://www.w3.org/2000/svg" viewBox="0 0 1100 1100"><path d="M600,1000L600,475L500,475L500,1000Z" fill="currentColor"/><path d="M750,600L550,350L350,600Z" fill="currentColor"/><path d="M790,250C790,283,817,310,850,310C883,310,910,283,910,250C910,217,883,190,850,190C817,190,790,217,790,250Z" fill="currentColor"/><path d="M590,250C590,283,617,310,650,310C683,310,710,283,710,250C710,217,683,190,650,190C617,190,590,217,590,250Z" fill="currentColor"/><path d="M390,250C390,283,417,310,450,310C483,310,510,283,510,250C510,217,483,190,450,190C417,190,390,217,390,250Z" fill="currentColor"/><path d="M190,250C190,283,217,310,250,310C283,310,310,283,310,250C310,217,283,190,250,190C217,190,190,217,190,250Z" fill="currentColor"/></svg>