<svg xmlns="http://www.w3.org/2000/svg" viewBox="0 0 1100 1100"><path d="M100,600L625,600L625,500L100,500Z" fill="currentColor"/><path d="M500,750L750,550L500,350Z" fill="currentColor"/><path d="M850,790C817,790,790,817,790,850C790,883,817,910,850,910C883,910,910,883,910,850C910,817,883,790,850,790Z" fill="currentColor"/><path d="M850,590C817,590,790,617,790,650C790,683,817,710,850,710C883,710,910,683,910,650C910,617,883,590,850,590Z" fill="currentColor"/><path d="M850,390C817,390,790,417,790,450C790,483,817,510,850,510C883,510,910,483,910,450C910,417,883,390,850,390Z" fill="currentColor"/><path d="M850,190C817,190,790,217,790,250C790,283,817,310,850,310C883,310,910,283,910,250C910,217,883,190,850,190Z" fill="currentColor"/></svg>