<svg xmlns="http://www.w3.org/2000/svg" viewBox="0 0 1100 1100"><path d="M313,581.8C287.61,573.78,235,540.94,235,490C235,433.41,280.1,383,406,383C576.94,383,626.04,440.03,588.76,600L691.04,600C732.8,387.24,629.01,283,405.99,283C217.09,283,134.99,382.19,134.99,490C134.99,620.89,271.05,681.97,312.99,683.14Z" fill="currentColor"/><path d="M787,518.2C812.39,526.22,865,559.06,865,610C865,666.59,819.9,717,694,717C523.06,717,473.96,659.97,511.24,500L408.96,500C367.2,712.76,470.99,817,694.01,817C882.91,817,965.01,717.81,965.01,610C965.01,479.11,828.95,418.03,787.01,416.86Z" fill="currentColor"/></svg>