<svg xmlns="http://www.w3.org/2000/svg" viewBox="0 0 1100 1100"><path d="M800,900L1000,750L800,600L800,699.99C765.7,699.83,727.77,696.3,644.41,620.59L572.95,692.05C683.55,795.47,734.9,799.84,800,799.99Z" fill="currentColor"/><path d="M100,400L225,400C245.13,400,278.04,400,363.52,477.48L434.98,406.02C323.03,301.83,275.85,299.99,225.01,299.99L100.01,299.99Z" fill="currentColor"/><path d="M805,300C720,300,661,303,471,513C302,700,252,700,225,700L100,700L100,800L225,800C290,800,349,797,545,581C708,400,758,400,805,400L818,400L818,300Z" fill="currentColor"/><path d="M800,200L800,500L1000,350Z" fill="currentColor"/></svg>