<svg xmlns="http://www.w3.org/2000/svg" viewBox="0 0 1100 1100"><path d="M610,550C610,516,583,490,550,490C517,490,490,516,490,550C490,583,517,610,550,610C583,610,610,583,610,550Z" fill="currentColor"/><path d="M293.58,809.87C224.41,739.82,190,645.25,190,550C190,454.75,224.4,360.18,293.58,290.13L222.43,219.87C133.6,309.82,90.01,431.25,90.01,550C90.01,668.75,133.61,790.18,222.43,880.13Z" fill="currentColor"/><path d="M436.91,666.21C413.81,642.37,390,590.86,390,550C390,509.14,413.81,457.63,436.91,433.79L365.09,364.21C326.19,404.37,290,480.86,290,550C290,619.14,326.19,695.63,365.09,735.79Z" fill="currentColor"/><path d="M662.56,432.23C686.19,457.39,710,508.93,710,550C710,591.06,686.19,642.61,662.56,667.77L735.44,736.24C773.81,695.4,810,618.94,810,550.01C810,481.07,773.81,404.62,735.44,363.78Z" fill="currentColor"/><path d="M806.42,290.13C875.59,360.18,910,454.75,910,550C910,645.25,875.6,739.82,806.42,809.87L877.57,880.13C966.4,790.18,1009.99,668.75,1009.99,550C1009.99,431.25,966.39,309.82,877.57,219.87Z" fill="currentColor"/></svg>