<svg xmlns="http://www.w3.org/2000/svg" viewBox="0 0 1100 1100"><path d="M930,1000L1000,930L833.16,762.96L763.4,693.12L685.18,614.8L401.99,331.27L171,100L100,171L400,470.64L400,539C400,636,460,700,549,700C573.68,700,596.17,695.19,615.83,686.21L693.92,764.21C655.4,787.71,607.05,800.01,550,800.01C391.31,800.01,300,704.89,300,538.01L300,500.01L200,500.01L200,538.01C200,751.93,341.89,900.01,550,900.01C633.49,900.01,706.32,876.18,763.61,833.82Z" fill="currentColor"/><path d="M448.39,236.88L700,489.1L700,360.99C700,263.99,639,199.99,549,199.99C508.47,199.99,473.96,213.26,448.39,236.87Z" fill="currentColor"/><path d="M879.96,669.5C893.05,629.49,900,585.36,900,538L900,500L800,500L800,538C800,554.93,799.06,571.12,797.21,586.55Z" fill="currentColor"/></svg>