<svg xmlns="http://www.w3.org/2000/svg" viewBox="0 0 1100 1100"><path d="M700,300C837.38,300,950,413.4,950,550C950,688.38,837.6,800,700,800L700,900C892.4,900,1050,743.62,1050,550C1050,358.6,892.62,200,700,200Z" fill="currentColor"/><path d="M700,500C728.49,500,750,521.51,750,550C750,577.14,727.84,600,700,600L700,700C784.16,700,850,630.86,850,550C850,466.49,783.51,400,700,400Z" fill="currentColor"/><path d="M600,175C375,400,375,400,261,400L200,400L200,700L261,700C375,700,375,700,600,925Z" fill="currentColor"/></svg>