<svg xmlns="http://www.w3.org/2000/svg" viewBox="0 0 1100 1100"><path d="M550,1000C884,1000,900,984,900,840L900,640L800,640L800,840C800,900,800,900,550,900Z" fill="currentColor"/><path d="M700,800L747,800C879,800,900,743,900,600L700,600Z" fill="currentColor"/><path d="M400,800L400,600L200,600C200,743,221,800,353,800Z" fill="currentColor"/><path d="M900,650L900,495C900,326.5,811.59,175,550,175C288.41,175,200,326.5,200,495L200,650L300,650L300,495C300,368.7,356.39,275,550,275C743.61,275,800,368.7,800,495L800,650Z" fill="currentColor"/></svg>