<svg xmlns="http://www.w3.org/2000/svg" viewBox="0 0 1100 1100"><path d="M990,900L990,800L794,800C862,735,905,644,905,545C905,353,742,190,550,190C355,190,195,353,195,545C195,737,355,900,550,900Z" fill="currentColor"/><path d="M463,721C463,673,500,635,550,635C599,635,638,673,638,721C638,771,599,810,550,810C500,810,463,771,463,721Z" fill="currentColor"/><path d="M638,379C638,427,599,465,550,465C500,465,463,427,463,379C463,329,500,290,550,290C599,290,638,329,638,379Z" fill="currentColor"/><path d="M379,463C427,463,465,500,465,550C465,599,427,638,379,638C329,638,290,599,290,550C290,500,329,463,379,463Z" fill="currentColor"/><path d="M721,638C673,638,635,599,635,550C635,500,673,463,721,463C771,463,810,500,810,550C810,599,771,638,721,638Z" fill="currentColor"/></svg>