<svg xmlns="http://www.w3.org/2000/svg" viewBox="0 0 1100 1100"><path d="M200,900L900,900L900,300L300,300C235,300,200,335,200,400Z" fill="currentColor"/><path d="M690,750C690,723,713,690,751,690C787,690,810,723,810,750C810,778,787,810,751,810C713,810,690,778,690,750Z" fill="currentColor"/><path d="M488.51,11.92L248.67,283.74C199.2,338.71,200,383.8,200,400L300,400C300,386.8,301.2,374.85,323.33,350.26L563.49,78.08Z" fill="currentColor"/><path d="M690,549C690,513,723,490,750,490C778,490,810,513,810,549C810,587,778,610,750,610C723,610,690,587,690,549Z" fill="currentColor"/><path d="M690,750C690,723,713,690,751,690C787,690,810,723,810,750C810,778,787,810,751,810C713,810,690,778,690,750Z" fill="currentColor"/></svg>