<svg xmlns="http://www.w3.org/2000/svg" viewBox="0 0 1100 1100"><path d="M200,550C200,496.51,246.51,450,300,450C353.49,450,400,496.51,400,550C400,603.49,353.49,650,300,650C246.51,650,200,603.49,200,550Z" fill="currentColor"/><path d="M500,550C500,441.49,408.51,350,300,350C191.49,350,100,441.49,100,550C100,658.51,191.49,750,300,750C408.51,750,500,658.51,500,550Z" fill="currentColor"/><path d="M800,350L300,350L300,450L800,450Z" fill="currentColor"/><path d="M700,550C700,496.51,746.51,450,800,450C853.49,450,900,496.51,900,550C900,603.49,853.49,650,800,650C746.51,650,700,603.49,700,550Z" fill="currentColor"/><path d="M1000,550C1000,441.49,908.51,350,800,350C691.49,350,600,441.49,600,550C600,658.51,691.49,750,800,750C908.51,750,1000,658.51,1000,550Z" fill="currentColor"/></svg>