<svg xmlns="http://www.w3.org/2000/svg" viewBox="0 0 1100 1100"><path d="M715,550C715,377,666,295,550,295C434,295,385,377,385,550C385,723,434,805,550,805C666,805,715,723,715,550Z" fill="currentColor"/><path d="M485,550C485,445,501,395,550,395C599,395,615,445,615,550C615,655,599,705,550,705C501,705,485,655,485,550Z" fill="currentColor"/><path d="M14,693L97,641C121,684,142,705,170,705C198,705,225,686,225,651C225,618,202,599,161,599L99,599L99,501L161,501C202,501,225,478,225,449C225,414,198,395,170,395C140,395,121,416,97,459L14,407C45,337,98,295,170,295C277,295,325,367,325,442C325,491,305,526,276,550C305,574,325,609,325,658C325,733,277,805,170,805C98,805,45,763,14,693Z" fill="currentColor"/><path d="M800,725L1025,550L800,375Z" fill="currentColor"/></svg>