<svg xmlns="http://www.w3.org/2000/svg" viewBox="0 0 1100 1100"><path d="M600,550L600,340C600,248.97,537,190,470,190C404.8,190,355.08,239.59,332.19,341.15C301.58,480.7,284.92,500,220,500L150,500L150,600L220,600C347.48,600,391.99,535.26,429.81,362.85C442.13,308.16,458.48,290,470,290C483.17,290,500,307.83,500,340L500,550Z" fill="currentColor"/><path d="M500,550L500,760C500,851.23,563.2,910,631,910C693.2,910,744.22,863.53,767.81,758.85C798.42,619.3,815.08,600,880,600L950,600L950,500L880,500C752.52,500,708.01,564.74,670.19,737.15C657.91,791.64,641.32,810,631,810C615.83,810,600,791.37,600,760L600,550Z" fill="currentColor"/></svg>