<svg xmlns="http://www.w3.org/2000/svg" viewBox="0 0 1100 1100"><path d="M200,725L200,375L-25,550Z" fill="currentColor"/><path d="M1015,550C1015,377,966,295,850,295C734,295,685,377,685,550C685,723,734,805,850,805C966,805,1015,723,1015,550Z" fill="currentColor"/><path d="M785,550C785,445,801,395,850,395C899,395,915,445,915,550C915,655,899,705,850,705C801,705,785,655,785,550Z" fill="currentColor"/><path d="M314,693L397,641C421,684,442,705,470,705C498,705,525,686,525,651C525,618,502,599,461,599L399,599L399,501L461,501C502,501,525,478,525,449C525,414,498,395,470,395C440,395,421,416,397,459L314,407C345,337,398,295,470,295C577,295,625,367,625,442C625,491,605,526,576,550C605,574,625,609,625,658C625,733,577,805,470,805C398,805,345,763,314,693Z" fill="currentColor"/></svg>