<svg xmlns="http://www.w3.org/2000/svg" viewBox="0 0 11 11"><path d="M7.55,6.9C8.81,6.34,9,6.02,9,4.52L9,3.62C9,2.39,8.99,1.9,8.38,1.9C7.92,1.9,7.74,2.23,7.1,3L4,3C3.36,2.23,3.18,1.9,2.73,1.9C2.11,1.9,2,2.39,2,3.62L2,4.52C2,6.03,2.19,6.34,3.46,6.9C4.27,8.83,4.53,9.1,5.5,9.1C6.46,9.1,6.73,8.83,7.55,6.9ZM4.9,7.59C4.9,7.27,5.17,7,5.5,7C5.83,7,6.1,7.27,6.1,7.59C6.1,7.93,5.83,8.2,5.5,8.2C5.17,8.2,4.9,7.93,4.9,7.59ZM3.4,4.99C3.4,4.67,3.67,4.4,4,4.4C4.33,4.4,4.6,4.67,4.6,4.99C4.6,5.33,4.33,5.6,4,5.6C3.67,5.6,3.4,5.33,3.4,4.99ZM6.4,4.99C6.4,4.67,6.67,4.4,7,4.4C7.33,4.4,7.6,4.67,7.6,4.99C7.6,5.33,7.33,5.6,7,5.6C6.67,5.6,6.4,5.33,6.4,4.99Z" fill="#000000"/></svg>