<svg xmlns="http://www.w3.org/2000/svg" viewBox="0 0 11 11"><path d="M4.11,8.5C4.11,8.16,3.85,7.9,3.51,7.9C3.17,7.9,2.91,8.16,2.91,8.5C2.91,8.84,3.17,9.1,3.51,9.1C3.85,9.1,4.11,8.84,4.11,8.5Z" fill="#000000"/><path d="M6.11,8.5C6.11,8.16,5.85,7.9,5.51,7.9C5.17,7.9,4.91,8.16,4.91,8.5C4.91,8.84,5.17,9.1,5.51,9.1C5.85,9.1,6.11,8.84,6.11,8.5Z" fill="#000000"/><path d="M8.11,8.5C8.11,8.16,7.85,7.9,7.51,7.9C7.17,7.9,6.91,8.16,6.91,8.5C6.91,8.84,7.17,9.1,7.51,9.1C7.85,9.1,8.11,8.84,8.11,8.5Z" fill="#000000"/><path d="M7.75,6C8.75,6,9.25,5.51,9.25,4.75C9.25,3.94,8.75,3.5,7.75,3.5L7.19,3.5C7.19,2.53,6.51,1.75,5.5,1.75C4.49,1.75,3.81,2.53,3.81,3.5L3.25,3.5C2.25,3.5,1.75,3.94,1.75,4.75C1.75,5.51,2.25,6,3.25,6Z" fill="#000000"/></svg>