<svg xmlns="http://www.w3.org/2000/svg" viewBox="0 0 11 11"><path d="M9.5,6.42C9.5,5.89,9.4,5.32,9,4.41L9,2.4L7,2.4L8,2L3,2L4,2.4L2,2.4L2,4.41C1.6,5.32,1.5,5.89,1.5,6.42C1.5,8.4,3.35,9.25,5.5,9.25C7.65,9.25,9.5,8.4,9.5,6.42ZM3.65,5.74C3.65,5.43,3.92,5.15,4.25,5.15C4.57,5.15,4.85,5.43,4.85,5.74C4.85,6.07,4.57,6.35,4.25,6.35C3.92,6.35,3.65,6.07,3.65,5.74ZM6.15,5.74C6.15,5.43,6.43,5.15,6.75,5.15C7.08,5.15,7.35,5.43,7.35,5.74C7.35,6.07,7.08,6.35,6.75,6.35C6.43,6.35,6.15,6.07,6.15,5.74ZM4,2.4C4,1.89,3.53,1.42,3,1.42C2.45,1.42,2,1.89,2,2.4C2,2.95,2.45,3.42,3,3.42C3.53,3.42,4,2.95,4,2.4ZM9,2.4C9,1.89,8.55,1.42,8,1.42C7.47,1.42,7,1.89,7,2.4C7,2.95,7.47,3.42,8,3.42C8.55,3.42,9,2.95,9,2.4Z" fill="#000000"/></svg>