<svg xmlns="http://www.w3.org/2000/svg" viewBox="0 0 1100 1100"><path d="M755,690C881,634,900,602,900,452L900,362C900,239,899,190,838,190C792,190,774,223,710,300L400,300C336,223,318,190,273,190C211,190,200,239,200,362L200,452C200,603,219,634,346,690C427,883,453,910,550,910C646,910,673,883,755,690Z" fill="currentColor"/><path d="M490,759C490,727,517,700,550,700C583,700,610,727,610,759C610,793,583,820,550,820C517,820,490,793,490,759Z" fill="currentColor"/><path d="M340,499C340,467,367,440,400,440C433,440,460,467,460,499C460,533,433,560,400,560C367,560,340,533,340,499Z" fill="currentColor"/><path d="M640,499C640,467,667,440,700,440C733,440,760,467,760,499C760,533,733,560,700,560C667,560,640,533,640,499Z" fill="currentColor"/></svg>