<svg xmlns="http://www.w3.org/2000/svg" viewBox="0 0 1100 1100"><path d="M379,807C434,923,485,925,550,925L550,300L354,300L200,159L200,599L328,699Z" fill="currentColor"/><path d="M365,574C365,543,392,515,425,515C457,515,485,543,485,574C485,607,457,635,425,635C392,635,365,607,365,574Z" fill="currentColor"/><path d="M772,699L900,599L900,159L746,300L550,300L550,925C615,925,666,923,721,807Z" fill="currentColor"/><path d="M615,574C615,543,643,515,675,515C708,515,735,543,735,574C735,607,708,635,675,635C643,635,615,607,615,574Z" fill="currentColor"/></svg>