<svg xmlns="http://www.w3.org/2000/svg" viewBox="0 0 11 11"><path d="M3.79,8.07C4.34,9.23,4.85,9.25,5.5,9.25L5.5,3L3.54,3L2,1.59L2,5.99L3.28,6.99ZM3.65,5.74C3.65,5.43,3.92,5.15,4.25,5.15C4.57,5.15,4.85,5.43,4.85,5.74C4.85,6.07,4.57,6.35,4.25,6.35C3.92,6.35,3.65,6.07,3.65,5.74ZM7.72,6.99L9,5.99L9,1.59L7.46,3L5.5,3L5.5,9.25C6.15,9.25,6.66,9.23,7.21,8.07ZM6.15,5.74C6.15,5.43,6.43,5.15,6.75,5.15C7.08,5.15,7.35,5.43,7.35,5.74C7.35,6.07,7.08,6.35,6.75,6.35C6.43,6.35,6.15,6.07,6.15,5.74Z" fill="#000000"/></svg>