<svg xmlns="http://www.w3.org/2000/svg" viewBox="0 0 11 11"><path d="M9.3,10L10,9.3L1.71,1L1,1.71L3.3,4.01C1.82,4.1,1,5.27,1,6.5C1,7.88,2.12,9,3.5,9L7.5,9C7.74,9,7.98,8.97,8.2,8.9ZM3.5,5L4.29,5L7.3,8L3.5,8C2.67,8,2,7.33,2,6.5C2,5.7,2.52,5,3.5,5ZM4.31,2.19L5.08,2.96C5.22,2.92,5.36,2.9,5.5,2.9C6.58,2.9,7.32,4.07,7.01,4.89L7.02,4.9C7.99,4.58,9,5.41,9,6.5C9,6.62,8.99,6.73,8.96,6.84L9.74,7.62C9.91,7.28,10,6.9,10,6.5C10,5.22,9.1,4.1,8,4C8,3.04,6.87,1.9,5.5,1.9C5.07,1.9,4.67,2.01,4.31,2.19Z" fill="#000000"/></svg>