<svg xmlns="http://www.w3.org/2000/svg" viewBox="0 0 1100 1100"><path d="M711,420C711,487.29,640.23,550,551,550C461.77,550,391,487.29,391,420C391,352.71,461.77,290,551,290C640.06,290,711,353.53,711,420Z" fill="currentColor"/><path d="M291,420C291,546.51,410.43,650,551,650C691.57,650,811,546.51,811,420C811,294.67,691.74,190,551,190C410.43,190,291,293.49,291,420Z" fill="currentColor"/><path d="M518.18,900L674.55,697.58C787.13,552.08,810.99,492.05,810.99,420L710.99,420C710.99,465.75,694.73,508.08,595.43,636.42L391.8,900Z" fill="currentColor"/></svg>