<svg xmlns="http://www.w3.org/2000/svg" viewBox="0 0 1100 1100"><path d="M200,600L350,600C431.58,600,501.45,562.46,546.55,494.81L636.55,360.81C663.45,320.47,701.57,300,750,300L900,300L900,200L750,200C668.42,200,598.55,237.54,553.45,305.19L463.45,439.19C436.55,479.53,398.43,500,350,500L200,500Z" fill="currentColor"/><path d="M200,600L350,600C398.42,600,436.55,620.46,463.45,660.81L553.45,794.81C598.55,862.47,668.43,900,750,900L900,900L900,800L750,800C701.58,800,663.45,779.54,636.55,739.19L546.55,605.19C501.45,537.53,431.57,500,350,500L200,500Z" fill="currentColor"/></svg>