<svg xmlns="http://www.w3.org/2000/svg" viewBox="0 0 1100 1100"><path d="M900,350C900,267,833,200,750,200C667,200,600,267,600,350C600,433,667,500,750,500C833,500,900,433,900,350Z" fill="currentColor"/><path d="M500,750C500,667,433,600,350,600C267,600,200,667,200,750C200,833,267,900,350,900C433,900,500,833,500,750Z" fill="currentColor"/><path d="M500,350C500,267,433,200,350,200C267,200,200,267,200,350C200,433,267,500,350,500C433,500,500,433,500,350Z" fill="currentColor"/><path d="M900,750C900,667,833,600,750,600C667,600,600,667,600,750C600,833,667,900,750,900C833,900,900,833,900,750Z" fill="currentColor"/><path d="M800,300L300,300L300,400L800,400Z" fill="currentColor"/><path d="M800,800L800,300L700,300L700,800Z" fill="currentColor"/></svg>