<svg xmlns="http://www.w3.org/2000/svg" viewBox="0 0 11 11"><path d="M2.7,5.5C2.7,4.91,2.89,4.36,3.2,3.91L7.09,7.8C6.64,8.11,6.09,8.3,5.5,8.3C3.96,8.3,2.7,7.04,2.7,5.5ZM7.81,8.51L9.3,10L10,9.3L1.71,1L1,1.71L2.49,3.19C1.99,3.83,1.7,4.63,1.7,5.5C1.7,7.59,3.41,9.3,5.5,9.3C6.37,9.3,7.17,9.01,7.81,8.51ZM4.89,2.77C5.09,2.72,5.29,2.7,5.5,2.7C7.04,2.7,8.3,3.96,8.3,5.5C8.3,5.71,8.28,5.91,8.23,6.11L9.03,6.91C9.2,6.47,9.3,6,9.3,5.5C9.3,3.41,7.59,1.7,5.5,1.7C5,1.7,4.53,1.8,4.09,1.97Z" fill="#000000"/></svg>