<svg xmlns="http://www.w3.org/2000/svg" viewBox="0 0 1100 1100"><path d="M798.95,869.1L930,1000L1000,930L171,100L100,171L217.14,288C143.05,353.84,100,444.63,100,550C100,769,286,925,550,925C644.67,925,729.32,904.94,798.95,869.1Z" fill="currentColor"/><path d="M288.91,359.68L723,793.25C673.03,813.72,614.49,825,550,825C345,825,200,711,200,550C200,473.58,232.67,407.76,288.91,359.68Z" fill="currentColor"/><path d="M490.36,278.36C509.58,276.14,529.49,275,550,275C755,275,900,389,900,550C900,590.58,890.79,628.18,873.72,661.72L947.73,735.73C981.44,682.06,1000,619.17,1000,550C1000,331,814,175,550,175C498.17,175,449.34,181.01,404.34,192.34Z" fill="currentColor"/></svg>