<svg xmlns="http://www.w3.org/2000/svg" viewBox="0 0 1100 1100"><path d="M270,550C270,491.04,288.55,436.13,320.1,390.84L709.44,779.71C664.09,811.37,609.08,830,550,830C396.22,830,270,703.78,270,550Z" fill="currentColor"/><path d="M781.01,851.19L930,1000L1000,930L171,100L100,171L248.53,319.35C199.33,383.42,170,463.45,170,550C170,759,341,930,550,930C636.71,930,716.88,900.57,781.01,851.19Z" fill="currentColor"/><path d="M488.81,276.81C508.53,272.36,529.01,270,550,270C703.78,270,830,396.22,830,550C830,570.99,827.65,591.48,823.19,611.19L902.8,690.8C920.34,647.2,930,599.67,930,550C930,341,759,170,550,170C500.32,170,452.79,179.66,409.2,197.2Z" fill="currentColor"/></svg>