<svg xmlns="http://www.w3.org/2000/svg" viewBox="0 0 1100 1100"><path d="M200,500L200,900L600,900L600,694.64C562.78,682.72,529.03,664.23,500,640.51L500,800L300,800L300,600L459.18,600C435.02,570.88,416.38,537.08,404.57,500Z" fill="currentColor"/><path d="M910,403C910,283,819,190,700,190C581,190,490,283,490,403C490,519,581,610,700,610C819,610,910,519,910,403Z" fill="currentColor"/><path d="M590,401C590,339,638,290,700,290C762,290,810,339,810,401C810,462,762,510,700,510C638,510,590,462,590,401Z" fill="currentColor"/></svg>