<svg xmlns="http://www.w3.org/2000/svg" viewBox="0 0 11 11"><path d="M4.25,6L6.75,6C6.63,6.67,6.07,7,5.5,7C4.94,7,4.37,6.67,4.25,6ZM3.9,4.49C3.9,4.17,4.17,3.9,4.5,3.9C4.83,3.9,5.1,4.17,5.1,4.49C5.1,4.83,4.83,5.1,4.5,5.1C4.17,5.1,3.9,4.83,3.9,4.49ZM5.9,4.49C5.9,4.17,6.17,3.9,6.5,3.9C6.83,3.9,7.1,4.17,7.1,4.49C7.1,4.83,6.83,5.1,6.5,5.1C6.17,5.1,5.9,4.83,5.9,4.49ZM8,4L9,4L9,3C9,2.35,8.65,2,8,2L7,2L7,3L8,3ZM4,9L4,8L3,8L3,7L2,7L2,8C2,8.65,2.35,9,3,9ZM2,4L3,4L3,3L4,3L4,2L3,2C2.35,2,2,2.35,2,3ZM7,9L8,9C8.65,9,9,8.65,9,8L9,7L8,7L8,8L7,8Z" fill="#000000"/></svg>