<svg xmlns="http://www.w3.org/2000/svg" viewBox="0 0 1100 1100"><path d="M300,838L300,402C300,339.27,345.78,290,400,290C454.22,290,500,339.27,500,402L500,698C500,813.27,588.22,910,700,910C811.78,910,900,813.27,900,698L900,262L800,262L800,698C800,760.73,754.22,810,700,810C645.78,810,600,760.73,600,698L600,402C600,286.73,511.78,190,400,190C288.22,190,200,286.73,200,402L200,838Z" fill="currentColor"/><path d="M400,762L100,762L250,950Z" fill="currentColor"/><path d="M700,338L1000,338L850,150Z" fill="currentColor"/></svg>