<svg xmlns="http://www.w3.org/2000/svg" viewBox="0 0 1100 1100"><path d="M475,550C475,508.51,508.51,475,550,475C591.49,475,625,508.51,625,550C625,591.49,591.49,625,550,625C508.51,625,475,591.49,475,550Z" fill="currentColor"/><path d="M725,550C725,453.49,646.51,375,550,375C453.49,375,375,453.49,375,550C375,646.51,453.49,725,550,725C646.51,725,725,646.51,725,550Z" fill="currentColor"/><path d="M600,900L600,675L500,675L500,900Z" fill="currentColor"/><path d="M600,425L600,200L500,200L500,425Z" fill="currentColor"/></svg>