<svg xmlns="http://www.w3.org/2000/svg" viewBox="0 0 1100 1100"><path d="M401,900L701,900L701,400L401,400Z" fill="currentColor"/><path d="M445.36,319.36C483.2,281.52,517.78,265,551,265C584.44,265,619.67,281.56,656.26,318.96L727.74,249.03C674.33,194.43,613.56,164.99,551,164.99C488.42,164.99,428.66,194.62,374.64,248.63Z" fill="currentColor"/><path d="M490,550C490,516,515,490,550,490C584,490,610,516,610,550C610,585,584,610,550,610C515,610,490,585,490,550Z" fill="currentColor"/><path d="M489,400L614,400L551,350Z" fill="currentColor"/></svg>