<svg xmlns="http://www.w3.org/2000/svg" viewBox="0 0 1100 1100"><path d="M423.74,900C402.1,853.97,390,803.03,390,750C390,556,552,390,750,390C766.91,390,783.61,391.26,800,393.69L800,300C800,235,765,200,700,200L200,200C135,200,100,235,100,300L100,800C100,865,135,900,200,900Z" fill="currentColor"/><path d="M1010,750C1010,610,890,490,750,490C607,490,490,610,490,750C490,890,607,1010,750,1010C890,1010,1010,890,1010,750Z" fill="currentColor"/><path d="M700,800L700,600L800,600L800,700L900,700L900,800Z" fill="currentColor"/><path d="M250,200L350,200L350,100L250,100Z" fill="currentColor"/><path d="M550,200L650,200L650,100L550,100Z" fill="currentColor"/></svg>