<svg xmlns="http://www.w3.org/2000/svg" viewBox="0 0 11 11"><path d="M6.1,2.51C6.1,2.17,5.84,1.9,5.5,1.9C5.16,1.9,4.9,2.17,4.9,2.51C4.9,2.85,5.16,3.1,5.5,3.1C5.84,3.1,6.1,2.85,6.1,2.51ZM3.1,8.5C3.1,8.16,2.83,7.9,2.49,7.9C2.16,7.9,1.9,8.16,1.9,8.5C1.9,8.84,2.16,9.1,2.49,9.1C2.83,9.1,3.1,8.84,3.1,8.5ZM3.1,5.5C3.1,5.16,2.83,4.9,2.49,4.9C2.16,4.9,1.9,5.16,1.9,5.5C1.9,5.84,2.16,6.1,2.49,6.1C2.83,6.1,3.1,5.84,3.1,5.5ZM3.1,2.5C3.1,2.16,2.83,1.9,2.49,1.9C2.16,1.9,1.9,2.16,1.9,2.5C1.9,2.84,2.16,3.1,2.49,3.1C2.83,3.1,3.1,2.84,3.1,2.5ZM9.1,2.51C9.1,2.17,8.83,1.91,8.49,1.91C8.16,1.91,7.9,2.17,7.9,2.51C7.9,2.85,8.16,3.1,8.49,3.1C8.83,3.1,9.1,2.85,9.1,2.51ZM9.1,6.5C9.1,5.35,8.15,4.4,7,4.4C5.84,4.4,4.9,5.36,4.9,6.5C4.9,7.63,5.84,8.6,7,8.6C8.15,8.6,9.1,7.63,9.1,6.5ZM5.9,6.5C5.9,5.9,6.4,5.4,7,5.4C7.59,5.4,8.1,5.91,8.1,6.5C8.1,7.09,7.59,7.6,7,7.6C6.4,7.6,5.9,7.09,5.9,6.5ZM8.75,7.54L8.04,8.25L9.79,10L10.5,9.29Z" fill="#000000"/></svg>