<svg xmlns="http://www.w3.org/2000/svg" viewBox="0 0 11 11"><path d="M4.05,6.5C4.05,6.18,3.82,5.95,3.5,5.95C3.18,5.95,2.95,6.18,2.95,6.5C2.95,6.82,3.18,7.05,3.5,7.05C3.82,7.05,4.05,6.82,4.05,6.5Z" fill="#000000"/><path d="M6.05,8.5C6.05,8.18,5.82,7.95,5.5,7.95C5.18,7.95,4.95,8.18,4.95,8.5C4.95,8.82,5.18,9.05,5.5,9.05C5.82,9.05,6.05,8.82,6.05,8.5Z" fill="#000000"/><path d="M4.05,4.5C4.05,4.18,3.82,3.95,3.5,3.95C3.18,3.95,2.95,4.18,2.95,4.5C2.95,4.82,3.18,5.05,3.5,5.05C3.82,5.05,4.05,4.82,4.05,4.5Z" fill="#000000"/><path d="M6.05,6.5C6.05,6.18,5.82,5.95,5.5,5.95C5.18,5.95,4.95,6.18,4.95,6.5C4.95,6.82,5.18,7.05,5.5,7.05C5.82,7.05,6.05,6.82,6.05,6.5Z" fill="#000000"/><path d="M4.05,2.5C4.05,2.18,3.82,1.95,3.5,1.95C3.18,1.95,2.95,2.18,2.95,2.5C2.95,2.82,3.18,3.05,3.5,3.05C3.82,3.05,4.05,2.82,4.05,2.5Z" fill="#000000"/><path d="M6.05,4.5C6.05,4.18,5.82,3.95,5.5,3.95C5.18,3.95,4.95,4.18,4.95,4.5C4.95,4.82,5.18,5.05,5.5,5.05C5.82,5.05,6.05,4.82,6.05,4.5Z" fill="#000000"/><path d="M8.05,6.5C8.05,6.18,7.82,5.95,7.5,5.95C7.18,5.95,6.95,6.18,6.95,6.5C6.95,6.82,7.18,7.05,7.5,7.05C7.82,7.05,8.05,6.82,8.05,6.5Z" fill="#000000"/><path d="M6.05,2.5C6.05,2.18,5.82,1.95,5.5,1.95C5.18,1.95,4.95,2.18,4.95,2.5C4.95,2.82,5.18,3.05,5.5,3.05C5.82,3.05,6.05,2.82,6.05,2.5Z" fill="#000000"/><path d="M8.05,4.5C8.05,4.18,7.82,3.95,7.5,3.95C7.18,3.95,6.95,4.18,6.95,4.5C6.95,4.82,7.18,5.05,7.5,5.05C7.82,5.05,8.05,4.82,8.05,4.5Z" fill="#000000"/><path d="M8.05,2.5C8.05,2.18,7.82,1.95,7.5,1.95C7.18,1.95,6.95,2.18,6.95,2.5C6.95,2.82,7.18,3.05,7.5,3.05C7.82,3.05,8.05,2.82,8.05,2.5Z" fill="#000000"/></svg>