<svg xmlns="http://www.w3.org/2000/svg" viewBox="0 0 11 11"><path d="M2.71,7.68L3.32,7.33C4.16,6.83,5,7.32,5,8.3L5,9L6,9L6,8.3C6,7.34,6.84,6.85,7.67,7.32L8.28,7.68L8.77,6.82L8.17,6.47C7.31,5.98,7.31,5.01,8.17,4.53L8.77,4.18L8.28,3.32L7.66,3.68C6.83,4.13,6,3.64,6,2.7L6,2L5,2L5,2.7C5,3.66,4.17,4.15,3.33,3.68L2.72,3.32L2.23,4.18L2.83,4.53C3.67,5.01,3.66,5.98,2.82,6.47L2.22,6.81ZM4.18,5.5C4.18,4.82,4.74,4.25,5.43,4.25C6.11,4.25,6.68,4.82,6.68,5.5C6.68,6.17,6.11,6.75,5.43,6.75C4.74,6.75,4.18,6.17,4.18,5.5Z" fill="#000000"/></svg>