<svg xmlns="http://www.w3.org/2000/svg" viewBox="0 0 11 11"><path d="M4.5,3L9,3L9,2L4.5,2Z" fill="#000000"/><path d="M4.5,9L9,9L9,8L4.5,8Z" fill="#000000"/><path d="M4.5,6L9,6L9,5L4.5,5Z" fill="#000000"/><path d="M3.1,2.49C3.1,2.16,2.84,1.9,2.5,1.9C2.16,1.9,1.9,2.16,1.9,2.49C1.9,2.84,2.16,3.1,2.5,3.1C2.84,3.1,3.1,2.84,3.1,2.49Z" fill="#000000"/><path d="M3.1,5.5C3.1,5.17,2.83,4.9,2.5,4.9C2.16,4.9,1.9,5.17,1.9,5.5C1.9,5.83,2.16,6.1,2.5,6.1C2.83,6.1,3.1,5.83,3.1,5.5Z" fill="#000000"/><path d="M3.1,8.49C3.1,8.16,2.84,7.9,2.5,7.9C2.16,7.9,1.9,8.16,1.9,8.49C1.9,8.84,2.16,9.1,2.5,9.1C2.84,9.1,3.1,8.84,3.1,8.49Z" fill="#000000"/></svg>