<svg xmlns="http://www.w3.org/2000/svg" viewBox="0 0 1100 1100"><path d="M300,800L300,370.76L729.76,800Z" fill="currentColor"/><path d="M800,900C809.86,900,819.02,899.2,827.48,897.6L930,1000L1000,930L171,100L100,171L202.28,273.16C200.77,281.44,200,290.4,200,300L200,800C200,865,235,900,300,900Z" fill="currentColor"/><path d="M800,300C800,300,800,300,800,300L800,588L900,688L900,300C900,235,865,200,800,200L412,200L512,300Z" fill="currentColor"/><path d="M700,200L800,200L800,100L700,100Z" fill="currentColor"/></svg>