<svg xmlns="http://www.w3.org/2000/svg" viewBox="0 0 11 11"><path d="M3.26,2.49C3.26,2.07,2.93,1.75,2.51,1.75C2.08,1.75,1.76,2.07,1.76,2.49C1.76,2.93,2.08,3.25,2.51,3.25C2.93,3.25,3.26,2.93,3.26,2.49Z" fill="#000000"/><path d="M3.26,5.5C3.26,5.08,2.93,4.75,2.51,4.75C2.08,4.75,1.75,5.08,1.75,5.5C1.75,5.92,2.08,6.25,2.51,6.25C2.93,6.25,3.26,5.92,3.26,5.5Z" fill="#000000"/><path d="M3.26,8.49C3.26,8.07,2.93,7.75,2.51,7.75C2.08,7.75,1.76,8.07,1.76,8.49C1.76,8.93,2.08,9.25,2.51,9.25C2.93,9.25,3.26,8.93,3.26,8.49Z" fill="#000000"/><path d="M9.25,2.49C9.25,2.07,8.93,1.75,8.5,1.75C8.08,1.75,7.75,2.07,7.75,2.49C7.75,2.93,8.08,3.25,8.5,3.25C8.93,3.25,9.25,2.93,9.25,2.49Z" fill="#000000"/><path d="M9.26,5.5C9.26,5.08,8.93,4.75,8.5,4.75C8.08,4.75,7.75,5.08,7.75,5.5C7.75,5.92,8.08,6.25,8.5,6.25C8.93,6.25,9.26,5.92,9.26,5.5Z" fill="#000000"/><path d="M9.25,8.49C9.25,8.07,8.93,7.75,8.5,7.75C8.08,7.75,7.75,8.07,7.75,8.49C7.75,8.93,8.08,9.25,8.5,9.25C8.93,9.25,9.25,8.93,9.25,8.49Z" fill="#000000"/><path d="M6.25,2.49C6.25,2.07,5.93,1.75,5.5,1.75C5.08,1.75,4.75,2.07,4.75,2.49C4.75,2.93,5.08,3.25,5.5,3.25C5.93,3.25,6.25,2.93,6.25,2.49Z" fill="#000000"/><path d="M6.26,5.5C6.26,5.08,5.93,4.75,5.5,4.75C5.08,4.75,4.75,5.08,4.75,5.5C4.75,5.92,5.08,6.25,5.5,6.25C5.93,6.25,6.26,5.92,6.26,5.5Z" fill="#000000"/><path d="M6.25,8.49C6.25,8.07,5.93,7.75,5.5,7.75C5.08,7.75,4.75,8.07,4.75,8.49C4.75,8.93,5.08,9.25,5.5,9.25C5.93,9.25,6.25,8.93,6.25,8.49Z" fill="#000000"/></svg>