<svg xmlns="http://www.w3.org/2000/svg" viewBox="0 0 11 11"><path d="M2.01,2L2.01,6L4.52,6L5.5,7L6.52,6L9.01,6L9.01,2Z" fill="#000000"/><path d="M4.9,8.5C4.9,8.16,5.15,7.9,5.5,7.9C5.84,7.9,6.1,8.16,6.1,8.5C6.1,8.85,5.84,9.1,5.5,9.1C5.15,9.1,4.9,8.85,4.9,8.5Z" fill="#000000"/><path d="M1.9,8.5C1.9,8.16,2.15,7.9,2.5,7.9C2.84,7.9,3.1,8.16,3.1,8.5C3.1,8.85,2.84,9.1,2.5,9.1C2.15,9.1,1.9,8.85,1.9,8.5Z" fill="#000000"/><path d="M7.9,8.5C7.9,8.16,8.15,7.9,8.5,7.9C8.84,7.9,9.1,8.16,9.1,8.5C9.1,8.85,8.84,9.1,8.5,9.1C8.15,9.1,7.9,8.85,7.9,8.5Z" fill="#000000"/></svg>