<svg xmlns="http://www.w3.org/2000/svg" viewBox="0 0 1100 1100"><path d="M800,900C865,900,900,865,900,800L900,300C900,235,865,200,800,200L300,200C235,200,200,235,200,300L200,800C200,865,235,900,300,900Z" fill="currentColor"/><path d="M350,200L450,200L450,100L350,100Z" fill="currentColor"/><path d="M650,200L750,200L750,100L650,100Z" fill="currentColor"/><path d="M550,740L389,564C364,536,350,506,350,479C350,428,392,390,442,390C468,390,495,400,516,420L550,456L585,420C606,400,633,390,659,390C710,390,750,428,750,479C750,507,737,536,712,564Z" fill="currentColor"/></svg>