<svg xmlns="http://www.w3.org/2000/svg" viewBox="0 0 11 11"><path d="M2.75,3.5C2.75,3.09,3.09,2.75,3.5,2.75C3.91,2.75,4.25,3.09,4.25,3.5C4.25,3.91,3.91,4.25,3.5,4.25C3.09,4.25,2.75,3.91,2.75,3.5ZM5.25,3.5C5.25,2.53,4.47,1.75,3.5,1.75C2.53,1.75,1.75,2.53,1.75,3.5C1.75,4.47,2.53,5.25,3.5,5.25C4.47,5.25,5.25,4.47,5.25,3.5ZM4,9L4,4.75L3,4.75L3,9ZM6.75,7.5C6.75,7.09,7.09,6.75,7.5,6.75C7.91,6.75,8.25,7.09,8.25,7.5C8.25,7.91,7.91,8.25,7.5,8.25C7.09,8.25,6.75,7.91,6.75,7.5ZM9.25,7.5C9.25,6.53,8.47,5.75,7.5,5.75C6.53,5.75,5.75,6.53,5.75,7.5C5.75,8.47,6.53,9.25,7.5,9.25C8.47,9.25,9.25,8.47,9.25,7.5ZM5.96,4L6.58,4C6.82,4,7,4.18,7,4.38L7,6.75L8,6.75L8,4.38C8,3.65,7.4,3,6.58,3L5.96,3Z" fill="#000000"/></svg>