<svg xmlns="http://www.w3.org/2000/svg" viewBox="0 0 1100 1100"><path d="M700,900L900,900L900,800L700,800Z" fill="currentColor"/><path d="M600,500L900,500L900,400L600,400Z" fill="currentColor"/><path d="M600,300L900,300L900,200L600,200Z" fill="currentColor"/><path d="M529,800L500,800C347.37,800,225,686.33,225,550C225,413.67,347.37,300,500,300L500,200C294.63,200,125,356.33,125,550C125,743.67,294.63,900,500,900L529,900Z" fill="currentColor"/><path d="M450,700L450,1000L625,850Z" fill="currentColor"/><path d="M600,700L900,700L900,600L600,600Z" fill="currentColor"/></svg>