<svg xmlns="http://www.w3.org/2000/svg" viewBox="0 0 11 11"><path d="M6,5.5L6,5.13C6,4.46,5.5,3.9,4.91,3.9C3.84,3.9,3.97,5,2.7,5L2,5L2,6L2.7,6C4.35,6,4.77,4.9,4.91,4.9C4.92,4.9,5,4.98,5,5.13L5,5.5ZM5,5.5L5,5.87C5,6.54,5.5,7.1,6.09,7.1C7.16,7.1,7.03,6,8.3,6L9,6L9,5L8.3,5C6.65,5,6.23,6.1,6.09,6.1C6.08,6.1,6,6.02,6,5.87L6,5.5ZM8,4L9,4L9,3C9,2.35,8.65,2,8,2L7,2L7,3L8,3ZM4,9L4,8L3,8L3,7L2,7L2,8C2,8.65,2.35,9,3,9ZM2,4L3,4L3,3L4,3L4,2L3,2C2.35,2,2,2.35,2,3ZM7,9L8,9C8.65,9,9,8.65,9,8L9,7L8,7L8,8L7,8Z" fill="#000000"/></svg>