<svg xmlns="http://www.w3.org/2000/svg" viewBox="0 0 11 11"><path d="M2,9L9,9L9,3L5,3L5,2L2,2ZM5.01,8.01L5.01,7.5C5.01,7.19,4.73,7.03,4.45,7.19L4.02,7.44L3.52,6.58L3.95,6.33C4.24,6.16,4.25,5.85,3.97,5.7L3.52,5.45L4.02,4.59L4.45,4.84C4.73,5,5.01,4.83,5.01,4.51L5.01,4.01L6,4.01L5.99,4.52C5.98,4.84,6.25,5,6.55,4.83L6.98,4.58L7.48,5.44L7.05,5.69C6.77,5.85,6.76,6.18,7.04,6.34L7.48,6.59L6.97,7.45L6.56,7.2C6.28,7.03,5.99,7.18,5.99,7.51L5.99,8.01ZM6.11,6.02C6.11,5.69,5.84,5.42,5.51,5.42C5.18,5.42,4.91,5.69,4.91,6.02C4.91,6.34,5.18,6.62,5.51,6.62C5.84,6.62,6.11,6.34,6.11,6.02Z" fill="#000000"/></svg>