<svg xmlns="http://www.w3.org/2000/svg" viewBox="0 0 11 11"><path d="M3.09,2.5C3.09,2.15,2.84,1.9,2.49,1.9C2.14,1.9,1.89,2.15,1.89,2.5C1.89,2.85,2.14,3.1,2.49,3.1C2.84,3.1,3.09,2.85,3.09,2.5Z" fill="#000000"/><path d="M9.09,8.5C9.09,8.15,8.84,7.9,8.49,7.9C8.14,7.9,7.89,8.15,7.89,8.5C7.89,8.85,8.14,9.1,8.49,9.1C8.84,9.1,9.09,8.85,9.09,8.5Z" fill="#000000"/><path d="M7.09,8.5C7.09,8.15,6.84,7.9,6.49,7.9C6.14,7.9,5.89,8.15,5.89,8.5C5.89,8.85,6.14,9.1,6.49,9.1C6.84,9.1,7.09,8.85,7.09,8.5Z" fill="#000000"/><path d="M7.09,6.5C7.09,6.15,6.84,5.9,6.49,5.9C6.14,5.9,5.89,6.15,5.89,6.5C5.89,6.85,6.14,7.1,6.49,7.1C6.84,7.1,7.09,6.85,7.09,6.5Z" fill="#000000"/><path d="M5.09,8.5C5.09,8.15,4.84,7.9,4.49,7.9C4.14,7.9,3.89,8.15,3.89,8.5C3.89,8.85,4.14,9.1,4.49,9.1C4.84,9.1,5.09,8.85,5.09,8.5Z" fill="#000000"/><path d="M5.09,6.5C5.09,6.15,4.84,5.9,4.49,5.9C4.14,5.9,3.89,6.15,3.89,6.5C3.89,6.85,4.14,7.1,4.49,7.1C4.84,7.1,5.09,6.85,5.09,6.5Z" fill="#000000"/><path d="M3.09,8.5C3.09,8.15,2.84,7.9,2.49,7.9C2.14,7.9,1.89,8.15,1.89,8.5C1.89,8.85,2.14,9.1,2.49,9.1C2.84,9.1,3.09,8.85,3.09,8.5Z" fill="#000000"/><path d="M5.09,4.5C5.09,4.15,4.84,3.9,4.49,3.9C4.14,3.9,3.89,4.15,3.89,4.5C3.89,4.85,4.14,5.1,4.49,5.1C4.84,5.1,5.09,4.85,5.09,4.5Z" fill="#000000"/><path d="M3.09,6.5C3.09,6.15,2.84,5.9,2.49,5.9C2.14,5.9,1.89,6.15,1.89,6.5C1.89,6.85,2.14,7.1,2.49,7.1C2.84,7.1,3.09,6.85,3.09,6.5Z" fill="#000000"/><path d="M3.09,4.5C3.09,4.15,2.84,3.9,2.49,3.9C2.14,3.9,1.89,4.15,1.89,4.5C1.89,4.85,2.14,5.1,2.49,5.1C2.84,5.1,3.09,4.85,3.09,4.5Z" fill="#000000"/></svg>