<svg xmlns="http://www.w3.org/2000/svg" viewBox="0 0 11 11"><path d="M9.13,3C9.13,2.24,8.51,1.62,7.75,1.62C6.99,1.62,6.38,2.24,6.38,3C6.38,3.76,6.99,4.37,7.75,4.37C8.51,4.37,9.13,3.76,9.13,3ZM2.75,3.75L2.75,4.92C2.75,5.59,3.17,6,3.87,6L7.13,6C7.83,6,8.25,5.59,8.25,4.92L8.25,3.75L7.25,3.75L7.25,4.92C7.25,5,7.25,5,7.13,5L3.87,5C3.75,5,3.75,5,3.75,4.92L3.75,3.75ZM4.63,3C4.63,2.24,4.01,1.62,3.25,1.62C2.49,1.62,1.88,2.24,1.88,3C1.88,3.76,2.49,4.37,3.25,4.37C4.01,4.37,4.63,3.76,4.63,3ZM6.87,8C6.87,7.24,6.25,6.62,5.49,6.62C4.73,6.62,4.12,7.24,4.12,8C4.12,8.76,4.73,9.37,5.49,9.37C6.25,9.37,6.87,8.76,6.87,8ZM5.99,7.25L5.99,5.5L4.99,5.5L4.99,7.25ZM5,8C5,7.72,5.22,7.49,5.49,7.49C5.77,7.49,6,7.72,6,8C6,8.27,5.77,8.49,5.49,8.49C5.22,8.49,5,8.27,5,8ZM2.76,3C2.76,2.72,2.98,2.49,3.25,2.49C3.53,2.49,3.76,2.72,3.76,3C3.76,3.27,3.53,3.49,3.25,3.49C2.98,3.49,2.76,3.27,2.76,3ZM7.26,3C7.26,2.72,7.48,2.49,7.75,2.49C8.03,2.49,8.26,2.72,8.26,3C8.26,3.27,8.03,3.49,7.75,3.49C7.48,3.49,7.26,3.27,7.26,3Z" fill="#000000"/></svg>