<svg xmlns="http://www.w3.org/2000/svg" viewBox="0 0 11 11"><path d="M9.11,2.5C9.11,2.15,8.86,1.9,8.51,1.9C8.16,1.9,7.91,2.15,7.91,2.5C7.91,2.85,8.16,3.1,8.51,3.1C8.86,3.1,9.11,2.85,9.11,2.5Z" fill="#000000"/><path d="M3.11,8.5C3.11,8.15,2.86,7.9,2.51,7.9C2.16,7.9,1.91,8.15,1.91,8.5C1.91,8.85,2.16,9.1,2.51,9.1C2.86,9.1,3.11,8.85,3.11,8.5Z" fill="#000000"/><path d="M5.11,8.5C5.11,8.15,4.86,7.9,4.51,7.9C4.16,7.9,3.91,8.15,3.91,8.5C3.91,8.85,4.16,9.1,4.51,9.1C4.86,9.1,5.11,8.85,5.11,8.5Z" fill="#000000"/><path d="M5.11,6.5C5.11,6.15,4.86,5.9,4.51,5.9C4.16,5.9,3.91,6.15,3.91,6.5C3.91,6.85,4.16,7.1,4.51,7.1C4.86,7.1,5.11,6.85,5.11,6.5Z" fill="#000000"/><path d="M7.11,8.5C7.11,8.15,6.86,7.9,6.51,7.9C6.16,7.9,5.91,8.15,5.91,8.5C5.91,8.85,6.16,9.1,6.51,9.1C6.86,9.1,7.11,8.85,7.11,8.5Z" fill="#000000"/><path d="M7.11,6.5C7.11,6.15,6.86,5.9,6.51,5.9C6.16,5.9,5.91,6.15,5.91,6.5C5.91,6.85,6.16,7.1,6.51,7.1C6.86,7.1,7.11,6.85,7.11,6.5Z" fill="#000000"/><path d="M9.11,8.5C9.11,8.15,8.86,7.9,8.51,7.9C8.16,7.9,7.91,8.15,7.91,8.5C7.91,8.85,8.16,9.1,8.51,9.1C8.86,9.1,9.11,8.85,9.11,8.5Z" fill="#000000"/><path d="M7.11,4.5C7.11,4.15,6.86,3.9,6.51,3.9C6.16,3.9,5.91,4.15,5.91,4.5C5.91,4.85,6.16,5.1,6.51,5.1C6.86,5.1,7.11,4.85,7.11,4.5Z" fill="#000000"/><path d="M9.11,6.5C9.11,6.15,8.86,5.9,8.51,5.9C8.16,5.9,7.91,6.15,7.91,6.5C7.91,6.85,8.16,7.1,8.51,7.1C8.86,7.1,9.11,6.85,9.11,6.5Z" fill="#000000"/><path d="M9.11,4.5C9.11,4.15,8.86,3.9,8.51,3.9C8.16,3.9,7.91,4.15,7.91,4.5C7.91,4.85,8.16,5.1,8.51,5.1C8.86,5.1,9.11,4.85,9.11,4.5Z" fill="#000000"/></svg>