<svg xmlns="http://www.w3.org/2000/svg" viewBox="0 0 1100 1100"><path d="M534.5,598L560.5,618C606.5,653,605.5,699,559.5,733L534.5,752L575.5,822L604.5,809C657.5,787,699.5,809,704.5,868L708.5,900L790.5,899L794.5,867C802.5,810,840.5,786,895.5,810L923.5,822L964.5,752L938.5,734C892.5,701,892.5,651,938.5,617L964.5,597L923.5,528L894.5,540C841.5,563,803.5,539,794.5,482L791.5,450L709.5,450L704.5,481C697.5,539,659.5,563,603.5,540L575.5,528Z" fill="currentColor"/><path d="M747.5,591C793.5,591,830.5,629,830.5,675C830.5,718,793.5,757,747.5,757C702.5,757,665.5,718,665.5,675C665.5,629,702.5,591,747.5,591Z" fill="currentColor"/><path d="M272.5,640L292.5,614C327.5,568,373.5,569,407.5,615L426.5,640L496.5,599L483.5,570C461.5,517,483.5,475,542.5,470L574.5,466L573.5,384L541.5,380C484.5,372,460.5,334,484.5,279L496.5,251L426.5,210L408.5,236C375.5,282,325.5,282,291.5,236L271.5,210L202.5,251L214.5,280C237.5,333,213.5,371,156.5,380L124.5,383L124.5,465L155.5,470C213.5,477,237.5,515,214.5,571L202.5,599Z" fill="currentColor"/><path d="M265.5,427C265.5,381,303.5,344,349.5,344C392.5,344,431.5,381,431.5,427C431.5,472,392.5,509,349.5,509C303.5,509,265.5,472,265.5,427Z" fill="currentColor"/></svg>