<svg xmlns="http://www.w3.org/2000/svg" viewBox="0 0 11 11"><path d="M4,7L4,6.99C4,6.07,4.53,5.65,5.5,5.65C6.47,5.65,7,6.07,7,6.99L7,7Z" fill="#000000"/><path d="M4.9,4.5C4.9,4.17,5.16,3.9,5.51,3.9C5.83,3.9,6.1,4.17,6.1,4.5C6.1,4.83,5.83,5.1,5.51,5.1C5.16,5.1,4.9,4.83,4.9,4.5Z" fill="#000000"/><path d="M8,4L9,4L9,3C9,2.35,8.65,2,8,2L7,2L7,3L8,3Z" fill="#000000"/><path d="M4,9L4,8L3,8L3,7L2,7L2,8C2,8.65,2.35,9,3,9Z" fill="#000000"/><path d="M2,4L3,4L3,3L4,3L4,2L3,2C2.35,2,2,2.35,2,3Z" fill="#000000"/><path d="M7,9L8,9C8.65,9,9,8.65,9,8L9,7L8,7L8,8L7,8Z" fill="#000000"/></svg>