<svg xmlns="http://www.w3.org/2000/svg" viewBox="0 0 1100 1100"><path d="M250,900L650,900L650,800L500,800L500,700L400,700L400,800L250,800Z" fill="currentColor"/><path d="M100,200L100,700L500,700L500,300L600,300L600,200Z" fill="currentColor"/><path d="M600,700L1000,700L1000,400L600,400Z" fill="currentColor"/><path d="M738.5,438L738.5,354C738.5,320.89,763.07,286.5,799,286.5C837.1,286.5,863.5,321.39,863.5,354L863.5,438L938.5,438L938.5,354C938.5,286.61,884.9,211.5,799,211.5C714.93,211.5,663.5,287.11,663.5,354L663.5,438Z" fill="currentColor"/></svg>