<svg xmlns="http://www.w3.org/2000/svg" viewBox="0 0 1100 1100"><path d="M625,550C625,374,561,295,458,295C355,295,290,374,290,550C290,726,355,805,458,805C561,805,625,726,625,550Z" fill="currentColor"/><path d="M100,800L200,800L200,300L50,300L50,400L100,400Z" fill="currentColor"/><path d="M390,550C390,435,416,395,458,395C499,395,525,435,525,550C525,665,499,705,458,705C416,705,390,665,390,550Z" fill="currentColor"/><path d="M1025,550C1025,374,961,295,858,295C755,295,690,374,690,550C690,726,755,805,858,805C961,805,1025,726,1025,550Z" fill="currentColor"/><path d="M790,550C790,435,816,395,858,395C899,395,925,435,925,550C925,665,899,705,858,705C816,705,790,665,790,550Z" fill="currentColor"/></svg>