<svg xmlns="http://www.w3.org/2000/svg" viewBox="0 0 1100 1100"><path d="M500,800L500,764C501,691,451,663,390,700L359,718L308,632L339,614C398,578,398,520,340,486L308,468L359,382L389,399C450,434,500,405,500,334L500,300L600,300L600,336C599,407,649,436,711,399L741,382L792,468L760,486C701,522,701,579,761,614L792,632L741,718L711,701C651,666,601,694,600,763L600,799Z" fill="currentColor"/><path d="M629,550C629,506,593,469,548,469C504,469,469,506,469,550C469,591,504,629,548,629C593,629,629,591,629,550Z" fill="currentColor"/><path d="M800,900C865,900,900,865,900,800L900,300C900,235,865,200,800,200L300,200C235,200,200,235,200,300L200,800C200,865,235,900,300,900Z" fill="currentColor"/><path d="M350,200L450,200L450,100L350,100Z" fill="currentColor"/><path d="M650,200L750,200L750,100L650,100Z" fill="currentColor"/></svg>