<svg xmlns="http://www.w3.org/2000/svg" viewBox="0 0 11 11"><path d="M7,5C7.83,5,8.5,4.31,8.5,3.5C8.5,2.69,7.83,2,7,2L4,2C3.18,2,2.5,2.69,2.5,3.5C2.5,4.31,3.18,5,4,5ZM7,9C7.82,9,8.5,8.31,8.5,7.5C8.5,6.69,7.82,6,7,6L4,6C3.17,6,2.5,6.69,2.5,7.5C2.5,8.31,3.17,9,4,9ZM6.36,7.5C6.36,7.15,6.65,6.84,7,6.84C7.36,6.84,7.66,7.15,7.66,7.5C7.66,7.84,7.36,8.14,7,8.14C6.65,8.14,6.36,7.84,6.36,7.5ZM3.36,3.5C3.36,3.15,3.64,2.84,4,2.84C4.35,2.84,4.66,3.15,4.66,3.5C4.66,3.84,4.35,4.14,4,4.14C3.64,4.14,3.36,3.84,3.36,3.5Z" fill="#000000"/></svg>