<svg xmlns="http://www.w3.org/2000/svg" viewBox="0 0 1100 1100"><path d="M800,900C865,900,900,865,900,800L900,300C900,235,865,200,800,200L300,200C235,200,200,235,200,300L200,800C200,865,235,900,300,900Z" fill="currentColor"/><path d="M350,200L450,200L450,100L350,100Z" fill="currentColor"/><path d="M650,200L750,200L750,100L650,100Z" fill="currentColor"/><path d="M500,575L500,350L600,350L600,575Z" fill="currentColor"/><path d="M490,700C490,667,517,640,549,640C583,640,610,667,610,700C610,733,583,760,549,760C517,760,490,733,490,700Z" fill="currentColor"/></svg>