<svg xmlns="http://www.w3.org/2000/svg" viewBox="0 0 1100 1100"><path d="M550.36,930.36C554.72,926,545.29,926,549.65,930.36L620.36,859.65C581.7,820.99,518.31,820.99,479.65,859.65Z" fill="currentColor"/><path d="M396.36,776.36C478.91,693.81,621.1,693.81,703.65,776.36L774.36,705.65C652.91,584.2,447.1,584.2,325.65,705.65Z" fill="currentColor"/><path d="M90.36,470.36C337.91,222.81,762.1,222.81,1009.65,470.36L1080.36,399.65C793.91,113.2,306.1,113.2,19.65,399.65Z" fill="currentColor"/><path d="M243.26,623.45C408.81,458.79,691.19,458.79,856.74,623.45L927.26,552.55C722.81,349.21,377.19,349.21,172.74,552.55Z" fill="currentColor"/></svg>