<svg xmlns="http://www.w3.org/2000/svg" viewBox="0 0 1100 1100"><path d="M550,800L550,400L625,400L625,508C640,503,657,500,675,500C752,500,800,544,800,636L800,800L725,800L725,636C725,583,706,575,675,575C644,575,625,583,625,636L625,800Z" fill="currentColor"/><path d="M388,800L388,475L300,475L300,400L550,400L550,475L463,475L463,800Z" fill="currentColor"/><path d="M800,900C865,900,900,865,900,800L900,300C900,235,865,200,800,200L300,200C235,200,200,235,200,300L200,800C200,865,235,900,300,900Z" fill="currentColor"/><path d="M350,200L450,200L450,100L350,100Z" fill="currentColor"/><path d="M650,200L750,200L750,100L650,100Z" fill="currentColor"/></svg>