<svg xmlns="http://www.w3.org/2000/svg" viewBox="0 0 1100 1100"><path d="M275,350C275,308.51,308.51,275,350,275C391.49,275,425,308.51,425,350C425,391.49,391.49,425,350,425C308.51,425,275,391.49,275,350Z" fill="currentColor"/><path d="M525,350C525,253.49,446.51,175,350,175C253.49,175,175,253.49,175,350C175,446.51,253.49,525,350,525C446.51,525,525,446.51,525,350Z" fill="currentColor"/><path d="M400,900L400,475L300,475L300,900Z" fill="currentColor"/><path d="M675,750C675,708.51,708.51,675,750,675C791.49,675,825,708.51,825,750C825,791.49,791.49,825,750,825C708.51,825,675,791.49,675,750Z" fill="currentColor"/><path d="M925,750C925,653.49,846.51,575,750,575C653.49,575,575,653.49,575,750C575,846.51,653.49,925,750,925C846.51,925,925,846.51,925,750Z" fill="currentColor"/><path d="M596,400L658,400C681.85,400,700,417.87,700,438L700,675L800,675L800,438C800,365.4,739.75,300,658,300L596,300Z" fill="currentColor"/></svg>