<svg xmlns="http://www.w3.org/2000/svg" viewBox="0 0 1100 1100"><path d="M261,677L332,632C355,666,371,683,395,683C417,683,438,668,438,641C438,612,420,596,387,596L334,596L334,512L387,512C420,512,438,492,438,467C438,440,417,425,395,425C369,425,355,442,332,476L261,431C288,371,333,335,395,335C487,335,528,397,528,461C528,503,511,533,486,554C511,575,528,605,528,647C528,711,487,773,395,773C333,773,288,737,261,677Z" fill="currentColor"/><path d="M559,593L559,515C559,403,603,335,695,335C786,335,829,403,829,515L829,593C829,705,786,773,695,773C603,773,559,705,559,593Z" fill="currentColor"/><path d="M729,613L729,495C729,451,718,435,695,435C671,435,659,451,659,496L659,612C659,657,671,673,695,673C718,673,729,657,729,613Z" fill="currentColor"/><path d="M800,900C865,900,900,865,900,800L900,300C900,235,865,200,800,200L300,200C235,200,200,235,200,300L200,800C200,865,235,900,300,900Z" fill="currentColor"/><path d="M350,200L450,200L450,100L350,100Z" fill="currentColor"/><path d="M650,200L750,200L750,100L650,100Z" fill="currentColor"/></svg>