<svg xmlns="http://www.w3.org/2000/svg" viewBox="0 0 1100 1100"><path d="M800,900C865,900,900,865,900,800L900,300C900,235,865,200,800,200L300,200C235,200,200,235,200,300L200,800C200,865,235,900,300,900Z" fill="currentColor"/><path d="M350,200L450,200L450,100L350,100Z" fill="currentColor"/><path d="M650,200L750,200L750,100L650,100Z" fill="currentColor"/><path d="M290,549C290,516,316,490,350,490C384,490,410,516,410,549C410,584,384,610,350,610C316,610,290,584,290,549Z" fill="currentColor"/><path d="M490,549C490,516,517,490,550,490C585,490,610,516,610,549C610,584,585,610,550,610C517,610,490,584,490,549Z" fill="currentColor"/><path d="M690,549C690,516,717,490,750,490C785,490,810,516,810,549C810,584,785,610,750,610C717,610,690,584,690,549Z" fill="currentColor"/></svg>