<svg xmlns="http://www.w3.org/2000/svg" viewBox="0 0 1100 1100"><path d="M375,800L375,500L300,500L300,400L550,400L550,500L475,500L475,800Z" fill="currentColor"/><path d="M800,900C865,900,900,865,900,800L900,300C900,235,865,200,800,200L300,200C235,200,200,235,200,300L200,800C200,865,235,900,300,900Z" fill="currentColor"/><path d="M350,200L450,200L450,100L350,100Z" fill="currentColor"/><path d="M650,200L750,200L750,100L650,100Z" fill="currentColor"/><path d="M550,664L550,500L650,500L650,664C650,695,660,700,675,700C690,700,700,695,700,664L700,500L800,500L800,664C800,756,752,800,675,800C598,800,550,756,550,664Z" fill="currentColor"/></svg>