<svg xmlns="http://www.w3.org/2000/svg" viewBox="0 0 11 11"><path d="M2,2L9,2L9,9L2,9ZM4.05,7.5C4.05,7.2,3.8,6.95,3.5,6.95C3.2,6.95,2.95,7.2,2.95,7.5C2.95,7.8,3.2,8.05,3.5,8.05C3.8,8.05,4.05,7.8,4.05,7.5ZM4.05,5.5C4.05,5.2,3.8,4.95,3.5,4.95C3.2,4.95,2.95,5.2,2.95,5.5C2.95,5.8,3.2,6.05,3.5,6.05C3.8,6.05,4.05,5.8,4.05,5.5ZM4.05,3.5C4.05,3.2,3.8,2.95,3.5,2.95C3.2,2.95,2.95,3.2,2.95,3.5C2.95,3.8,3.2,4.05,3.5,4.05C3.8,4.05,4.05,3.8,4.05,3.5ZM5,8L7,8L7,7L5,7ZM5,6L8,6L8,5L5,5ZM5,4L8,4L8,3L5,3Z" fill="#000000"/></svg>