<svg xmlns="http://www.w3.org/2000/svg" viewBox="0 0 11 11"><path d="M4.09,7.48L3.74,7.12L4.47,6.43L4.81,6.8C5.08,7.08,5.28,7.2,5.59,7.2C5.97,7.2,6.07,7.12,6.07,6.95C6.07,6.78,5.93,6.7,5.33,6.46C4.43,6.11,3.95,5.72,3.95,5.04C3.95,4.38,4.56,3.8,5.44,3.8C6.03,3.8,6.55,4.11,6.94,4.51L7.29,4.87L6.57,5.57L6.22,5.21C5.95,4.93,5.73,4.8,5.44,4.8C5.05,4.8,4.95,4.88,4.95,5.04C4.95,5.21,5.04,5.28,5.69,5.54C6.54,5.86,7.07,6.24,7.07,6.95C7.07,7.61,6.46,8.2,5.59,8.2C4.97,8.2,4.46,7.88,4.09,7.48ZM8,9C8.65,9,9,8.65,9,8L9,3C9,2.35,8.65,2,8,2L3,2C2.35,2,2,2.35,2,3L2,8C2,8.65,2.35,9,3,9ZM3.5,2L4.5,2L4.5,1L3.5,1ZM6.5,2L7.5,2L7.5,1L6.5,1Z" fill="#000000"/></svg>