<svg xmlns="http://www.w3.org/2000/svg" viewBox="0 0 1100 1100"><path d="M388,800L388,475L300,475L300,400L550,400L550,475L463,475L463,800Z" fill="currentColor"/><path d="M550,500L625,500L625,664C625,717,644,725,675,725C706,725,725,717,725,664L725,500L800,500L800,664C800,756,752,800,675,800C598,800,550,756,550,664Z" fill="currentColor"/><path d="M800,900C865,900,900,865,900,800L900,300C900,235,865,200,800,200L750,200L750,100L650,100L650,200L450,200L450,100L350,100L350,200L300,200C235,200,200,235,200,300L200,800C200,865,235,900,300,900Z" fill="currentColor"/></svg>