<svg xmlns="http://www.w3.org/2000/svg" viewBox="0 0 1100 1100"><path d="M409,748L374,712L447,643L481,680C508,708,528,720,559,720C597,720,607,712,607,695C607,678,593,670,533,646C443,611,395,572,395,504C395,438,456,380,544,380C603,380,655,411,694,451L729,487L657,557L622,521C595,493,573,480,544,480C505,480,495,488,495,504C495,521,504,528,569,554C654,586,707,624,707,695C707,761,646,820,559,820C497,820,446,788,409,748Z" fill="currentColor"/><path d="M800,900C865,900,900,865,900,800L900,300C900,235,865,200,800,200L300,200C235,200,200,235,200,300L200,800C200,865,235,900,300,900Z" fill="currentColor"/><path d="M350,200L450,200L450,100L350,100Z" fill="currentColor"/><path d="M650,200L750,200L750,100L650,100Z" fill="currentColor"/></svg>