<svg xmlns="http://www.w3.org/2000/svg" viewBox="0 0 1100 1100"><path d="M700,200L700,300L900,300L900,200Z" fill="currentColor"/><path d="M600,600L600,700L900,700L900,600Z" fill="currentColor"/><path d="M600,800L600,900L900,900L900,800Z" fill="currentColor"/><path d="M500,800C347.37,800,225,686.33,225,550C225,413.67,347.37,300,500,300L529,300L529,200L500,200C294.63,200,125,356.33,125,550C125,743.67,294.63,900,500,900Z" fill="currentColor"/><path d="M450,400L625,250L450,100Z" fill="currentColor"/><path d="M600,400L600,500L900,500L900,400Z" fill="currentColor"/></svg>