<svg xmlns="http://www.w3.org/2000/svg" viewBox="0 0 1100 1100"><path d="M271,768L332,733C416,683,500,732,500,830L500,900L600,900L600,830C600,734,684,685,767,732L828,768L877,682L817,647C731,598,731,501,817,453L877,418L828,332L766,368C683,413,600,364,600,270L600,200L500,200L500,270C500,366,417,415,333,368L272,332L223,418L283,453C367,501,366,598,282,647L222,681Z" fill="currentColor"/><path d="M418,550C418,482,474,425,543,425C611,425,668,482,668,550C668,617,611,675,543,675C474,675,418,617,418,550Z" fill="currentColor"/></svg>