<svg xmlns="http://www.w3.org/2000/svg" viewBox="0 0 11 11"><path d="M9.13,3C9.13,2.24,8.51,1.62,7.75,1.62C6.99,1.62,6.38,2.24,6.38,3C6.38,3.76,6.99,4.37,7.75,4.37C8.51,4.37,9.13,3.76,9.13,3ZM4.63,8C4.63,7.24,4.01,6.62,3.25,6.62C2.49,6.62,1.88,7.24,1.88,8C1.88,8.76,2.49,9.37,3.25,9.37C4.01,9.37,4.63,8.76,4.63,8ZM2.76,8C2.76,7.72,2.98,7.49,3.25,7.49C3.53,7.49,3.76,7.72,3.76,8C3.76,8.27,3.53,8.49,3.25,8.49C2.98,8.49,2.76,8.27,2.76,8ZM3.75,7.25L3.75,3.75L2.75,3.75L2.75,7.25ZM7.25,3.75L7.25,7.12C7.25,7.32,7.07,7.5,6.83,7.5L4,7.5L4,8.5L6.83,8.5C7.65,8.5,8.25,7.85,8.25,7.12L8.25,3.75ZM4.63,3C4.63,2.24,4.01,1.62,3.25,1.62C2.49,1.62,1.88,2.24,1.88,3C1.88,3.76,2.49,4.37,3.25,4.37C4.01,4.37,4.63,3.76,4.63,3ZM2.76,3C2.76,2.72,2.98,2.49,3.25,2.49C3.53,2.49,3.76,2.72,3.76,3C3.76,3.27,3.53,3.49,3.25,3.49C2.98,3.49,2.76,3.27,2.76,3ZM7.26,3C7.26,2.72,7.48,2.49,7.75,2.49C8.03,2.49,8.26,2.72,8.26,3C8.26,3.27,8.03,3.49,7.75,3.49C7.48,3.49,7.26,3.27,7.26,3Z" fill="#000000"/></svg>