<svg xmlns="http://www.w3.org/2000/svg" viewBox="0 0 11 11"><path d="M5.35,5.98L5.6,6.18C6.06,6.53,6.05,6.99,5.59,7.33L5.35,7.52L5.75,8.22L6.04,8.09C6.57,7.87,6.99,8.09,7.04,8.68L7.08,9L7.9,8.99L7.94,8.67C8.02,8.1,8.4,7.86,8.95,8.1L9.23,8.22L9.64,7.52L9.38,7.34C8.92,7.01,8.92,6.51,9.38,6.17L9.64,5.97L9.23,5.28L8.94,5.4C8.41,5.63,8.03,5.39,7.94,4.82L7.91,4.5L7.09,4.5L7.04,4.81C6.97,5.39,6.59,5.63,6.03,5.4L5.75,5.28ZM7.47,5.91C7.93,5.91,8.3,6.29,8.3,6.75C8.3,7.18,7.93,7.57,7.47,7.57C7.02,7.57,6.65,7.18,6.65,6.75C6.65,6.29,7.02,5.91,7.47,5.91ZM2.73,6.4L2.93,6.14C3.28,5.68,3.74,5.69,4.08,6.15L4.27,6.4L4.97,5.99L4.84,5.7C4.62,5.17,4.84,4.75,5.43,4.7L5.74,4.66L5.73,3.84L5.42,3.8C4.85,3.72,4.61,3.34,4.85,2.79L4.97,2.51L4.27,2.1L4.09,2.36C3.76,2.82,3.26,2.82,2.92,2.36L2.72,2.1L2.03,2.51L2.15,2.8C2.38,3.33,2.14,3.71,1.57,3.8L1.25,3.83L1.25,4.65L1.56,4.7C2.14,4.77,2.38,5.15,2.15,5.71L2.03,5.99ZM2.66,4.27C2.66,3.81,3.04,3.44,3.5,3.44C3.93,3.44,4.32,3.81,4.32,4.27C4.32,4.72,3.93,5.09,3.5,5.09C3.04,5.09,2.66,4.72,2.66,4.27Z" fill="#000000"/></svg>