<svg xmlns="http://www.w3.org/2000/svg" viewBox="0 0 11 11"><path d="M6.25,5.5C6.25,3.74,5.61,2.95,4.58,2.95C3.55,2.95,2.9,3.74,2.9,5.5C2.9,7.26,3.55,8.05,4.58,8.05C5.61,8.05,6.25,7.26,6.25,5.5ZM1,8L2,8L2,3L0.5,3L0.5,4L1,4ZM3.9,5.5C3.9,4.35,4.16,3.95,4.58,3.95C4.99,3.95,5.25,4.35,5.25,5.5C5.25,6.65,4.99,7.05,4.58,7.05C4.16,7.05,3.9,6.65,3.9,5.5ZM10.25,5.5C10.25,3.74,9.61,2.95,8.58,2.95C7.55,2.95,6.9,3.74,6.9,5.5C6.9,7.26,7.55,8.05,8.58,8.05C9.61,8.05,10.25,7.26,10.25,5.5ZM7.9,5.5C7.9,4.35,8.16,3.95,8.58,3.95C8.99,3.95,9.25,4.35,9.25,5.5C9.25,6.65,8.99,7.05,8.58,7.05C8.16,7.05,7.9,6.65,7.9,5.5Z" fill="#000000"/></svg>