<svg xmlns="http://www.w3.org/2000/svg" viewBox="0 0 11 11"><path d="M4.01,6.5L6,6.5L6,4.45L4,4.45ZM7,9L7,8.2C7,7.16,6.96,7.04,5.86,5.95L5.32,5.4L4.01,5.4L4,7.5C4,7.9,3.9,8,3.5,8L3,8L3,9L3.5,9C4.47,9,5,8.45,5,7.5L5.01,6.4L4.9,6.4L5.16,6.65C6,7.5,6,7.5,6,8.2L6,9ZM8,5.25C6.75,3.95,6.75,3.95,4.6,3.95C4,3.95,2,3.95,2,6L3,6C3,4.91,4.02,4.95,4.6,4.95C6.32,4.95,6.32,4.95,7.28,5.94ZM6.3,2.5C6.3,2.07,5.93,1.7,5.5,1.7C5.06,1.7,4.7,2.07,4.7,2.5C4.7,2.94,5.06,3.3,5.5,3.3C5.93,3.3,6.3,2.94,6.3,2.5Z" fill="#000000"/></svg>