<svg xmlns="http://www.w3.org/2000/svg" viewBox="0 0 11 11"><path d="M2.2,6.5L6.8,6.5C6.4,7.44,5.63,8,4.5,8C3.37,8,2.6,7.44,2.2,6.5ZM2.35,4.99C2.35,4.64,2.64,4.35,3,4.35C3.36,4.35,3.65,4.64,3.65,4.99C3.65,5.36,3.36,5.65,3,5.65C2.64,5.65,2.35,5.36,2.35,4.99ZM8.25,5.5C8.25,5.41,8.25,5.33,8.24,5.24C6.01,3.51,5.9,2.79,5.9,2.17C5.9,2.13,5.9,2.08,5.9,2.04C5.47,1.85,4.99,1.75,4.5,1.75C2.44,1.75,0.75,3.48,0.75,5.5C0.75,7.52,2.44,9.25,4.5,9.25C6.52,9.25,8.25,7.52,8.25,5.5ZM5.35,4.99C5.35,4.64,5.64,4.35,6.02,4.35C6.36,4.35,6.65,4.64,6.65,4.99C6.65,5.36,6.36,5.65,6.02,5.65C5.64,5.65,5.35,5.36,5.35,4.99ZM10.1,2.17C10.1,1.7,9.77,1.4,9.36,1.4C9,1.4,8.75,1.58,8.5,2C8.25,1.58,8,1.4,7.64,1.4C7.23,1.4,6.9,1.7,6.9,2.17C6.9,2.54,7,2.95,8.5,4.15C10,2.95,10.1,2.54,10.1,2.17Z" fill="#000000"/></svg>