<svg xmlns="http://www.w3.org/2000/svg" viewBox="0 0 11 11"><path d="M2.68,5.27C2.27,4.87,2.04,4.32,2.04,3.95C2.04,3.41,2.63,2.97,3.08,2.97C3.38,2.97,3.83,3.17,4.2,3.55L5.5,4.84L6.8,3.55C7.17,3.17,7.62,2.97,7.92,2.97C8.37,2.97,8.96,3.41,8.96,3.95C8.96,4.32,8.73,4.87,8.32,5.27L5.5,8.09ZM5.5,9.5L9.03,5.98C9.62,5.39,9.96,4.59,9.96,3.95C9.96,2.81,8.88,1.97,7.92,1.97C7.33,1.97,6.64,2.29,6.09,2.84L5.5,3.43L4.91,2.84C4.36,2.29,3.67,1.97,3.08,1.97C2.12,1.97,1.04,2.81,1.04,3.95C1.04,4.59,1.38,5.39,1.97,5.98Z" fill="#000000"/></svg>