<svg xmlns="http://www.w3.org/2000/svg" viewBox="0 0 11 11"><path d="M2.68,5.27C2.27,4.87,2.04,4.32,2.04,3.95C2.04,3.64,2.23,3.37,2.48,3.19L6.44,7.15L5.5,8.09ZM1.97,5.98L5.5,9.5L7.15,7.85L9.3,10L10,9.3L7.85,7.15L7.15,6.44L5.52,4.82L2.72,2.01L1.71,1L1,1.71L1.77,2.47C1.34,2.83,1.04,3.35,1.04,3.95C1.04,4.59,1.38,5.39,1.97,5.98ZM5.52,3.41L6.23,4.12L6.8,3.55C7.18,3.17,7.62,2.97,7.92,2.97C8.37,2.97,8.96,3.41,8.96,3.95C8.96,4.32,8.73,4.87,8.32,5.27L7.85,5.74L8.56,6.45L9.03,5.98C9.62,5.39,9.96,4.59,9.96,3.95C9.96,2.81,8.88,1.97,7.92,1.97C7.33,1.97,6.64,2.29,6.09,2.84Z" fill="#000000"/></svg>