<svg xmlns="http://www.w3.org/2000/svg" viewBox="0 0 11 11"><path d="M4.19,9.01L8.61,9C9,7,9,7,9,5L9,2.95C9,2.73,8.84,2.55,8.63,2.55C8.42,2.55,8.25,2.73,8.25,2.95L8.25,5L7.75,5L7.75,2.1C7.75,1.88,7.59,1.7,7.38,1.7C7.17,1.7,7,1.88,7,2.1L7,5L6.5,5L6.5,1.9C6.5,1.68,6.34,1.5,6.13,1.5C5.92,1.5,5.75,1.68,5.75,1.9L5.75,5L5.25,5L5.25,2.4C5.25,2.18,5.09,2,4.88,2C4.67,2,4.5,2.18,4.5,2.4L4.5,5.96C4.5,6.21,4.39,6.43,4.13,6.43C3.93,6.43,3.78,6.29,3.61,6L3.38,5.61C3.05,5.05,2.58,4.93,2.02,5.25Z" fill="#000000"/></svg>