<svg xmlns="http://www.w3.org/2000/svg" viewBox="0 0 11 11"><path d="M1,9L3.5,9L3.5,7.57C3.5,6.62,3.34,6.15,2.26,6.15C1.3,6.15,1,6.62,1,7.57Z" fill="#000000"/><path d="M4.55,9L5.91,9L5.91,7.57C5.91,6.62,5.65,6.15,4.55,6.15Z" fill="#000000"/><path d="M2.85,4.51C2.85,4.17,2.58,3.9,2.26,3.9C1.92,3.9,1.65,4.17,1.65,4.51C1.65,4.83,1.92,5.1,2.26,5.1C2.58,5.1,2.85,4.83,2.85,4.51Z" fill="#000000"/><path d="M5,4.51C5,4.17,4.73,3.9,4.39,3.9C4.07,3.9,3.8,4.17,3.8,4.51C3.8,4.83,4.07,5.1,4.39,5.1C4.73,5.1,5,4.83,5,4.51Z" fill="#000000"/><path d="M6.91,9L8.27,9L8.27,7.57C8.27,6.62,8.02,6.15,6.91,6.15Z" fill="#000000"/><path d="M9.27,9L10,9L10,7.57C10,6.62,9.78,6.15,9.27,6.15Z" fill="#000000"/><path d="M7.2,4.51C7.2,4.17,6.93,3.9,6.59,3.9C6.27,3.9,6,4.17,6,4.51C6,4.83,6.27,5.1,6.59,5.1C6.93,5.1,7.2,4.83,7.2,4.51Z" fill="#000000"/><path d="M9.35,4.51C9.35,4.17,9.08,3.9,8.74,3.9C8.42,3.9,8.15,4.17,8.15,4.51C8.15,4.83,8.42,5.1,8.74,5.1C9.08,5.1,9.35,4.83,9.35,4.51Z" fill="#000000"/><path d="M3.93,2.51C3.93,2.17,3.66,1.9,3.34,1.9C3,1.9,2.73,2.17,2.73,2.51C2.73,2.83,3,3.1,3.34,3.1C3.66,3.1,3.93,2.83,3.93,2.51Z" fill="#000000"/><path d="M6.1,2.51C6.1,2.17,5.83,1.9,5.49,1.9C5.17,1.9,4.9,2.17,4.9,2.51C4.9,2.83,5.17,3.1,5.49,3.1C5.83,3.1,6.1,2.83,6.1,2.51Z" fill="#000000"/><path d="M8.28,2.51C8.28,2.17,8.01,1.9,7.67,1.9C7.35,1.9,7.08,2.17,7.08,2.51C7.08,2.83,7.35,3.1,7.67,3.1C8.01,3.1,8.28,2.83,8.28,2.51Z" fill="#000000"/></svg>