<svg xmlns="http://www.w3.org/2000/svg" viewBox="0 0 11 11"><path d="M1.5,6.5L6.25,6.5L6.25,6.2C6.25,5.06,5.89,4.5,3.75,4.5C1.84,4.5,1.5,5.06,1.5,6.2Z" fill="#000000"/><path d="M4.88,2.76C4.88,2.2,4.41,1.75,3.88,1.75C3.31,1.75,2.87,2.2,2.87,2.76C2.87,3.31,3.31,3.75,3.88,3.75C4.41,3.75,4.88,3.31,4.88,2.76Z" fill="#000000"/><path d="M7.25,6.5L9.5,6.5L9.5,6.2C9.5,5.06,9.08,4.5,7.25,4.5Z" fill="#000000"/><path d="M8.13,2.76C8.13,2.2,7.69,1.75,7.12,1.75C6.59,1.75,6.12,2.2,6.12,2.76C6.12,3.31,6.59,3.75,7.12,3.75C7.69,3.75,8.13,3.31,8.13,2.76Z" fill="#000000"/><path d="M3.11,8.49C3.11,8.16,2.85,7.9,2.51,7.9C2.17,7.9,1.91,8.16,1.91,8.49C1.91,8.83,2.17,9.1,2.51,9.1C2.85,9.1,3.11,8.83,3.11,8.49Z" fill="#000000"/><path d="M6.1,8.49C6.1,8.16,5.84,7.9,5.5,7.9C5.16,7.9,4.9,8.16,4.9,8.49C4.9,8.83,5.16,9.1,5.5,9.1C5.84,9.1,6.1,8.83,6.1,8.49Z" fill="#000000"/><path d="M9.09,8.49C9.09,8.16,8.83,7.9,8.49,7.9C8.15,7.9,7.89,8.16,7.89,8.49C7.89,8.83,8.15,9.1,8.49,9.1C8.83,9.1,9.09,8.83,9.09,8.49Z" fill="#000000"/></svg>