<svg xmlns="http://www.w3.org/2000/svg" viewBox="0 0 11 11"><path d="M8.38,9L10,9L10,7.56C10,6.61,9.72,6.14,8.38,6.14Z" fill="#000000"/><path d="M7.52,2.59C7.52,2.17,7.19,1.84,6.78,1.84C6.34,1.84,6.02,2.17,6.02,2.59C6.02,3.01,6.34,3.33,6.78,3.33C7.19,3.33,7.52,3.01,7.52,2.59Z" fill="#000000"/><path d="M1,9L4.75,9L4.75,7.56C4.75,6.61,4.47,6.14,2.78,6.14C1.27,6.14,1,6.61,1,7.56Z" fill="#000000"/><path d="M3.62,4.69C3.62,4.26,3.28,3.93,2.88,3.93C2.44,3.93,2.12,4.26,2.12,4.69C2.12,5.11,2.44,5.42,2.88,5.42C3.28,5.42,3.62,5.11,3.62,4.69Z" fill="#000000"/><path d="M4.98,2.59C4.98,2.17,4.65,1.84,4.24,1.84C3.8,1.84,3.48,2.17,3.48,2.59C3.48,3.01,3.8,3.33,4.24,3.33C4.65,3.33,4.98,3.01,4.98,2.59Z" fill="#000000"/><path d="M6.25,4.69C6.25,4.26,5.94,3.93,5.5,3.93C5.1,3.93,4.75,4.26,4.75,4.69C4.75,5.11,5.1,5.42,5.5,5.42C5.94,5.42,6.25,5.11,6.25,4.69Z" fill="#000000"/><path d="M8.88,4.69C8.88,4.26,8.56,3.93,8.12,3.93C7.72,3.93,7.38,4.26,7.38,4.69C7.38,5.11,7.72,5.42,8.12,5.42C8.56,5.42,8.88,5.11,8.88,4.69Z" fill="#000000"/><path d="M5.75,9L7.38,9L7.38,7.56C7.38,6.61,7.09,6.14,5.75,6.14Z" fill="#000000"/></svg>