<svg xmlns="http://www.w3.org/2000/svg" viewBox="0 0 11 11"><path d="M6.99,6.5L7,4.45L5,4.45L5,6.5ZM7.5,8C7.1,8,7,7.9,7,7.5L6.99,5.4L5.68,5.4L5.14,5.95C4.04,7.04,4,7.16,4,8.2L4,9.5L5,9.5L5,8.2C5,7.5,5,7.5,5.84,6.65L6.1,6.4L5.99,6.4L6,7.5C6,8.45,6.53,9,7.5,9ZM9,6C9,3.95,7,3.95,6.4,3.95C4.25,3.95,4.25,3.95,3,5.25L3.72,5.94C4.68,4.95,4.68,4.95,6.4,4.95C6.98,4.95,8,4.91,8,6ZM6.3,2.5C6.3,2.07,5.94,1.7,5.5,1.7C5.07,1.7,4.7,2.07,4.7,2.5C4.7,2.94,5.07,3.3,5.5,3.3C5.94,3.3,6.3,2.94,6.3,2.5Z" fill="#000000"/></svg>