<svg xmlns="http://www.w3.org/2000/svg" viewBox="0 0 11 11"><path d="M1,9L7,9L7,8.5C7,6.81,5.75,5.94,3.5,5.94C1.25,5.94,1,6.81,1,8.5Z" fill="#000000"/><path d="M5.91,3.5C5.91,3.85,6.16,4.1,6.51,4.1C6.86,4.1,7.11,3.85,7.11,3.5C7.11,3.15,6.86,2.9,6.51,2.9C6.16,2.9,5.91,3.15,5.91,3.5Z" fill="#000000"/><path d="M7.91,3.5C7.91,3.85,8.16,4.1,8.51,4.1C8.86,4.1,9.11,3.85,9.11,3.5C9.11,3.15,8.86,2.9,8.51,2.9C8.16,2.9,7.91,3.15,7.91,3.5Z" fill="#000000"/><path d="M5.1,3.5C5.1,2.61,4.39,1.9,3.51,1.9C2.61,1.9,1.9,2.61,1.9,3.5C1.9,4.39,2.61,5.1,3.51,5.1C4.39,5.1,5.1,4.39,5.1,3.5Z" fill="#000000"/></svg>