<svg xmlns="http://www.w3.org/2000/svg" viewBox="0 0 11 11"><path d="M7,6.5L4,6.5L4,9L7,9ZM2.46,6.34C3.79,7.54,4.28,7.5,5.5,7.5C6.72,7.5,7.22,7.54,8.55,6.34L7.88,5.6C6.88,6.5,6.7,6.5,5.5,6.5C4.3,6.5,4.13,6.5,3.13,5.6ZM6.3,5C6.3,4.57,5.93,4.2,5.5,4.2C5.06,4.2,4.7,4.57,4.7,5C4.7,5.44,5.06,5.8,5.5,5.8C5.93,5.8,6.3,5.44,6.3,5ZM8.35,2.51C8.35,2.17,8.09,1.9,7.75,1.9C7.41,1.9,7.15,2.17,7.15,2.51C7.15,2.85,7.41,3.11,7.75,3.11C8.09,3.11,8.35,2.85,8.35,2.51ZM2.71,4.5C2.71,4.16,2.45,3.9,2.11,3.9C1.77,3.9,1.5,4.16,1.5,4.5C1.5,4.84,1.77,5.1,2.11,5.1C2.45,5.1,2.71,4.84,2.71,4.5ZM3.85,2.51C3.85,2.17,3.59,1.9,3.25,1.9C2.91,1.9,2.65,2.17,2.65,2.51C2.65,2.85,2.91,3.11,3.25,3.11C3.59,3.11,3.85,2.85,3.85,2.51ZM9.5,4.5C9.5,4.16,9.23,3.9,8.89,3.9C8.55,3.9,8.29,4.16,8.29,4.5C8.29,4.84,8.55,5.1,8.89,5.1C9.23,5.1,9.5,4.84,9.5,4.5ZM6.1,2C6.1,1.66,5.84,1.39,5.5,1.39C5.16,1.39,4.9,1.66,4.9,2C4.9,2.34,5.16,2.6,5.5,2.6C5.84,2.6,6.1,2.34,6.1,2Z" fill="#000000"/></svg>