<svg xmlns="http://www.w3.org/2000/svg" viewBox="0 0 11 11"><path d="M4,5L2,5C1.35,5,1,5.35,1,6L1,9L4,9ZM3.3,3.5C3.3,3.07,2.93,2.7,2.5,2.7C2.06,2.7,1.7,3.07,1.7,3.5C1.7,3.94,2.06,4.3,2.5,4.3C2.93,4.3,3.3,3.94,3.3,3.5ZM8.5,5C6.77,5,6.72,5,6.3,3L4.7,3C4.28,5,4.23,5,2.5,5L2.5,6C4.11,6,4.91,6.05,5.49,4L5.51,4C6.09,6.05,6.9,6,8.5,6ZM7,5L7,9L10,9L10,6C10,5.35,9.65,5,9,5ZM9.3,3.5C9.3,3.07,8.94,2.7,8.5,2.7C8.07,2.7,7.7,3.07,7.7,3.5C7.7,3.94,8.07,4.3,8.5,4.3C8.94,4.3,9.3,3.94,9.3,3.5Z" fill="#000000"/></svg>