<svg xmlns="http://www.w3.org/2000/svg" viewBox="0 0 11 11"><path d="M5.5,4C4,4,4,4,2.15,5.75L2.84,6.48C4.4,5,4.4,5,5.5,5ZM7,9L7,7C7,6.38,6.43,5.5,5.51,5.5C4.59,5.5,4.01,6.09,4.01,6.9L4.01,7.1C4.01,7.42,4.01,7.42,2.81,8.52L3.49,9.26C4.91,7.95,5.01,7.8,5.01,7.1L5.01,6.9C5.01,6.64,5.15,6.5,5.51,6.5C5.81,6.5,6,6.87,6,7L6,9ZM7,4.3L4,4.3L4.01,7L4.01,7L5.01,7.19C5.01,6.74,5.11,6.5,5.51,6.5C5.9,6.5,6,6.81,6,7.11L6,7.3L7,7.3ZM6.3,2.5C6.3,2.07,5.93,1.7,5.5,1.7C5.06,1.7,4.7,2.07,4.7,2.5C4.7,2.94,5.06,3.3,5.5,3.3C5.93,3.3,6.3,2.94,6.3,2.5ZM5.5,5C6.82,5,7.31,5.11,8.64,2.45L7.75,2C6.75,4,6.7,4,5.5,4Z" fill="#000000"/></svg>