<svg xmlns="http://www.w3.org/2000/svg" viewBox="0 0 11 11"><path d="M1.5,9L6.25,9L6.25,8.7C6.25,7.56,5.89,7,3.75,7C1.84,7,1.5,7.56,1.5,8.7Z" fill="#000000"/><path d="M4.88,5.26C4.88,4.7,4.41,4.25,3.88,4.25C3.31,4.25,2.87,4.7,2.87,5.26C2.87,5.81,3.31,6.25,3.88,6.25C4.41,6.25,4.88,5.81,4.88,5.26Z" fill="#000000"/><path d="M7.25,9L9.5,9L9.5,8.7C9.5,7.56,9.08,7,7.25,7Z" fill="#000000"/><path d="M6.5,2.75C6.5,2.2,6.05,1.75,5.51,1.75C4.94,1.75,4.5,2.2,4.5,2.75C4.5,3.31,4.94,3.75,5.51,3.75C6.05,3.75,6.5,3.31,6.5,2.75Z" fill="#000000"/><path d="M8.13,5.26C8.13,4.7,7.69,4.25,7.12,4.25C6.59,4.25,6.12,4.7,6.12,5.26C6.12,5.81,6.59,6.25,7.12,6.25C7.69,6.25,8.13,5.81,8.13,5.26Z" fill="#000000"/></svg>