<svg xmlns="http://www.w3.org/2000/svg" viewBox="0 0 11 11"><path d="M1.75,5.5C1.75,3.48,3.44,1.75,5.5,1.75C7.52,1.75,9.25,3.48,9.25,5.5C9.25,7.52,7.52,9.25,5.5,9.25C3.44,9.25,1.75,7.52,1.75,5.5ZM6.95,6.35C6.63,6.74,6.14,7.1,5.5,7.1C4.86,7.1,4.37,6.74,4.05,6.35L3.28,6.99C3.7,7.5,4.45,8.1,5.5,8.1C6.55,8.1,7.3,7.5,7.72,6.99ZM4.65,4.99C4.65,4.64,4.36,4.35,4,4.35C3.64,4.35,3.35,4.64,3.35,4.99C3.35,5.36,3.64,5.65,4,5.65C4.36,5.65,4.65,5.36,4.65,4.99ZM7.65,4.99C7.65,4.64,7.36,4.35,7.02,4.35C6.64,4.35,6.35,4.64,6.35,4.99C6.35,5.36,6.64,5.65,7.02,5.65C7.36,5.65,7.65,5.36,7.65,4.99Z" fill="#000000"/></svg>