<svg xmlns="http://www.w3.org/2000/svg" viewBox="0 0 11 11"><path d="M9.25,5.5C9.25,3.48,7.52,1.75,5.5,1.75C3.44,1.75,1.75,3.48,1.75,5.5C1.75,7.52,3.44,9.25,5.5,9.25C7.52,9.25,9.25,7.52,9.25,5.5ZM3.34,6L7.66,6C7.66,7.18,6.69,8.1,5.5,8.1C4.31,8.1,3.34,7.18,3.34,6ZM3.35,4.49C3.35,4.14,3.64,3.85,4,3.85C4.36,3.85,4.65,4.14,4.65,4.49C4.65,4.86,4.36,5.15,4,5.15C3.64,5.15,3.35,4.86,3.35,4.49ZM6.35,4.49C6.35,4.14,6.64,3.85,7.02,3.85C7.36,3.85,7.65,4.14,7.65,4.49C7.65,4.86,7.36,5.15,7.02,5.15C6.64,5.15,6.35,4.86,6.35,4.49ZM4,6L4.53,7.1L5,6ZM7,6L6,6L6.47,7.1Z" fill="#000000"/></svg>