<svg xmlns="http://www.w3.org/2000/svg" viewBox="0 0 11 11"><path d="M5,10L6,10L6,1L5,1Z" fill="#000000"/><path d="M1,9L4,9L4,5.5C2.17,5.5,1,5.96,1,7.4Z" fill="#000000"/><path d="M3.88,3.76C3.88,3.2,3.41,2.75,2.88,2.75C2.31,2.75,1.87,3.2,1.87,3.76C1.87,4.31,2.31,4.75,2.88,4.75C3.41,4.75,3.88,4.31,3.88,3.76Z" fill="#000000"/><path d="M7,9L10,9L10,7.4C10,5.96,8.83,5.5,7,5.5Z" fill="#000000"/><path d="M9.13,3.76C9.13,3.2,8.69,2.75,8.12,2.75C7.59,2.75,7.12,3.2,7.12,3.76C7.12,4.31,7.59,4.75,8.12,4.75C8.69,4.75,9.13,4.31,9.13,3.76Z" fill="#000000"/></svg>