<svg xmlns="http://www.w3.org/2000/svg" viewBox="0 0 11 11"><path d="M2.2,6.5L6.8,6.5C6.4,7.44,5.63,8,4.5,8C3.37,8,2.6,7.44,2.2,6.5ZM2.35,4.99C2.35,4.64,2.64,4.35,3,4.35C3.36,4.35,3.65,4.64,3.65,4.99C3.65,5.36,3.36,5.65,3,5.65C2.64,5.65,2.35,5.36,2.35,4.99ZM8.25,5.5C8.25,4.97,8.13,4.46,7.92,4L7,4C6.45,4,6,3.55,6,3L6,2.08C5.54,1.87,5.03,1.75,4.5,1.75C2.44,1.75,0.75,3.48,0.75,5.5C0.75,7.52,2.44,9.25,4.5,9.25C6.52,9.25,8.25,7.52,8.25,5.5ZM7,3L10,3L10,2L7,2ZM5.35,4.99C5.35,4.64,5.64,4.35,6.02,4.35C6.36,4.35,6.65,4.64,6.65,4.99C6.65,5.36,6.36,5.65,6.02,5.65C5.64,5.65,5.35,5.36,5.35,4.99Z" fill="#000000"/></svg>