<svg xmlns="http://www.w3.org/2000/svg" viewBox="0 0 11 11"><path d="M8.85,5.75C7,4,7,4,5.5,4L5.5,5C6.6,5,6.6,5,8.16,6.48ZM8.19,8.52C6.99,7.42,6.99,7.42,6.99,7.1L6.99,6.9C6.99,6.09,6.41,5.5,5.49,5.5C4.57,5.5,4,6.38,4,7L4,9L5,9L5,7C5,6.87,5.19,6.5,5.49,6.5C5.85,6.5,5.99,6.64,5.99,6.9L5.99,7.1C5.99,7.8,6.09,7.95,7.51,9.26ZM4,4.3L4,7.3L5,7.3L5,7.11C5,6.81,5.1,6.5,5.49,6.5C5.89,6.5,5.99,6.74,5.99,7.19L6.99,7L6.99,7L7,4.3ZM6.3,2.5C6.3,2.07,5.94,1.7,5.5,1.7C5.07,1.7,4.7,2.07,4.7,2.5C4.7,2.94,5.07,3.3,5.5,3.3C5.94,3.3,6.3,2.94,6.3,2.5ZM2.36,2.45C3.69,5.11,4.18,5,5.5,5L5.5,4C4.3,4,4.25,4,3.25,2Z" fill="#000000"/></svg>