<svg xmlns="http://www.w3.org/2000/svg" viewBox="0 0 11 11"><path d="M6,6.5L6,5.28C6,4.47,5.37,3.9,4.7,3.9C4.08,3.9,3.59,4.33,3.3,5.19C3.05,5.98,3.02,6,2.2,6L1.5,6L1.5,7L2.2,7C3.47,7,3.87,6.72,4.26,5.51C4.4,5.08,4.56,4.9,4.7,4.9C4.85,4.9,5,5.05,5,5.28L5,6.5ZM5,6.5L5,7.72C5,8.53,5.63,9.1,6.31,9.1C6.93,9.1,7.41,8.66,7.7,7.81C7.95,7.02,7.98,7,8.8,7L9.5,7L9.5,6L8.8,6C7.53,6,7.13,6.28,6.74,7.49C6.6,7.92,6.44,8.1,6.31,8.1C6.15,8.1,6,7.95,6,7.72L6,6.5ZM10,2.67C10,2.2,9.64,1.9,9.19,1.9C8.8,1.9,8.52,2.13,8.25,2.65C7.98,2.13,7.7,1.9,7.31,1.9C6.86,1.9,6.5,2.2,6.5,2.67C6.5,2.94,6.61,3.35,8.25,4.65C9.89,3.35,10,2.94,10,2.67Z" fill="#000000"/></svg>