<svg xmlns="http://www.w3.org/2000/svg" viewBox="0 0 11 11"><path d="M0.23,9L2.73,9L2.73,7.57C2.73,6.62,2.57,6.15,1.49,6.15C0.53,6.15,0.23,6.62,0.23,7.57Z" fill="#000000"/><path d="M3.78,9L4.78,9L4.78,7.57C4.78,6.62,4.52,6.15,3.78,6.15Z" fill="#000000"/><path d="M1.78,4.51C1.78,4.17,1.51,3.9,1.19,3.9C0.85,3.9,0.58,4.17,0.58,4.51C0.58,4.83,0.85,5.1,1.19,5.1C1.51,5.1,1.78,4.83,1.78,4.51Z" fill="#000000"/><path d="M3.93,4.51C3.93,4.17,3.66,3.9,3.32,3.9C3,3.9,2.73,4.17,2.73,4.51C2.73,4.83,3,5.1,3.32,5.1C3.66,5.1,3.93,4.83,3.93,4.51Z" fill="#000000"/><path d="M5.78,9L6.78,9L6.78,7.57C6.78,6.62,6.53,6.15,5.78,6.15Z" fill="#000000"/><path d="M6.13,4.51C6.13,4.17,5.86,3.9,5.52,3.9C5.2,3.9,4.93,4.17,4.93,4.51C4.93,4.83,5.2,5.1,5.52,5.1C5.86,5.1,6.13,4.83,6.13,4.51Z" fill="#000000"/><path d="M8.28,4.51C8.28,4.17,8.01,3.9,7.67,3.9C7.35,3.9,7.08,4.17,7.08,4.51C7.08,4.83,7.35,5.1,7.67,5.1C8.01,5.1,8.28,4.83,8.28,4.51Z" fill="#000000"/><path d="M2.86,2.51C2.86,2.17,2.59,1.9,2.27,1.9C1.93,1.9,1.66,2.17,1.66,2.51C1.66,2.83,1.93,3.1,2.27,3.1C2.59,3.1,2.86,2.83,2.86,2.51Z" fill="#000000"/><path d="M5.03,2.51C5.03,2.17,4.76,1.9,4.42,1.9C4.1,1.9,3.83,2.17,3.83,2.51C3.83,2.83,4.1,3.1,4.42,3.1C4.76,3.1,5.03,2.83,5.03,2.51Z" fill="#000000"/><path d="M7.21,2.51C7.21,2.17,6.94,1.9,6.6,1.9C6.28,1.9,6.01,2.17,6.01,2.51C6.01,2.83,6.28,3.1,6.6,3.1C6.94,3.1,7.21,2.83,7.21,2.51Z" fill="#000000"/><path d="M10.43,4.51C10.43,4.17,10.16,3.9,9.82,3.9C9.5,3.9,9.23,4.17,9.23,4.51C9.23,4.83,9.5,5.1,9.82,5.1C10.16,5.1,10.43,4.83,10.43,4.51Z" fill="#000000"/><path d="M9.36,2.51C9.36,2.17,9.09,1.9,8.75,1.9C8.43,1.9,8.16,2.17,8.16,2.51C8.16,2.83,8.43,3.1,8.75,3.1C9.09,3.1,9.36,2.83,9.36,2.51Z" fill="#000000"/><path d="M7.78,9L8.78,9L8.78,7.57C8.78,6.62,8.52,6.15,7.78,6.15Z" fill="#000000"/><path d="M9.78,9L10.78,9L10.78,7.57C10.78,6.62,10.53,6.15,9.78,6.15Z" fill="#000000"/></svg>