<svg xmlns="http://www.w3.org/2000/svg" viewBox="0 0 11 11"><path d="M1.25,9L6.25,9L6.25,7.9C6.25,6.06,5.89,5.5,3.75,5.5C1.61,5.5,1.25,6.06,1.25,7.9Z" fill="#000000"/><path d="M5.13,3.25C5.13,2.49,4.5,1.87,3.76,1.87C2.98,1.87,2.38,2.49,2.38,3.25C2.38,4.01,2.98,4.62,3.76,4.62C4.5,4.62,5.13,4.01,5.13,3.25Z" fill="#000000"/><path d="M7.25,9L9.75,9L9.75,7.9C9.75,6.06,9.3,5.5,7.25,5.5Z" fill="#000000"/><path d="M8.61,3.25C8.61,2.49,7.98,1.87,7.24,1.87C6.46,1.87,5.86,2.49,5.86,3.25C5.86,4.01,6.46,4.62,7.24,4.62C7.98,4.62,8.61,4.01,8.61,3.25Z" fill="#000000"/></svg>