<svg xmlns="http://www.w3.org/2000/svg" viewBox="0 0 11 11"><path d="M9.25,5.5C9.25,3.48,7.52,1.75,5.5,1.75C3.44,1.75,1.75,3.48,1.75,5.5C1.75,7.52,3.44,9.25,5.5,9.25C7.52,9.25,9.25,7.52,9.25,5.5ZM6.75,7C6.75,7.67,6.08,8,5.5,8C4.93,8,4.25,7.67,4.25,7C4.25,6.33,4.93,6,5.5,6C6.08,6,6.75,6.33,6.75,7ZM3.35,4.99C3.35,4.64,3.64,4.35,4,4.35C4.36,4.35,4.65,4.64,4.65,4.99C4.65,5.36,4.36,5.65,4,5.65C3.64,5.65,3.35,5.36,3.35,4.99ZM6.35,4.99C6.35,4.64,6.64,4.35,7.02,4.35C7.36,4.35,7.65,4.64,7.65,4.99C7.65,5.36,7.36,5.65,7.02,5.65C6.64,5.65,6.35,5.36,6.35,4.99Z" fill="#000000"/></svg>