<svg xmlns="http://www.w3.org/2000/svg" viewBox="0 0 11 11"><path d="M2,5L9,5L9,4L2,4Z" fill="#000000"/><path d="M3.1,8.5C3.1,8.17,2.83,7.9,2.5,7.9C2.17,7.9,1.9,8.17,1.9,8.5C1.9,8.83,2.17,9.1,2.5,9.1C2.83,9.1,3.1,8.83,3.1,8.5Z" fill="#000000"/><path d="M3.1,2.5C3.1,2.17,2.83,1.9,2.5,1.9C2.17,1.9,1.9,2.17,1.9,2.5C1.9,2.83,2.17,3.1,2.5,3.1C2.83,3.1,3.1,2.83,3.1,2.5Z" fill="#000000"/><path d="M9.1,8.5C9.1,8.17,8.83,7.9,8.5,7.9C8.17,7.9,7.9,8.17,7.9,8.5C7.9,8.83,8.17,9.1,8.5,9.1C8.83,9.1,9.1,8.83,9.1,8.5Z" fill="#000000"/><path d="M9.1,2.5C9.1,2.17,8.83,1.9,8.5,1.9C8.17,1.9,7.9,2.17,7.9,2.5C7.9,2.83,8.17,3.1,8.5,3.1C8.83,3.1,9.1,2.83,9.1,2.5Z" fill="#000000"/><path d="M2,7L7,7L7,6L2,6Z" fill="#000000"/></svg>