<svg xmlns="http://www.w3.org/2000/svg" viewBox="0 0 11 11"><path d="M2,3L9,3L9,2L2,2Z" fill="#000000"/><path d="M2,6L9,6L9,5L2,5Z" fill="#000000"/><path d="M3.1,8.49C3.1,8.16,2.84,7.9,2.5,7.9C2.16,7.9,1.9,8.16,1.9,8.49C1.9,8.84,2.16,9.1,2.5,9.1C2.84,9.1,3.1,8.84,3.1,8.49Z" fill="#000000"/><path d="M5.6,8.49C5.6,8.16,5.34,7.9,5,7.9C4.66,7.9,4.4,8.16,4.4,8.49C4.4,8.84,4.66,9.1,5,9.1C5.34,9.1,5.6,8.84,5.6,8.49Z" fill="#000000"/><path d="M8.1,8.49C8.1,8.16,7.84,7.9,7.5,7.9C7.16,7.9,6.9,8.16,6.9,8.49C6.9,8.84,7.16,9.1,7.5,9.1C7.84,9.1,8.1,8.84,8.1,8.49Z" fill="#000000"/></svg>