<svg xmlns="http://www.w3.org/2000/svg" viewBox="0 0 11 11"><path d="M9,9L9,8L8,8L8,3L9,3L9,2L6,2L6,3L7,3L7,8L6,8L6,9Z" fill="#000000"/><path d="M5.09,8.5C5.09,8.16,4.83,7.9,4.49,7.9C4.15,7.9,3.89,8.16,3.89,8.5C3.89,8.84,4.15,9.1,4.49,9.1C4.83,9.1,5.09,8.84,5.09,8.5Z" fill="#000000"/><path d="M3.09,8.5C3.09,8.16,2.83,7.9,2.49,7.9C2.15,7.9,1.89,8.16,1.89,8.5C1.89,8.84,2.15,9.1,2.49,9.1C2.83,9.1,3.09,8.84,3.09,8.5Z" fill="#000000"/><path d="M3.09,6.5C3.09,6.16,2.83,5.9,2.49,5.9C2.15,5.9,1.89,6.16,1.89,6.5C1.89,6.84,2.15,7.1,2.49,7.1C2.83,7.1,3.09,6.84,3.09,6.5Z" fill="#000000"/><path d="M5.09,2.5C5.09,2.16,4.83,1.9,4.49,1.9C4.15,1.9,3.89,2.16,3.89,2.5C3.89,2.84,4.15,3.1,4.49,3.1C4.83,3.1,5.09,2.84,5.09,2.5Z" fill="#000000"/><path d="M3.09,4.5C3.09,4.16,2.83,3.9,2.49,3.9C2.15,3.9,1.89,4.16,1.89,4.5C1.89,4.84,2.15,5.1,2.49,5.1C2.83,5.1,3.09,4.84,3.09,4.5Z" fill="#000000"/><path d="M3.09,2.5C3.09,2.16,2.83,1.9,2.49,1.9C2.15,1.9,1.89,2.16,1.89,2.5C1.89,2.84,2.15,3.1,2.49,3.1C2.83,3.1,3.09,2.84,3.09,2.5Z" fill="#000000"/></svg>