<svg xmlns="http://www.w3.org/2000/svg" viewBox="0 0 11 11"><path d="M3.65,2.6L5.5,4.46L7.35,2.6L6.65,1.9L5.5,3.04L4.35,1.9Z" fill="currentColor"/><path d="M5,3.75L5,5.56L6,5.56L6,3.75Z" fill="currentColor"/><path d="M8.4,3.65L6.54,5.5L8.4,7.35L9.1,6.65L7.96,5.5L9.1,4.35Z" fill="currentColor"/><path d="M7.25,5L5.44,5L5.44,6L7.25,6Z" fill="currentColor"/><path d="M7.35,8.4L5.5,6.54L3.65,8.4L4.35,9.1L5.5,7.96L6.65,9.1Z" fill="currentColor"/><path d="M6,7.25L6,5.44L5,5.44L5,7.25Z" fill="currentColor"/><path d="M2.6,7.35L4.46,5.5L2.6,3.65L1.9,4.35L3.04,5.5L1.9,6.65Z" fill="currentColor"/><path d="M3.75,6L5.56,6L5.56,5L3.75,5Z" fill="currentColor"/></svg>