<svg xmlns="http://www.w3.org/2000/svg" viewBox="0 0 11 11"><path d="M3.5,6.48L7.5,6.48C7.2,7.36,6.43,7.92,5.5,7.92C4.57,7.92,3.8,7.36,3.5,6.48Z" fill="currentColor"/><path d="M3.71,5.1C3.71,4.77,3.97,4.5,4.31,4.5C4.64,4.5,4.91,4.77,4.91,5.1C4.91,5.44,4.64,5.7,4.31,5.7C3.97,5.7,3.71,5.44,3.71,5.1Z" fill="currentColor"/><path d="M6.1,5.1C6.1,4.77,6.36,4.5,6.71,4.5C7.03,4.5,7.3,4.77,7.3,5.1C7.3,5.44,7.03,5.7,6.71,5.7C6.36,5.7,6.1,5.44,6.1,5.1Z" fill="currentColor"/><path d="M2,9L9,9L9,4.5L5.5,1.5L2,4.5Z" fill="currentColor"/></svg>