<svg xmlns="http://www.w3.org/2000/svg" viewBox="0 0 11 11"><path d="M2.68,3.4L3.97,4.6L4.65,3.86L3.36,2.66Z" fill="currentColor"/><path d="M7.62,6C7.95,4.56,6.82,3.24,5.5,3.24C4.19,3.24,3.04,4.55,3.37,6Z" fill="currentColor"/><path d="M6,3.74L6,2L5,2L5,3.74Z" fill="currentColor"/><path d="M7.04,4.59L8.32,3.39L7.64,2.67L6.36,3.87Z" fill="currentColor"/><path d="M3.97,6.4L2.68,7.6L3.36,8.34L4.65,7.14Z" fill="currentColor"/><path d="M3.37,5C3.04,6.45,4.19,7.76,5.5,7.76C6.82,7.76,7.95,6.44,7.62,5Z" fill="currentColor"/><path d="M6,9L6,7.26L5,7.26L5,9Z" fill="currentColor"/><path d="M8.32,7.61L7.04,6.41L6.36,7.13L7.64,8.33Z" fill="currentColor"/><path d="M7.26,6L9,6L9,5L7.26,5Z" fill="currentColor"/><path d="M2,6L3.74,6L3.74,5L2,5Z" fill="currentColor"/></svg>