<svg xmlns="http://www.w3.org/2000/svg" viewBox="0 0 11 11"><path d="M0.09,0.08L0.1,0.06L0.07,0.06Z" fill="currentColor"/><path d="M0.09,0.07L0.09,0.06C0.09,0.03,0.08,0.02,0.06,0.02C0.03,0.02,0.02,0.03,0.02,0.06C0.02,0.08,0.03,0.09,0.06,0.09L0.06,0.08C0.04,0.08,0.03,0.07,0.03,0.06C0.03,0.04,0.04,0.03,0.06,0.03C0.07,0.03,0.08,0.04,0.08,0.06L0.08,0.07Z" fill="currentColor"/><path d="M0.05,0.07L0.06,0.07L0.06,0.06C0.07,0.06,0.07,0.05,0.07,0.05C0.07,0.04,0.06,0.04,0.05,0.04C0.05,0.04,0.04,0.04,0.04,0.05C0.04,0.05,0.04,0.06,0.05,0.06Z" fill="currentColor"/><path d="M0.05,0.05C0.05,0.05,0.05,0.04,0.05,0.04C0.06,0.04,0.06,0.05,0.06,0.05C0.06,0.05,0.06,0.06,0.05,0.06C0.05,0.06,0.05,0.05,0.05,0.05Z" fill="currentColor"/></svg>