<svg xmlns="http://www.w3.org/2000/svg" viewBox="0 0 11 11"><path d="M2.77,8.66C2.26,8.02,2,7.22,2,6.42C2,4.53,3.61,2.91,5.5,2.9C7.39,2.91,9,4.53,9,6.42C9,7.22,8.74,8.02,8.23,8.66L9.03,9.26C9.67,8.44,10,7.42,10,6.41C10,3.98,7.94,1.9,5.5,1.9C3.06,1.9,1,3.98,1,6.41C1,7.42,1.33,8.44,1.97,9.26Z" fill="currentColor"/><path d="M6.5,6.4C6.5,5.86,6.04,5.4,5.52,5.4C4.96,5.4,4.5,5.86,4.5,6.4C4.5,6.94,4.96,7.4,5.52,7.4C6.04,7.4,6.5,6.94,6.5,6.4Z" fill="currentColor"/><path d="M5.15,6.75L5.85,6.05L3.95,4.15L3.25,4.87Z" fill="currentColor"/></svg>