<svg xmlns="http://www.w3.org/2000/svg" viewBox="0 0 11 11"><path d="M8.01,7L6.01,7L6.01,5.9C6.01,4.99,6.24,4.75,7,4.75C7.79,4.75,8.01,4.99,8.01,5.9Z" fill="currentColor"/><path d="M6.35,3.51C6.35,3.15,6.64,2.85,7,2.85C7.36,2.85,7.65,3.15,7.65,3.51C7.65,3.86,7.36,4.15,7,4.15C6.64,4.15,6.35,3.86,6.35,3.51Z" fill="currentColor"/><path d="M9,3C9,2.35,8.65,2,8,2L5,2L5,8L8,8C8.65,8,9,7.65,9,7Z" fill="currentColor"/><path d="M4,2L2.67,2.66C2.23,2.88,2,3.26,2,3.75L2,8C2,8.65,2.31,8.84,2.89,8.55L4,8Z" fill="currentColor"/></svg>