<svg xmlns="http://www.w3.org/2000/svg" viewBox="0 0 11 11"><path d="M7.75,6C8.75,6,9.25,5.48,9.25,4.68C9.25,3.92,8.75,3.4,7.75,3.4L7.19,3.4L7.19,3.34C7.19,2.43,6.51,1.75,5.5,1.75C4.49,1.75,3.81,2.43,3.81,3.34L3.81,3.4L3.25,3.4C2.25,3.4,1.75,3.92,1.75,4.68C1.75,5.48,2.25,6,3.25,6Z" fill="currentColor"/><path d="M2.91,7.38L2.91,7.39C3.52,8.01,3.52,8.01,2.92,8.6L3.45,9.13C4.04,8.54,4.04,8.54,4.67,9.14L5.19,8.6C4.59,8.01,4.59,8,5.2,7.38L4.67,6.85C4.05,7.46,4.05,7.46,3.45,6.86L3.45,6.85Z" fill="currentColor"/><path d="M5.8,7.38L5.8,7.39C6.41,8.01,6.41,8.01,5.81,8.6L6.34,9.13C6.93,8.54,6.93,8.54,7.56,9.14L8.08,8.6C7.48,8.01,7.48,8,8.09,7.38L7.56,6.85C6.94,7.46,6.94,7.46,6.34,6.86L6.34,6.85Z" fill="currentColor"/></svg>