<svg xmlns="http://www.w3.org/2000/svg" viewBox="0 0 11 11"><path d="M4.11,8.5C4.11,8.17,3.84,7.9,3.51,7.9C3.18,7.9,2.91,8.17,2.91,8.5C2.91,8.83,3.18,9.1,3.51,9.1C3.84,9.1,4.11,8.83,4.11,8.5Z" fill="currentColor"/><path d="M5.51,9.1C5.84,9.1,6.11,8.83,6.11,8.5C6.11,8.17,5.84,7.9,5.51,7.9C5.18,7.9,4.91,8.17,4.91,8.5C4.91,8.83,5.18,9.1,5.51,9.1Z" fill="currentColor"/><path d="M7.51,9.1C7.84,9.1,8.11,8.83,8.11,8.5C8.11,8.17,7.84,7.9,7.51,7.9C7.18,7.9,6.91,8.17,6.91,8.5C6.91,8.83,7.18,9.1,7.51,9.1Z" fill="currentColor"/><path d="M7.75,6C8.75,6,9.25,5.51,9.25,4.75C9.25,3.94,8.75,3.5,7.75,3.5L7.19,3.5C7.19,2.53,6.51,1.75,5.5,1.75C4.49,1.75,3.81,2.53,3.81,3.5L3.25,3.5C2.25,3.5,1.75,3.94,1.75,4.75C1.75,5.51,2.25,6,3.25,6Z" fill="currentColor"/></svg>