<svg xmlns="http://www.w3.org/2000/svg" viewBox="0 0 11 11"><path d="M2,5L6.5,5L6.5,2L4.5,2C3.07,2,2,2.21,2,3.53Z" fill="currentColor"/><path d="M3.68,7.84C3.68,7.65,3.6,7.37,3.03,6.1C2.46,7.37,2.38,7.66,2.38,7.85C2.38,8.25,2.72,8.5,3.03,8.5C3.34,8.5,3.68,8.24,3.68,7.84Z" fill="currentColor"/><path d="M5.48,8.5C5.79,8.5,6.13,8.24,6.13,7.84C6.13,7.65,6.05,7.37,5.48,6.1C4.91,7.37,4.83,7.66,4.83,7.85C4.83,8.25,5.17,8.5,5.48,8.5Z" fill="currentColor"/><path d="M9,9L9,4.41C9,2.91,8.09,2,6.5,2L6.5,3C7.53,3,8,3.47,8,4.41L8,9Z" fill="currentColor"/></svg>