<svg xmlns="http://www.w3.org/2000/svg" viewBox="0 0 11 11"><path d="M2,9L9,9L9,3.75C9,3.26,8.74,3,8.25,3L3,3C2.35,3,2,3.35,2,4Z" fill="currentColor"/><path d="M3,6L3,4L8,4L8,6Z" fill="currentColor"/><path d="M5,4L6,4L6,1L5,1Z" fill="currentColor"/><path d="M4,2L7,2L7,1L4,1Z" fill="currentColor"/><path d="M2.85,7.5C2.85,7.14,3.15,6.85,3.5,6.85C3.86,6.85,4.15,7.14,4.15,7.5C4.15,7.85,3.86,8.15,3.5,8.15C3.15,8.15,2.85,7.85,2.85,7.5Z" fill="currentColor"/><path d="M6.85,7.5C6.85,7.14,7.14,6.85,7.5,6.85C7.85,6.85,8.15,7.14,8.15,7.5C8.15,7.85,7.85,8.15,7.5,8.15C7.14,8.15,6.85,7.85,6.85,7.5Z" fill="currentColor"/></svg>