<svg xmlns="http://www.w3.org/2000/svg" viewBox="0 0 11 11"><path d="M9.5,7L9.5,6L3.5,6L3.5,3C3.5,2.35,3.15,2,2.5,2L1.5,2L1.5,3L2.5,3L2.5,6C2.5,6.65,2.85,7,3.5,7Z" fill="currentColor"/><path d="M4.5,6L4.5,2L8.5,2L8.5,6Z" fill="currentColor"/><path d="M6,2L7,2L7,1L6,1Z" fill="currentColor"/><path d="M4.1,8.51C4.1,8.17,3.84,7.9,3.5,7.9C3.16,7.9,2.9,8.17,2.9,8.51C2.9,8.84,3.16,9.1,3.5,9.1C3.84,9.1,4.1,8.84,4.1,8.51Z" fill="currentColor"/><path d="M9.1,8.51C9.1,8.17,8.84,7.9,8.5,7.9C8.16,7.9,7.9,8.17,7.9,8.51C7.9,8.84,8.16,9.1,8.5,9.1C8.84,9.1,9.1,8.84,9.1,8.51Z" fill="currentColor"/></svg>