<svg xmlns="http://www.w3.org/2000/svg" viewBox="0 0 11 11"><path d="M1.5,7L9.5,7L9.5,5.5C9.5,5.17,9.34,4.93,9.04,4.79L8.39,4.5L7.5,2.67C7.29,2.24,6.91,2,6.42,2L2.5,2C1.85,2,1.5,2.35,1.5,3Z" fill="currentColor"/><path d="M5,4.5L5,3L6.54,3L7.28,4.5Z" fill="currentColor"/><path d="M4.1,8.51C4.1,8.17,3.84,7.9,3.5,7.9C3.16,7.9,2.9,8.17,2.9,8.51C2.9,8.84,3.16,9.1,3.5,9.1C3.84,9.1,4.1,8.84,4.1,8.51Z" fill="currentColor"/><path d="M9.1,8.51C9.1,8.17,8.84,7.9,8.5,7.9C8.16,7.9,7.9,8.17,7.9,8.51C7.9,8.84,8.16,9.1,8.5,9.1C8.84,9.1,9.1,8.84,9.1,8.51Z" fill="currentColor"/></svg>