<svg xmlns="http://www.w3.org/2000/svg" viewBox="0 0 11 11"><path d="M0.09,0.09L0.09,0.09L0.09,0.09L0.08,0.07L0.07,0.07L0.04,0.04L0.04,0.03L0.02,0.02L0.02,0.02L0.03,0.04C0.03,0.04,0.03,0.05,0.02,0.05L0.02,0.05L0.02,0.06L0.02,0.06C0.03,0.07,0.04,0.08,0.05,0.09L0.05,0.1L0.06,0.1L0.06,0.09C0.06,0.08,0.07,0.08,0.07,0.08Z" fill="currentColor"/><path d="M0.1,0.05L0.09,0.05C0.08,0.04,0.07,0.03,0.06,0.02L0.06,0.01L0.05,0.01L0.05,0.03L0.06,0.03C0.07,0.03,0.08,0.04,0.08,0.05L0.08,0.06L0.1,0.06Z" fill="currentColor"/><path d="M0.04,0.04L0.07,0.07C0.06,0.07,0.06,0.08,0.06,0.08C0.04,0.08,0.03,0.07,0.03,0.06C0.03,0.05,0.04,0.05,0.04,0.04Z" fill="currentColor"/></svg>