<svg xmlns="http://www.w3.org/2000/svg" viewBox="0 0 11 11"><path d="M2,9L3,9L3,8L8,8L8,9L9,9L9,5.75C9,5.26,8.92,4.75,8.76,4.29L8.24,2.71C8.08,2.25,7.74,2,7.25,2L3.75,2C3.26,2,2.92,2.25,2.76,2.71L2.24,4.29C2.08,4.75,2,5.26,2,5.75Z" fill="currentColor"/><path d="M2.85,6.5C2.85,6.14,3.15,5.85,3.5,5.85C3.86,5.85,4.15,6.14,4.15,6.5C4.15,6.85,3.86,7.15,3.5,7.15C3.15,7.15,2.85,6.85,2.85,6.5Z" fill="currentColor"/><path d="M6.85,6.5C6.85,6.14,7.14,5.85,7.5,5.85C7.85,5.85,8.15,6.14,8.15,6.5C8.15,6.85,7.85,7.15,7.5,7.15C7.14,7.15,6.85,6.85,6.85,6.5Z" fill="currentColor"/></svg>