<svg xmlns="http://www.w3.org/2000/svg" viewBox="0 0 11 11"><path d="M0.01,0.06L0.03,0.08L0.04,0.06Z" fill="currentColor"/><path d="M0.03,0.06L0.03,0.06C0.03,0.04,0.04,0.03,0.06,0.03C0.07,0.03,0.08,0.04,0.08,0.06C0.08,0.07,0.07,0.08,0.06,0.08L0.06,0.09C0.07,0.09,0.09,0.07,0.09,0.06C0.09,0.04,0.07,0.02,0.06,0.02C0.04,0.02,0.02,0.03,0.02,0.06L0.02,0.06Z" fill="currentColor"/><path d="M0.04,0.05C0.04,0.05,0.05,0.06,0.06,0.07C0.06,0.06,0.07,0.05,0.07,0.05C0.07,0.04,0.06,0.04,0.06,0.04C0.05,0.04,0.04,0.04,0.04,0.05Z" fill="currentColor"/></svg>