<svg xmlns="http://www.w3.org/2000/svg" viewBox="0 0 11 11"><path d="M7.1,5.5C7.1,3.41,6.38,1.7,5.5,1.7C4.62,1.7,3.9,3.41,3.9,5.5C3.9,7.59,4.62,9.3,5.5,9.3C6.38,9.3,7.1,7.59,7.1,5.5Z" fill="currentColor"/><path d="M5.5,2.7C5.83,2.7,6.1,3.96,6.1,5.5C6.1,7.04,5.83,8.3,5.5,8.3C5.17,8.3,4.9,7.04,4.9,5.5C4.9,3.96,5.17,2.7,5.5,2.7Z" fill="currentColor"/><path d="M9.3,5.5C9.3,3.45,7.55,1.7,5.5,1.7C3.41,1.7,1.7,3.45,1.7,5.5C1.7,7.55,3.41,9.3,5.5,9.3C7.55,9.3,9.3,7.55,9.3,5.5Z" fill="currentColor"/><path d="M5.5,2.7C7.01,2.7,8.3,3.99,8.3,5.5C8.3,7.01,7.01,8.3,5.5,8.3C3.96,8.3,2.7,7.01,2.7,5.5C2.7,3.99,3.96,2.7,5.5,2.7Z" fill="currentColor"/></svg>