<svg xmlns="http://www.w3.org/2000/svg" viewBox="0 0 11 11"><path d="M2.35,6L8.6,6C9.33,6,9.33,5,8.6,5L6.96,5L5.23,2L4.23,2L5.21,5L3.07,5L2.74,4L1.74,4Z" fill="currentColor"/><path d="M3.11,8.49C3.11,8.16,2.85,7.9,2.51,7.9C2.17,7.9,1.91,8.16,1.91,8.49C1.91,8.83,2.17,9.1,2.51,9.1C2.85,9.1,3.11,8.83,3.11,8.49Z" fill="currentColor"/><path d="M6.1,8.49C6.1,8.16,5.84,7.9,5.5,7.9C5.16,7.9,4.9,8.16,4.9,8.49C4.9,8.83,5.16,9.1,5.5,9.1C5.84,9.1,6.1,8.83,6.1,8.49Z" fill="currentColor"/><path d="M9.09,8.49C9.09,8.16,8.83,7.9,8.49,7.9C8.15,7.9,7.89,8.16,7.89,8.49C7.89,8.83,8.15,9.1,8.49,9.1C8.83,9.1,9.09,8.83,9.09,8.49Z" fill="currentColor"/></svg>