<svg xmlns="http://www.w3.org/2000/svg" viewBox="0 0 11 11"><path d="M2,9L3,9L3,8L8,8L8,9L9,9L9,3.5C9,2.53,8.47,2,7.5,2L3.5,2C2.53,2,2,2.53,2,3.5Z" fill="currentColor"/><path d="M4.5,4L4.5,3L6.5,3L6.5,4Z" fill="currentColor"/><path d="M2.85,6.5C2.85,6.14,3.15,5.85,3.5,5.85C3.86,5.85,4.15,6.14,4.15,6.5C4.15,6.85,3.86,7.15,3.5,7.15C3.15,7.15,2.85,6.85,2.85,6.5Z" fill="currentColor"/><path d="M6.85,6.5C6.85,6.14,7.14,5.85,7.5,5.85C7.85,5.85,8.15,6.14,8.15,6.5C8.15,6.85,7.85,7.15,7.5,7.15C7.14,7.15,6.85,6.85,6.85,6.5Z" fill="currentColor"/></svg>