<svg xmlns="http://www.w3.org/2000/svg" viewBox="0 0 11 11"><path d="M0.09,0.09L0.09,0.02L0.02,0.02L0.02,0.09Z" fill="currentColor"/><path d="M0.05,0.09L0.05,0.07C0.04,0.07,0.04,0.06,0.04,0.06C0.04,0.05,0.04,0.04,0.05,0.04L0.05,0.02L0.06,0.02L0.06,0.04C0.07,0.04,0.07,0.05,0.07,0.06C0.07,0.06,0.07,0.07,0.06,0.07L0.06,0.09Z" fill="currentColor"/><path d="M0.06,0.06C0.06,0.06,0.06,0.06,0.06,0.06C0.06,0.05,0.06,0.05,0.06,0.05C0.05,0.05,0.05,0.05,0.05,0.06C0.05,0.06,0.05,0.06,0.06,0.06Z" fill="currentColor"/></svg>