<svg xmlns="http://www.w3.org/2000/svg" viewBox="0 0 11 11"><path d="M4.85,6.5C4.85,5.07,6.03,3.85,7.5,3.85C8.51,3.85,9.31,4.35,9.91,5.24L9.07,5.8C8.62,5.12,8.19,4.85,7.5,4.85C6.52,4.85,5.85,5.54,5.85,6.5C5.85,7.46,6.52,8.15,7.5,8.15C8.11,8.15,8.55,7.87,9.1,7.17L9.88,7.79C9.21,8.66,8.43,9.15,7.5,9.15C6.03,9.15,4.85,7.93,4.85,6.5Z" fill="currentColor"/><path d="M5.1,3.5C5.1,2.64,4.38,1.9,3.5,1.9C2.62,1.9,1.9,2.64,1.9,3.5C1.9,4.36,2.62,5.1,3.5,5.1C4.38,5.1,5.1,4.36,5.1,3.5Z" fill="currentColor"/><path d="M2.8,3.5C2.8,3.12,3.12,2.8,3.5,2.8C3.89,2.8,4.2,3.12,4.2,3.5C4.2,3.88,3.89,4.2,3.5,4.2C3.12,4.2,2.8,3.88,2.8,3.5Z" fill="currentColor"/></svg>