<svg xmlns="http://www.w3.org/2000/svg" viewBox="0 0 11 11"><path d="M2,2L2,9L5.5,9L9,9L9,2Z" fill="currentColor"/><path d="M6.5,2C6.5,2.54,6.04,3,5.5,3C4.95,3,4.5,2.54,4.5,2Z" fill="currentColor"/><path d="M4.05,5.74C4.05,6.06,3.78,6.34,3.45,6.34C3.12,6.34,2.85,6.06,2.85,5.74C2.85,5.41,3.12,5.14,3.45,5.14C3.78,5.14,4.05,5.41,4.05,5.74Z" fill="currentColor"/><path d="M6.1,5.74C6.1,6.06,5.82,6.34,5.5,6.34C5.17,6.34,4.9,6.06,4.9,5.74C4.9,5.41,5.17,5.14,5.5,5.14C5.82,5.14,6.1,5.41,6.1,5.74Z" fill="currentColor"/><path d="M8.15,5.74C8.15,6.06,7.87,6.34,7.55,6.34C7.21,6.34,6.95,6.06,6.95,5.74C6.95,5.41,7.21,5.14,7.55,5.14C7.87,5.14,8.15,5.41,8.15,5.74Z" fill="currentColor"/></svg>