<svg xmlns="http://www.w3.org/2000/svg" viewBox="0 0 11 11"><path d="M2.95,3.3C3.67,2.59,4.54,2.25,5.51,2.25C6.49,2.25,7.36,2.57,8.06,3.29L8.78,2.59C7.9,1.69,6.7,1.25,5.51,1.25C4.33,1.25,3.13,1.71,2.25,2.58Z" fill="currentColor"/><path d="M3.5,9L7.5,9L7.5,7L6.89,7L6.89,6.75C6.89,6.07,6.34,5.32,5.49,5.32C4.66,5.32,4.14,6.08,4.14,6.75L4.14,7L3.5,7Z" fill="currentColor"/><path d="M4.45,4.79C4.85,4.39,5.15,4.25,5.51,4.25C5.88,4.25,6.17,4.39,6.56,4.79L7.28,4.09C6.74,3.54,6.14,3.25,5.51,3.25C4.88,3.25,4.29,3.55,3.75,4.09Z" fill="currentColor"/><path d="M4.89,7L4.89,6.75C4.89,6.37,5.09,6.07,5.49,6.07C5.92,6.07,6.14,6.37,6.14,6.75L6.14,7Z" fill="currentColor"/></svg>