<svg xmlns="http://www.w3.org/2000/svg" viewBox="0 0 11 11"><path d="M2,9L3,9L3,8L8,8L8,9L9,9L9,5.75C9,5.26,8.88,4.77,8.66,4.33L8.34,3.67C8.12,3.23,7.74,3,7.25,3L6.5,3L6.5,2L4.5,2L4.5,3L3.75,3C3.26,3,2.88,3.23,2.66,3.67L2.34,4.33C2.12,4.77,2,5.26,2,5.75Z" fill="currentColor"/><path d="M2.85,6.5C2.85,6.14,3.15,5.85,3.5,5.85C3.86,5.85,4.15,6.14,4.15,6.5C4.15,6.85,3.86,7.15,3.5,7.15C3.15,7.15,2.85,6.85,2.85,6.5Z" fill="currentColor"/><path d="M6.85,6.5C6.85,6.14,7.14,5.85,7.5,5.85C7.85,5.85,8.15,6.14,8.15,6.5C8.15,6.85,7.85,7.15,7.5,7.15C7.14,7.15,6.85,6.85,6.85,6.5Z" fill="currentColor"/></svg>