<svg xmlns="http://www.w3.org/2000/svg" viewBox="0 0 11 11"><path d="M2.5,9.5L3.52,9.5L4,8L7,8L7.38,9.5L8.4,9.5L8,8L9,8L9,2.75C9,2.26,8.74,2,8.25,2L3,2C2.35,2,2,2.35,2,3L2,8L3,8Z" fill="currentColor"/><path d="M3,4.75L3,3L8,3L8,4.75Z" fill="currentColor"/><path d="M2.85,6.5C2.85,6.14,3.15,5.85,3.5,5.85C3.86,5.85,4.15,6.14,4.15,6.5C4.15,6.85,3.86,7.15,3.5,7.15C3.15,7.15,2.85,6.85,2.85,6.5Z" fill="currentColor"/><path d="M6.85,6.5C6.85,6.14,7.14,5.85,7.5,5.85C7.85,5.85,8.15,6.14,8.15,6.5C8.15,6.85,7.85,7.15,7.5,7.15C7.14,7.15,6.85,6.85,6.85,6.5Z" fill="currentColor"/></svg>