<svg xmlns="http://www.w3.org/2000/svg" viewBox="0 0 11 11"><path d="M0.5,7L10.5,7L10.5,5.75C10.5,5.26,10.25,4.93,9.78,4.81L8.5,4.47L8,2.95C7.8,2.33,7.34,2,6.69,2L3.62,2C2.97,2,2.54,2.34,2.38,2.97L2.01,4.52L1.25,4.59C0.76,4.63,0.5,4.91,0.5,5.4Z" fill="currentColor"/><path d="M5.1,4.52L5.1,3L6.84,3L7.24,4.52Z" fill="currentColor"/><path d="M4.1,8.51C4.1,8.17,3.84,7.9,3.5,7.9C3.16,7.9,2.9,8.17,2.9,8.51C2.9,8.84,3.16,9.1,3.5,9.1C3.84,9.1,4.1,8.84,4.1,8.51Z" fill="currentColor"/><path d="M9.1,8.51C9.1,8.17,8.84,7.9,8.5,7.9C8.16,7.9,7.9,8.17,7.9,8.51C7.9,8.84,8.16,9.1,8.5,9.1C8.84,9.1,9.1,8.84,9.1,8.51Z" fill="currentColor"/></svg>