<svg xmlns="http://www.w3.org/2000/svg" viewBox="0 0 11 11"><path d="M6,9L9,9L9,8L6,8Z" fill="currentColor"/><path d="M3.04,8.45L8.14,6.35L8.55,7.37L9.47,6.98L8.3,4.14C8.11,3.69,7.82,3.27,7.47,2.93L6.74,2.24C6.4,1.91,5.99,1.84,5.56,2.01L2.68,3.21C2.25,3.38,2.02,3.73,2.01,4.2L2.01,5.18C2,5.67,2.1,6.17,2.29,6.62Z" fill="currentColor"/><path d="M3.61,5.89C3.95,5.74,4.33,5.9,4.46,6.25C4.59,6.57,4.44,6.96,4.1,7.09C3.78,7.23,3.39,7.07,3.25,6.74C3.13,6.41,3.29,6.03,3.61,5.89Z" fill="currentColor"/><path d="M6.84,4.55C7.16,4.41,7.56,4.57,7.7,4.9C7.82,5.22,7.67,5.62,7.35,5.74C7.01,5.88,6.63,5.73,6.49,5.4C6.35,5.06,6.51,4.68,6.84,4.55Z" fill="currentColor"/><path d="M3.04,8.45L3.27,9L4.35,9L3.92,7.98Z" fill="currentColor"/></svg>