<svg xmlns="http://www.w3.org/2000/svg" viewBox="0 0 11 11"><path d="M3,9L4,9L4,8L7,8L7,9L8,9L8,7.5C8,7.17,7.94,6.84,7.81,6.54L7.39,5.46C7.26,5.16,7.03,5,6.7,5L4.3,5C3.98,5,3.74,5.16,3.61,5.46L3.19,6.54C3.06,6.84,3,7.17,3,7.5Z" fill="currentColor"/><path d="M5.15,3.44C5.15,3.25,5.07,2.97,4.5,1.7C3.93,2.97,3.85,3.26,3.85,3.45C3.85,3.85,4.19,4.1,4.5,4.1C4.81,4.1,5.15,3.84,5.15,3.44Z" fill="currentColor"/><path d="M7.15,3.44C7.15,3.25,7.07,2.97,6.5,1.7C5.93,2.97,5.85,3.26,5.85,3.45C5.85,3.85,6.19,4.1,6.5,4.1C6.81,4.1,7.15,3.84,7.15,3.44Z" fill="currentColor"/></svg>