<svg xmlns="http://www.w3.org/2000/svg" viewBox="0 0 11 11"><path d="M0.08,0.08L0.1,0.09L0.1,0.08L0.07,0.06L0.04,0.05L0.02,0.03L0.01,0.04L0.04,0.06C0.04,0.06,0.03,0.06,0.03,0.07C0.03,0.08,0.04,0.09,0.06,0.09C0.06,0.09,0.07,0.08,0.08,0.08Z" fill="currentColor"/><path d="M0.04,0.07C0.04,0.07,0.05,0.06,0.05,0.06L0.07,0.07C0.07,0.08,0.06,0.08,0.06,0.08C0.05,0.08,0.04,0.08,0.04,0.07Z" fill="currentColor"/><path d="M0.04,0.03L0.07,0.05L0.07,0.03C0.07,0.02,0.06,0.02,0.06,0.02C0.05,0.02,0.04,0.02,0.04,0.03Z" fill="currentColor"/></svg>