<svg xmlns="http://www.w3.org/2000/svg" viewBox="0 0 11 11"><path d="M2.33,3.04L3.97,4.59L4.65,3.87L3.01,2.32Z" fill="currentColor"/><path d="M7.62,6C7.95,4.56,6.82,3.24,5.5,3.24C4.19,3.24,3.04,4.55,3.37,6Z" fill="currentColor"/><path d="M6,3.74L6,1.5L5,1.5L5,3.74Z" fill="currentColor"/><path d="M7.04,4.59L8.67,3.04L7.99,2.32L6.36,3.87Z" fill="currentColor"/><path d="M3.81,5L3.81,6L7.18,6L7.18,5Z" fill="currentColor"/><path d="M7.26,6L9.5,6L9.5,5L7.26,5Z" fill="currentColor"/><path d="M1.5,6L3.74,6L3.74,5L1.5,5Z" fill="currentColor"/><path d="M4,9L7,9L5.5,6.75Z" fill="currentColor"/></svg>