<svg xmlns="http://www.w3.org/2000/svg" viewBox="0 0 11 11"><path d="M2,9L9,9L9,7C7.98,7,7.47,6.74,7,6C6.53,6.74,6.15,7,5.51,7C4.86,7,4.47,6.74,4,6C3.53,6.74,3.02,7,2,7Z" fill="#000000"/><path d="M3.6,3.99C3.6,3.77,3.52,3.63,3,2.39C2.48,3.63,2.4,3.77,2.4,4C2.4,4.37,2.71,4.6,3,4.6C3.29,4.6,3.6,4.36,3.6,3.99Z" fill="#000000"/><path d="M8.6,4C8.6,3.77,8.52,3.63,8,2.39C7.48,3.63,7.4,3.77,7.4,3.99C7.4,4.36,7.71,4.6,8,4.6C8.29,4.6,8.6,4.37,8.6,4Z" fill="#000000"/><path d="M6.1,4C6.1,3.77,6.02,3.63,5.5,2.39C4.98,3.63,4.9,3.77,4.9,3.99C4.9,4.36,5.21,4.6,5.5,4.6C5.79,4.6,6.1,4.37,6.1,4Z" fill="#000000"/></svg>