<svg xmlns="http://www.w3.org/2000/svg" viewBox="0 0 11 11"><path d="M3.9,8.49C3.9,8.27,3.82,8.13,3.3,6.89C2.78,8.13,2.7,8.27,2.7,8.5C2.7,8.87,3.01,9.1,3.3,9.1C3.59,9.1,3.9,8.86,3.9,8.49Z" fill="currentColor"/><path d="M8.3,8.5C8.3,8.27,8.22,8.13,7.7,6.89C7.18,8.13,7.1,8.27,7.1,8.49C7.1,8.86,7.41,9.1,7.7,9.1C7.99,9.1,8.3,8.87,8.3,8.5Z" fill="currentColor"/><path d="M6.1,8.5C6.1,8.27,6.02,8.13,5.5,6.89C4.98,8.13,4.9,8.27,4.9,8.49C4.9,8.86,5.21,9.1,5.5,9.1C5.79,9.1,6.1,8.87,6.1,8.5Z" fill="currentColor"/><path d="M7.75,6C8.75,6,9.25,5.51,9.25,4.75C9.25,3.94,8.75,3.5,7.75,3.5L7.19,3.5C7.19,2.53,6.51,1.75,5.5,1.75C4.49,1.75,3.81,2.53,3.81,3.5L3.25,3.5C2.25,3.5,1.75,3.94,1.75,4.75C1.75,5.51,2.25,6,3.25,6Z" fill="currentColor"/></svg>