<svg xmlns="http://www.w3.org/2000/svg" viewBox="0 0 11 11"><path d="M0.06,0.07C0.06,0.06,0.05,0.05,0.04,0.05C0.03,0.05,0.02,0.06,0.02,0.07C0.02,0.08,0.03,0.09,0.04,0.09C0.05,0.09,0.06,0.08,0.06,0.07Z" fill="currentColor"/><path d="M0.03,0.07C0.03,0.06,0.03,0.06,0.04,0.06C0.05,0.06,0.05,0.06,0.05,0.07C0.05,0.08,0.05,0.08,0.04,0.08C0.03,0.08,0.03,0.08,0.03,0.07Z" fill="currentColor"/><path d="M0.03,0.05L0.05,0.05L0.05,0.03C0.05,0.02,0.05,0.02,0.04,0.02C0.03,0.02,0.03,0.02,0.03,0.03Z" fill="currentColor"/><path d="M0.06,0.04L0.09,0.04L0.09,0.03L0.06,0.03Z" fill="currentColor"/></svg>