<svg xmlns="http://www.w3.org/2000/svg" viewBox="0 0 11 11"><path d="M6.69,8.06C6.69,7.72,6.54,7.19,5.5,4.87C4.46,7.19,4.31,7.7,4.31,8.05C4.31,8.77,4.94,9.25,5.5,9.25C6.06,9.25,6.69,8.8,6.69,8.06Z" fill="#000000"/><path d="M3.88,4.93C3.88,4.59,3.73,4.06,2.69,1.75C1.64,4.06,1.5,4.58,1.5,4.92C1.5,5.65,2.13,6.12,2.69,6.12C3.25,6.12,3.88,5.67,3.88,4.93Z" fill="#000000"/><path d="M9.5,4.93C9.5,4.59,9.35,4.06,8.31,1.75C7.26,4.06,7.12,4.58,7.12,4.92C7.12,5.65,7.75,6.12,8.31,6.12C8.87,6.12,9.5,5.67,9.5,4.93Z" fill="#000000"/></svg>