<svg xmlns="http://www.w3.org/2000/svg" viewBox="0 0 11 11"><path d="M0.07,0.07L0.07,0.06C0.07,0.05,0.07,0.05,0.08,0.05L0.09,0.04L0.08,0.04C0.07,0.04,0.07,0.04,0.07,0.03L0.07,0.02L0.06,0.03C0.06,0.04,0.06,0.04,0.05,0.04L0.04,0.04L0.05,0.05C0.06,0.05,0.06,0.05,0.06,0.06Z" fill="currentColor"/><path d="M0.04,0.09L0.04,0.08C0.04,0.08,0.04,0.08,0.04,0.08L0.05,0.07L0.04,0.07C0.04,0.07,0.04,0.07,0.04,0.07L0.04,0.06L0.03,0.07C0.03,0.07,0.03,0.07,0.03,0.07L0.02,0.07L0.03,0.08C0.03,0.08,0.03,0.08,0.03,0.08Z" fill="currentColor"/></svg>