<svg xmlns="http://www.w3.org/2000/svg" viewBox="0 0 11 11"><path d="M6.25,5.51C6.89,5.51,7.32,5.17,7.32,4.64C7.32,4.17,6.96,3.86,6.46,3.86C6.05,3.86,5.72,4.07,5.53,4.41C5.34,4.07,5.03,3.86,4.64,3.86C4.13,3.86,3.77,4.17,3.77,4.64C3.77,5.17,4.21,5.51,4.85,5.51Z" fill="currentColor"/><path d="M3.14,9L5.32,9L5.32,7.57L3.14,7.57Z" fill="currentColor"/><path d="M3.14,7.21L5.32,7.21L5.32,5.71L3.14,5.71Z" fill="currentColor"/><path d="M4.64,4.28C5.01,4.28,5.26,4.59,5.31,5.09L4.88,5.09C4.47,5.09,4.22,4.91,4.22,4.64C4.22,4.43,4.38,4.28,4.64,4.28Z" fill="currentColor"/><path d="M5.67,9L7.86,9L7.86,7.57L5.67,7.57Z" fill="currentColor"/><path d="M5.67,7.21L7.86,7.21L7.86,5.71L5.67,5.71Z" fill="currentColor"/><path d="M5.79,5.09C5.83,4.59,6.08,4.28,6.46,4.28C6.71,4.28,6.88,4.44,6.88,4.64C6.88,4.91,6.62,5.09,6.22,5.09Z" fill="currentColor"/></svg>